<svg width="38" height="38" viewBox="0 0 38 38" fill="none" xmlns="http://www.w3.org/2000/svg">
<rect width="38" height="38" rx="6" fill="#D9E8FF" fill-opacity="0.3"/>
<path d="M20.4056 12.4898L20.4054 12.4901L19.4515 13.473L19.0927 13.8428L18.7339 13.473L17.7799 12.4901L17.7794 12.4895C15.5103 10.1436 11.8573 9.7934 9.42764 11.8638C8.03672 13.051 7.48241 14.596 7.50042 16.2529C7.51858 17.9234 8.1214 19.7048 9.05292 21.2936C10.821 24.1922 13.0952 26.7498 15.7673 28.8445L18.302 30.8315L18.3288 30.8526L18.3526 30.8771C18.7614 31.299 19.4191 31.299 19.8279 30.8771L19.8517 30.8525L19.8787 30.8314L22.419 28.8414C25.0864 26.7518 27.3562 24.1994 29.1199 21.3062C29.8018 19.9678 30.411 18.1777 30.4911 16.4292C30.5712 14.6798 30.123 13.0292 28.7578 11.8639L20.4056 12.4898ZM20.4056 12.4898C22.6798 10.1433 26.3281 9.79358 28.7576 11.8636L20.4056 12.4898Z" stroke="#212131"/>
</svg>
