<svg width="24" height="24" viewBox="0 0 24 24" fill="none" xmlns="http://www.w3.org/2000/svg">
<rect width="24" height="24" rx="2" fill="#3586FF"/>
<path d="M14.728 7.21429C14.6438 5.27016 13.9728 4 12.0007 4C10.1825 4 9.27344 5.48618 9.27344 7.21429" stroke="white"/>
<path d="M17.2696 7.11414H6.83478L6.07515 17.93C6.03453 18.5084 6.49283 19 7.0727 19H16.9367C17.5131 19 17.9701 18.514 17.9348 17.9387L17.2696 7.11414Z" stroke="white"/>
<path d="M14.7277 9.8929C14.7277 10.1888 14.4835 10.4286 14.1822 10.4286C13.881 10.4286 13.6368 10.1888 13.6368 9.8929C13.6368 9.59703 13.881 9.35718 14.1822 9.35718C14.4835 9.35718 14.7277 9.59703 14.7277 9.8929Z" fill="white"/>
<path d="M10.3644 9.8929C10.3644 10.1888 10.1202 10.4286 9.81894 10.4286C9.51769 10.4286 9.27348 10.1888 9.27348 9.8929C9.27348 9.59703 9.51769 9.35718 9.81894 9.35718C10.1202 9.35718 10.3644 9.59703 10.3644 9.8929Z" fill="white"/>
</svg>
