<svg width="224" height="224" viewBox="0 0 224 224" fill="none" xmlns="http://www.w3.org/2000/svg">
<path d="M37.4735 96.5066L21.4668 121.66L37.4735 128.52V185.687L108.36 215.413L188.393 185.687V128.52L204.4 121.66L188.393 96.5066L112.933 69.0667L37.4735 96.5066Z" fill="white"/>
<path d="M35.9297 96.405L109.093 69.0667M35.9297 96.405L109.093 124.937M35.9297 96.405L21.6173 120.475C21.279 121.044 21.5337 121.777 22.1544 122.021L37.5466 128.057M109.093 69.0667L190.341 96.405M109.093 69.0667V124.937M190.341 96.405L204.257 120.458C204.59 121.035 204.32 121.769 203.69 121.999L187.215 128.057M190.341 96.405L109.093 124.937M109.093 124.937L126.799 149.42C127.085 149.816 127.603 149.973 128.064 149.803L187.215 128.057M109.093 124.937L94.2093 149.31C93.9344 149.76 93.3705 149.947 92.8761 149.753L37.5466 128.057M109.093 124.937V215.413M37.5466 128.057V186.155C37.5466 186.594 37.8161 186.99 38.2278 187.153L109.093 215.413M187.215 128.057L188.305 186.114C188.314 186.572 188.027 186.987 187.589 187.145L109.093 215.413" stroke="url(#paint0_linear_1947_25604)"/>
<path d="M156.102 152.899L156.112 152.907L157.858 154.155L158.263 154.444L158.554 154.042L159.841 152.264L159.841 152.264C161.414 150.084 163.461 148.847 165.51 148.609C167.548 148.372 169.65 149.116 171.376 151.025L156.102 152.899ZM156.102 152.899L156.091 152.89M156.102 152.899L156.091 152.89M156.091 152.89C153.725 150.998 150.885 150.586 148.324 151.156C145.752 151.728 143.504 153.28 142.333 155.255C138.506 161.716 141.815 168.492 144.799 172.694L148.139 176.665L157.268 185.945C157.848 186.509 158.265 186.67 158.552 186.661C158.82 186.653 159.134 186.49 159.501 185.983L159.521 185.955M156.091 152.89L159.521 185.955M159.521 185.955L159.544 185.931M159.521 185.955L159.544 185.931M159.544 185.931L162.439 182.891C166.435 178.695 169.697 173.857 172.087 168.579M159.544 185.931L172.087 168.579M172.087 168.579C173.356 165.665 174.182 162.37 174.182 159.251C174.183 156.132 173.362 153.223 171.376 151.025L172.087 168.579Z" stroke="url(#paint1_linear_1947_25604)"/>
<path d="M16 32L50.5 67.5" stroke="url(#paint2_linear_1947_25604)"/>
<path d="M203.5 32L169 67.5" stroke="url(#paint3_linear_1947_25604)"/>
<path d="M110.5 57.5V19.5" stroke="url(#paint4_linear_1947_25604)"/>
<defs>
<linearGradient id="paint0_linear_1947_25604" x1="21.4668" y1="54.6933" x2="314.092" y2="133.578" gradientUnits="userSpaceOnUse">
<stop stop-color="#3586FF"/>
<stop offset="1" stop-color="#83E0B3"/>
</linearGradient>
<linearGradient id="paint1_linear_1947_25604" x1="174.563" y1="144.167" x2="117.383" y2="155.567" gradientUnits="userSpaceOnUse">
<stop stop-color="#3586FF"/>
<stop offset="1" stop-color="#83E0B3"/>
</linearGradient>
<linearGradient id="paint2_linear_1947_25604" x1="16" y1="28.5134" x2="72.7068" y2="40.3983" gradientUnits="userSpaceOnUse">
<stop stop-color="#3586FF"/>
<stop offset="1" stop-color="#83E0B3"/>
</linearGradient>
<linearGradient id="paint3_linear_1947_25604" x1="203.5" y1="28.5134" x2="146.793" y2="40.3983" gradientUnits="userSpaceOnUse">
<stop stop-color="#3586FF"/>
<stop offset="1" stop-color="#83E0B3"/>
</linearGradient>
<linearGradient id="paint4_linear_1947_25604" x1="110.5" y1="15.7679" x2="112.216" y2="15.7776" gradientUnits="userSpaceOnUse">
<stop stop-color="#3586FF"/>
<stop offset="1" stop-color="#83E0B3"/>
</linearGradient>
</defs>
</svg>
