<svg width="20" height="20" viewBox="0 0 20 20" fill="none" xmlns="http://www.w3.org/2000/svg">
<path d="M7.51464 2.03159C3.75286 3.11015 1 6.57561 1 10.684C1 14.8062 3.77125 18.281 7.5523 19.3472M12.3724 2C16.1919 3.04101 19 6.53459 19 10.684C19 14.8062 16.2288 18.281 12.4477 19.3472M13.2762 8.57525C13.2009 7.72169 12.5984 5.97692 10.7909 5.82629V4.20705H9.13396V5.82629C8.2302 5.82629 6.46033 6.6924 6.46032 8.57525C6.46032 12.6045 11.6569 10.3075 11.8075 12.8681C11.6569 14.9393 8.00418 14.4874 7.92887 12.6799H6.19665C6.27197 13.5334 7.25105 15.2782 9.05858 15.4288V17.0481H10.7155V15.4288C11.6192 15.4288 13.5397 14.5627 13.5397 12.6799C13.5398 8.65056 8.19247 10.9476 8.19247 8.53759C8.19247 6.99366 11.0167 6.57943 11.6569 8.57525H13.2762Z" stroke="#3586FF"/>
</svg>
