<svg width="20" height="20" viewBox="0 0 20 20" fill="none" xmlns="http://www.w3.org/2000/svg">
<g clip-path="url(#clip0_6091_9759)">
<path d="M10 20C15.5417 20 20 15.5417 20 10C20 4.4583 15.5417 0 10 0C4.4583 0 0 4.4583 0 10C0 15.5417 4.4583 20 10 20Z" fill="#2775CA"/>
<path d="M12.75 11.5833C12.75 10.125 11.875 9.625 10.125 9.4167C8.87505 9.25 8.62505 8.9167 8.62505 8.3333C8.62505 7.7499 9.04175 7.375 9.87505 7.375C10.625 7.375 11.0417 7.625 11.25 8.25C11.2917 8.375 11.4167 8.4583 11.5417 8.4583H12.2083C12.375 8.4583 12.5 8.3333 12.5 8.1667V8.125C12.3333 7.2083 11.5833 6.5 10.625 6.4167V5.4167C10.625 5.25 10.5 5.125 10.2917 5.0833H9.66675C9.50005 5.0833 9.37505 5.2083 9.33335 5.4167V6.375C8.08335 6.5417 7.29175 7.375 7.29175 8.4167C7.29175 9.7917 8.12505 10.3333 9.87505 10.5417C11.0417 10.75 11.4167 11 11.4167 11.6667C11.4167 12.3334 10.8333 12.7917 10.0417 12.7917C8.95835 12.7917 8.58335 12.3333 8.45835 11.7083C8.41675 11.5417 8.29175 11.4583 8.16675 11.4583H7.45835C7.29175 11.4583 7.16675 11.5833 7.16675 11.75V11.7917C7.33335 12.8333 8.00005 13.5833 9.37505 13.7917V14.7917C9.37505 14.9583 9.50005 15.0833 9.70835 15.125H10.3333C10.5 15.125 10.625 15 10.6667 14.7917V13.7917C11.9167 13.5833 12.75 12.7083 12.75 11.5833Z" fill="white"/>
<path d="M7.87508 15.9583C4.62508 14.7917 2.95838 11.1667 4.16678 7.9583C4.79178 6.2083 6.16678 4.875 7.87508 4.25C8.04178 4.1667 8.12508 4.0417 8.12508 3.8333V3.25C8.12508 3.0833 8.04178 2.9583 7.87508 2.9167C7.83338 2.9167 7.75008 2.9167 7.70838 2.9583C3.75008 4.2083 1.58338 8.4167 2.83338 12.375C3.58338 14.7083 5.37508 16.5 7.70838 17.25C7.87508 17.3333 8.04178 17.25 8.08338 17.0833C8.12508 17.0417 8.12508 17 8.12508 16.9167V16.3333C8.12508 16.2083 8.00008 16.0417 7.87508 15.9583ZM12.2918 2.9583C12.1251 2.875 11.9584 2.9583 11.9168 3.125C11.8751 3.1667 11.8751 3.2083 11.8751 3.2917V3.875C11.8751 4.0417 12.0001 4.2083 12.1251 4.2917C15.3751 5.4583 17.0418 9.0833 15.8334 12.2917C15.2084 14.0417 13.8334 15.375 12.1251 16C11.9584 16.0833 11.8751 16.2083 11.8751 16.4167V17C11.8751 17.1667 11.9584 17.2917 12.1251 17.3333C12.1668 17.3333 12.2501 17.3333 12.2918 17.2917C16.2501 16.0417 18.4168 11.8333 17.1668 7.875C16.4168 5.5 14.5834 3.7083 12.2918 2.9583Z" fill="white"/>
</g>
<defs>
<clipPath id="clip0_6091_9759">
<rect width="20" height="20" fill="white"/>
</clipPath>
</defs>
</svg>
