<svg width="28" height="26" viewBox="0 0 28 26" fill="none" xmlns="http://www.w3.org/2000/svg">
<path d="M15.4759 12.456C15.4759 3.08 12.9479 0.679998 7.73188 0.679998C2.48387 0.679998 0.0518746 3.08 0.0518746 12.456C0.0518746 22.024 2.03587 25.32 7.73188 25.32C13.3959 25.32 15.4759 22.024 15.4759 12.456ZM7.73188 7.048C8.75587 7.048 9.20388 7.72 9.20388 12.392C9.20388 17.32 8.75587 18.12 7.73188 18.12C6.70787 18.12 6.25987 17.352 6.25987 12.392C6.25987 7.688 6.70787 7.048 7.73188 7.048ZM20.1716 25.032C21.6756 24.968 22.7636 24.968 23.7556 24.968C24.7796 24.968 25.8996 24.968 27.4996 25C27.4676 21.704 27.4036 18.088 27.4036 13C27.4036 7.88 27.4676 3.816 27.4996 0.999998C27.0836 1.032 26.4436 1.032 25.8036 1.032C25.2276 1.032 24.7156 0.999998 23.9796 0.999998C22.8276 1.992 21.5476 2.824 19.9796 3.56C20.0756 5.064 20.2036 7.4 20.2036 13C20.2036 18.12 20.2036 21.704 20.1716 25.032Z" fill="#5E97EC" fill-opacity="0.27"/>
</svg>
