<svg width="35" height="26" viewBox="0 0 35 26" fill="none" xmlns="http://www.w3.org/2000/svg">
<path d="M16.2727 12.456C16.2727 3.08 13.7448 0.679998 8.52875 0.679998C3.28075 0.679998 0.84875 3.08 0.84875 12.456C0.84875 22.024 2.83275 25.32 8.52875 25.32C14.1927 25.32 16.2727 22.024 16.2727 12.456ZM8.52875 7.048C9.55275 7.048 10.0008 7.72 10.0008 12.392C10.0008 17.32 9.55275 18.12 8.52875 18.12C7.50475 18.12 7.05675 17.352 7.05675 12.392C7.05675 7.688 7.50475 7.048 8.52875 7.048ZM33.8645 25C33.8325 23.976 33.8325 22.856 33.8325 21.64C33.8005 20.456 33.8325 19.336 33.8645 18.28C32.5845 18.408 31.0165 18.504 29.4165 18.504C28.6805 18.504 27.4965 18.504 26.3765 18.472C26.5365 17.512 27.3365 16.872 29.2565 16.04C32.6805 14.6 34.1525 12.712 34.1525 7.4C34.1525 2.792 32.4245 0.679998 27.3365 0.679998C22.2485 0.679998 20.4565 2.952 20.4565 7.56C20.4565 8.392 20.4885 9.32 20.5845 10.408C21.3845 10.312 22.4405 10.28 23.6245 10.28C24.5205 10.28 25.2885 10.28 25.9285 10.312C25.8965 9.544 25.8645 8.936 25.8645 8.392C25.8645 6.952 26.2485 6.344 27.1125 6.344C27.9125 6.344 28.3285 6.824 28.3285 7.944C28.3285 10.12 27.5605 10.888 24.8725 12.36C21.7685 13.96 20.3925 15.592 20.3925 19.944C20.3925 21 20.4245 21.768 20.4245 22.632C20.4245 23.72 20.3925 24.52 20.3605 25H33.8645Z" fill="#5E97EC" fill-opacity="0.27"/>
</svg>
