<svg width="34" height="26" viewBox="0 0 34 26" fill="none" xmlns="http://www.w3.org/2000/svg">
<path d="M15.5852 12.456C15.5852 3.08 13.0573 0.679998 7.84125 0.679998C2.59325 0.679998 0.16125 3.08 0.16125 12.456C0.16125 22.024 2.14525 25.32 7.84125 25.32C13.5052 25.32 15.5852 22.024 15.5852 12.456ZM7.84125 7.048C8.86525 7.048 9.31325 7.72 9.31325 12.392C9.31325 17.32 8.86525 18.12 7.84125 18.12C6.81725 18.12 6.36925 17.352 6.36925 12.392C6.36925 7.688 6.81725 7.048 7.84125 7.048ZM29.945 12.936C30.553 12.84 31.097 12.712 31.513 12.52C33.241 11.72 33.785 9.992 33.785 7.112C33.785 2.568 31.929 0.679998 26.809 0.679998C21.369 0.679998 19.737 2.76 19.737 7.368C19.737 8.104 19.737 8.872 19.801 9.768C20.601 9.704 21.689 9.672 22.745 9.672C23.801 9.672 24.729 9.704 25.337 9.736C25.337 9.128 25.305 8.616 25.305 8.2C25.305 6.664 25.657 5.992 26.649 5.992C27.449 5.992 27.865 6.568 27.865 8.52C27.865 10.376 27.353 10.952 25.657 10.952C24.441 10.952 23.545 10.92 23.065 10.888C23.065 11.432 23.097 12.136 23.097 12.904C23.097 13.704 23.065 14.568 23.033 15.24C23.865 15.176 24.697 15.176 25.689 15.176C27.353 15.176 27.897 15.688 27.897 17.704C27.897 19.496 27.513 19.976 26.585 19.976C25.625 19.976 25.305 19.4 25.305 17.704C25.305 17.352 25.305 16.936 25.369 16.424C24.697 16.456 23.833 16.488 22.745 16.488C21.593 16.488 20.601 16.456 19.801 16.392C19.769 17.128 19.737 17.8 19.737 18.376C19.737 23.368 21.209 25.32 26.713 25.32C31.865 25.32 33.849 23.24 33.849 18.44C33.849 15.784 33.337 14.184 31.481 13.448C31.065 13.288 30.553 13.192 29.945 13.128V12.936Z" fill="#5E97EC" fill-opacity="0.27"/>
</svg>
