<svg width="36" height="26" viewBox="0 0 36 26" fill="none" xmlns="http://www.w3.org/2000/svg">
<path d="M15.9446 12.456C15.9446 3.08 13.4166 0.679998 8.20063 0.679998C2.95262 0.679998 0.520625 3.08 0.520625 12.456C0.520625 22.024 2.50462 25.32 8.20063 25.32C13.8646 25.32 15.9446 22.024 15.9446 12.456ZM8.20063 7.048C9.22462 7.048 9.67263 7.72 9.67263 12.392C9.67263 17.32 9.22462 18.12 8.20063 18.12C7.17662 18.12 6.72862 17.352 6.72862 12.392C6.72862 7.688 7.17662 7.048 8.20063 7.048ZM34.3364 12.968C34.3364 7.88 34.3684 4.456 34.4644 0.999998H28.4804C28.5444 3.848 28.5764 11.144 28.5764 14.984C27.6484 14.984 26.9444 14.952 26.3364 14.952C26.4644 10.952 26.9444 3.56 27.0724 0.999998H21.0564C21.0564 3.432 20.4484 17.48 20.1924 20.616C22.5284 20.552 25.1844 20.52 27.2004 20.52H27.3284C27.2964 22.056 27.2644 23.72 27.2324 25H34.5604C34.5284 23.592 34.4644 22.152 34.4324 20.584L35.6804 20.616C35.6484 19.688 35.6484 18.76 35.6484 17.576C35.6484 16.712 35.6484 15.784 35.6804 14.92C35.2644 14.952 34.8164 14.952 34.3364 14.952V12.968Z" fill="#5E97EC" fill-opacity="0.27"/>
</svg>
