<svg width="52" height="52" viewBox="0 0 52 52" fill="none" xmlns="http://www.w3.org/2000/svg">
<path d="M35.093 22.5222C39.1118 24.7944 41.852 29.2004 41.9104 34.1557C41.9975 41.5542 36.0704 47.6224 28.672 47.7095C21.2735 47.7967 15.2052 41.8696 15.1181 34.4712C15.0575 29.3211 17.9109 24.8147 22.1485 22.5222H35.093ZM19.9964 18.3213C19.9964 17.4929 20.668 16.8214 21.4964 16.8214H28.4707H35.445C36.2734 16.8214 36.945 17.4929 36.945 18.3214V19.9323C36.945 20.6421 36.4474 21.2548 35.7526 21.4004L35.1714 21.5222H22.0689L21.2246 21.3666C20.513 21.2355 19.9964 20.6151 19.9964 19.8915V18.3213Z" stroke="#9D9D9D"/>
<path d="M23.4022 10.3096C22.7662 11.2411 22.4363 12.3854 22.3299 13.0977C20.7964 11.0066 18.1767 11.0066 17.0586 11.268C18.7315 9.45572 17.9299 6.76635 17.32 5.6482C19.655 6.51948 21.9233 5.05282 22.7655 4.21057C22.2776 6.47592 24.3629 8.23302 25.4665 8.8284C24.5696 8.99562 23.8942 9.5889 23.4022 10.3096ZM23.4022 10.3096C24.5985 10.6291 27.2701 12.2874 28.3853 16.365" stroke="#9D9D9D"/>
<path d="M12.3089 4.73334L15.402 5.43037M10 10.4403L15.402 8.82839M14.0515 14.666L15.8376 12.8363" stroke="#9D9D9D"/>
<path d="M28.6432 32.0076L28.9929 32.365L29.3503 32.0153L33.2786 28.1718C33.5632 27.8933 34.0201 27.8983 34.2986 28.183L35.1527 29.0559C35.4312 29.3406 35.4262 29.7974 35.1416 30.0759L31.2132 33.9194L30.8558 34.2691L31.2055 34.6265L35.049 38.5548C35.3275 38.8395 35.3225 39.2963 35.0379 39.5748L34.1649 40.4289C33.8802 40.7074 33.4234 40.7024 33.1449 40.4178L29.3014 36.4894L28.9517 36.1321L28.5943 36.4817L24.666 40.3252C24.3813 40.6037 23.9245 40.5987 23.646 40.3141L22.7919 39.4411C22.5134 39.1564 22.5184 38.6996 22.803 38.4211L26.7314 34.5776L27.0888 34.2279L26.7391 33.8706L22.8956 29.9422C22.6171 29.6576 22.6221 29.2007 22.9067 28.9222L23.7797 28.0681C24.0644 27.7896 24.5212 27.7946 24.7997 28.0792L28.6432 32.0076Z" stroke="#9D9D9D"/>
</svg>
