<svg width="121" height="120" viewBox="0 0 121 120" fill="none" xmlns="http://www.w3.org/2000/svg">
<path d="M60.4559 43.9853L60.6406 62.5625L42.4619 66.3942M60.6406 87.4699V91.6211M95.6275 34.1445H24.3702V86.8295H95.6275V34.1445ZM97.2064 29H22.7937C21.2508 29 20 30.1193 20 31.5C20 32.8807 21.2508 34 22.7937 34H97.2064C98.7492 34 100 32.8807 100 31.5C100 30.1193 98.7492 29 97.2064 29ZM77.5922 61.768C77.5922 71.6746 69.5613 79.7055 59.6547 79.7055C49.7481 79.7055 41.7172 71.6746 41.7172 61.768C41.7172 51.8614 49.7481 43.8305 59.6547 43.8305C69.5613 43.8305 77.5922 51.8614 77.5922 61.768ZM63.8938 94.0814C63.8938 95.8504 62.4598 97.2845 60.6907 97.2845C58.9217 97.2845 57.4876 95.8504 57.4876 94.0814C57.4876 92.3123 58.9217 90.8783 60.6907 90.8783C62.4598 90.8783 63.8938 92.3123 63.8938 94.0814Z" stroke="url(#paint0_linear_1947_24970)"/>
<defs>
<linearGradient id="paint0_linear_1947_24970" x1="20" y1="22.2935" x2="149.033" y2="54.8952" gradientUnits="userSpaceOnUse">
<stop stop-color="#3586FF"/>
<stop offset="1" stop-color="#83E0B3"/>
</linearGradient>
</defs>
</svg>
