<svg width="121" height="120" viewBox="0 0 121 120" fill="none" xmlns="http://www.w3.org/2000/svg">
<path d="M74.5 40.2186C74.5 33.3283 70.2886 25 60.8943 25C51.5 25 47.5 33.1097 47.5 40M48 81.25C48 74.3597 54.1023 67 61.3566 67C69.75 67 75 74.3597 75 81.25M45.7226 48.584L51.7227 44.584M76.2774 48.584L70.2774 44.584M33 40.2186H88.7877V94.0001H33V40.2186ZM79 57.5C79 58.3284 78.3284 59 77.5 59C76.6716 59 76 58.3284 76 57.5C76 56.6716 76.6716 52 77.5 52C78.3284 52 79 56.6716 79 57.5Z" stroke="#FF9797"/>
</svg>
