<svg width="41" height="41" viewBox="0 0 41 41" fill="none" xmlns="http://www.w3.org/2000/svg">
<path d="M22.0796 22.3679V21.0116C22.0796 20.637 21.7633 20.3334 21.373 20.3334H20.6664C20.2761 20.3334 19.9597 20.637 19.9597 21.0116V22.3679M22.0796 22.3679H19.9597M22.0796 22.3679H27.7326M19.9597 22.3679H19.2172C18.9401 22.3679 18.6751 22.4766 18.484 22.6687L15.3233 25.8457C12.8451 28.3367 11.4802 31.603 11.4802 35.0429V39.0307C11.4802 39.566 11.9336 40 12.4928 40H37.3196C37.8788 40 38.3322 39.566 38.332 39.0306V35.0429C38.332 31.603 36.9672 28.3367 34.489 25.8457L31.3283 22.6687C31.1372 22.4766 30.8721 22.3679 30.595 22.3679H29.8525M29.8525 22.3679V21.0116C29.8525 20.637 29.5361 20.3334 29.1459 20.3334H28.4393C28.049 20.3334 27.7326 20.637 27.7326 21.0116V22.3679M29.8525 22.3679H27.7326M32.0978 10.8436C32.0978 10.8436 32.0954 10.8449 32.0941 10.8456L28.3768 12.9009C27.6334 13.3114 26.7484 13.384 25.9482 13.1005C25.1579 12.8204 24.5434 12.2241 24.2623 11.4643C24.2537 11.4413 24.2462 11.4179 24.2395 11.3943L24.0018 10.559C22.6196 10.6636 19.5926 11.0646 16.7849 12.6019C13.9743 14.1389 12.0977 16.4558 11.3134 17.5513L11.9476 18.1724C11.9649 18.1893 11.9815 18.2068 11.9975 18.2249C12.5408 18.8399 12.7693 19.6494 12.6245 20.446C12.4781 21.2511 11.9693 21.948 11.2285 22.3585C11.2285 22.3585 11.226 22.3599 11.2248 22.3606L7.50746 24.4158C6.42152 25.0155 5.08064 24.8849 4.17048 24.0912C2.76734 22.8675 2.14803 21.1352 2.3794 19.0814C2.62037 16.9429 3.80895 14.4783 5.72636 12.1417C7.63288 9.81842 10.1943 7.70029 12.9411 6.18706C15.686 4.67112 18.8778 3.60873 21.9285 3.19524C24.9958 2.77958 27.813 3.0325 29.8611 3.90732C31.8297 4.74824 33.0804 6.13368 33.4779 7.914C33.7354 9.06671 33.1808 10.2434 32.0978 10.8436Z" stroke="#C0C0C0"/>
<path d="M25.332 35.5C22.8511 35.5 20.832 33.4809 20.832 31C20.832 28.5192 22.8512 26.5 25.332 26.5C27.8129 26.5 29.832 28.5192 29.832 31C29.832 33.4808 27.8129 35.5 25.332 35.5Z" stroke="#3586FF"/>
</svg>
