<svg width="40" height="40" viewBox="0 0 40 40" fill="none" xmlns="http://www.w3.org/2000/svg">
<g clip-path="url(#clip0_4485_40179)">
<path d="M19.9167 39C30.226 39 38.5833 30.4934 38.5833 20C38.5833 9.50659 30.226 1 19.9167 1M19.9167 39C9.60735 39 1.25 30.4934 1.25 20C1.25 9.50659 9.60735 1 19.9167 1M19.9167 39C19.0915 39 18.2789 38.9448 17.4818 38.8392C26.6407 37.6247 31.4723 29.6534 31.4723 20C31.4723 10.3466 26.6407 2.37527 17.4819 1.16083C18.2789 1.05522 19.0915 1 19.9167 1" stroke="#C0C0C0"/>
<path d="M32.3196 8.91969L32.2226 8.66923C32.2197 8.66204 32.2143 8.6561 32.2073 8.6529L31.9664 8.54157C29.9837 7.62493 27.187 7.39876 24.7126 7.29852H21.9256C21.8942 7.29852 21.8846 7.3418 21.9129 7.35563L27.6376 10.1491C27.6699 10.1649 27.652 10.2138 27.6173 10.2045C25.0427 9.52016 22.4418 9.17376 19.8735 9.17376C17.3136 9.17376 14.7211 9.51805 12.1544 10.1981C12.1195 10.2073 12.1018 10.1578 12.1346 10.1424L18.0601 7.35594C18.0888 7.34243 18.0794 7.29868 18.0477 7.29868H15.0346C12.5602 7.39891 9.76338 7.62509 7.78074 8.54173L7.53988 8.65305C7.5329 8.65626 7.52737 8.66212 7.52461 8.66938L7.42759 8.91985C5.39851 14.1531 4.82193 23.0374 5.43681 28.6031L5.46905 28.895L5.69716 29.0751C8.86697 31.577 13.1054 32.8633 15.7718 33.2046L16.1166 33.2488C16.2286 33.2631 16.3357 33.1972 16.3753 33.0895L18.1107 28.3702C18.1648 28.2231 18.0727 28.0625 17.9203 28.0381L17.3878 27.953C15.5309 27.656 12.8999 26.8688 10.6766 24.8165C10.6292 24.7727 10.6749 24.6939 10.7349 24.7166C10.9156 24.7849 11.1149 24.8641 11.32 24.9457C11.8228 25.1456 12.3427 25.3524 12.682 25.4344C15.0663 26.0114 17.4841 26.3041 19.8734 26.3041V26.2608H19.8784L19.8787 26.3041C22.2631 26.3041 24.6809 26.0115 27.065 25.4344C27.4044 25.3523 27.9243 25.1456 28.4271 24.9456C28.6321 24.8641 28.8313 24.7849 29.0119 24.7166C29.0719 24.6939 29.1177 24.7727 29.0703 24.8165C26.8544 26.8598 24.2201 27.6449 22.3591 27.9416L21.8267 28.0265C21.6743 28.0508 21.582 28.2113 21.6361 28.3584L23.3718 33.0893C23.4113 33.197 23.5185 33.2631 23.6305 33.2487L23.9756 33.2045C26.6418 32.8632 30.88 31.5769 34.0499 29.075L34.278 28.8949L34.3102 28.6031C34.9252 23.0374 34.3486 14.1531 32.3196 8.91969ZM14.2094 21.7683C12.0539 21.9639 10.2556 20.1337 10.4476 17.9397C10.5948 16.2579 11.9252 14.9035 13.5776 14.7535C15.7331 14.5579 17.5314 16.3881 17.3394 18.5821C17.1921 20.2639 15.8617 21.6183 14.2094 21.7683ZM26.1697 21.7683C24.0142 21.9639 22.2159 20.1337 22.4079 17.9397C22.5551 16.2579 23.8856 14.9035 25.5379 14.7535C27.6934 14.5579 29.4917 16.3881 29.2998 18.5821C29.1525 20.2639 27.822 21.6183 26.1697 21.7683Z" fill="#F1EFED" stroke="#3586FF"/>
</g>
<defs>
<clipPath id="clip0_4485_40179">
<rect width="39.2982" height="40" fill="white" transform="translate(0.25)"/>
</clipPath>
</defs>
</svg>
