<svg width="18" height="18" viewBox="0 0 18 18" fill="none" xmlns="http://www.w3.org/2000/svg">
<path d="M10.15 2.50773L10.1503 2.50749C11.8162 0.724674 14.4686 0.471219 16.2305 2.02849C17.2194 2.90406 17.5528 4.15176 17.4934 5.49687C17.4342 6.8387 16.9832 8.21597 16.477 9.24746C15.1612 11.4852 13.4556 13.4695 11.4408 15.1066L9.57496 16.6225L9.54833 16.6442L9.5249 16.6692C9.26858 16.9436 8.86679 16.9436 8.61047 16.6692L8.5871 16.6442L8.56054 16.6226L6.69887 15.1089C4.67978 13.4673 2.97029 11.478 1.65101 9.23497C0.241466 6.74103 -0.0938914 3.80126 1.90865 2.02838C3.67072 0.471058 6.32644 0.725016 7.9884 2.50713L7.98896 2.50773L8.7044 3.27237L9.0695 3.66258L9.4346 3.27237L10.15 2.50773Z" stroke="#3586FF"/>
</svg>
