<svg width="81" height="80" viewBox="0 0 81 80" fill="none" xmlns="http://www.w3.org/2000/svg">
<g clip-path="url(#clip0_2955_31589)">
<path d="M40.5 23H67V36.25C67 43.5678 61.0678 49.5 53.75 49.5C46.4322 49.5 40.5 43.5678 40.5 36.25V23Z" stroke="#3586FF"/>
<path d="M40.5 36.5H67M53.6795 49.9681V69.5M46.4555 69.5H53.8557H61.0445" stroke="#3586FF"/>
<path d="M24.6997 16.0881L31.1083 16.0881L24.6997 16.0881ZM20 42.2083C20 41.8686 20 41.5313 20 41.1925C20.6692 32.2336 23.4112 31.8709 24.6112 27.0388C25.0439 25.2961 25.5048 19.6062 25.3669 16.0881L24.0325 16.0881L24.0325 10.5L32.0975 10.5L32.0975 16.0881L30.609 16.0881C30.435 19.6022 30.8582 25.2902 31.3104 27.0388C32.5392 31.7914 35.3682 32.3053 35.9228 40.9948C35.931 41.1237 35.9351 41.2569 35.9356 41.386C35.9361 41.5564 35.937 41.8354 35.9381 42.2083L20 42.2083ZM20 42.2083L35.9381 42.2083L20 42.2083ZM20 42.2083C20 46.3162 20 50.7637 20 62.1861L20 42.2083ZM35.9381 42.2083C35.9476 45.2678 35.9759 54.648 35.9907 62.1861L35.9381 42.2083ZM20 62.1861C20 64.3569 20 66.7797 20 69.5L36 69.5C36 67.6182 35.9964 65.0336 35.9907 62.1861L20 62.1861ZM20 62.1861L35.9907 62.1861L20 62.1861Z" stroke="#3586FF"/>
</g>
<defs>
<clipPath id="clip0_2955_31589">
<rect width="80" height="80" fill="white" transform="translate(0.5)"/>
</clipPath>
</defs>
</svg>
