<svg width="80" height="80" viewBox="0 0 80 80" fill="none" xmlns="http://www.w3.org/2000/svg">
<path d="M41.843 27.4074L41.8432 27.4071C45.1323 23.9838 50.4228 23.461 53.9568 26.4986C55.9566 28.2203 56.6026 30.6543 56.4872 33.1973C56.3718 35.7386 55.4948 38.3305 54.5176 40.2629C52.0052 44.4221 48.7654 48.0958 44.9527 51.1085L41.3716 53.9382L41.3447 53.9595L41.321 53.9842C40.6603 54.6719 39.5954 54.6719 38.9347 53.9842L38.911 53.9595L38.8842 53.9383L35.3111 51.1129C31.4936 48.0941 28.2486 44.415 25.7305 40.2503C24.3971 37.9569 23.5269 35.3736 23.5006 32.9378C23.4745 30.515 24.2806 28.2422 26.3056 26.4987C29.8398 23.4608 35.137 23.9841 38.419 27.4068L38.4196 27.4074L39.771 28.812L40.1313 29.1866L40.4916 28.812L41.843 27.4074Z" stroke="#3586FF"/>
<path d="M58.0528 45.6592L57.4287 46.0579L58.0319 46.4877L63.3022 50.2432L63.3029 50.2436C63.452 50.3495 63.4807 50.5465 63.3987 50.6761L62.1146 52.617L62.1145 52.6172C62.0454 52.7217 61.8879 52.7707 61.7358 52.6666L56.7328 49.1035L56.1013 48.6537L55.9521 49.4145L54.9056 54.7518C54.8907 54.8278 54.8602 54.8701 54.8325 54.8953C54.8023 54.9228 54.7601 54.9436 54.7076 54.951C54.6002 54.966 54.4797 54.9218 54.4064 54.8071L44.196 38.8259C44.1181 38.7039 44.1331 38.5786 44.1961 38.487C44.2592 38.395 44.3459 38.365 44.4367 38.3911L44.4462 38.3939L44.4559 38.3962L61.7934 42.6413L61.7934 42.6414L61.8066 42.6443C61.922 42.6693 62.0067 42.7593 62.0318 42.8927C62.0574 43.0291 62.0073 43.1326 61.9267 43.1841L58.0528 45.6592Z" fill="white" stroke="#3586FF"/>
<line x1="40.5" y1="20" x2="40.5" y2="8" stroke="#3586FF"/>
<line x1="58.7132" y1="24.4732" x2="68.543" y2="17.5903" stroke="#3586FF"/>
<line x1="14.7132" y1="54.4732" x2="24.543" y2="47.5903" stroke="#3586FF"/>
<line x1="12.2868" y1="17.5904" x2="22.1166" y2="24.4733" stroke="#3586FF"/>
</svg>
