<svg width="38" height="38" viewBox="0 0 38 38" fill="none" xmlns="http://www.w3.org/2000/svg">
<rect width="38" height="38" rx="6" fill="#D9E8FF" fill-opacity="0.3"/>
<path fill-rule="evenodd" clip-rule="evenodd" d="M20.4886 10.048L19.4711 11.1019L19.0967 11.4877L18.7223 11.1019C18.7223 11.1019 17.9758 10.3328 17.7268 10.0762C15.3591 7.62833 11.5467 7.2623 9.01145 9.42267C7.56005 10.6615 6.98165 12.2737 7.00044 14.0026C7.01939 15.7458 7.64842 17.6046 8.62043 19.2625C10.4654 22.2871 12.8385 24.9559 15.6268 27.1417L18.2716 29.2151L18.2996 29.2371L18.3244 29.2627C18.751 29.7029 19.4373 29.7029 19.8639 29.2627L19.8887 29.237L19.9169 29.215L22.5676 27.1384C25.351 24.958 27.7195 22.2946 29.5598 19.2756C30.2714 17.879 30.9071 16.0111 30.9907 14.1866C31.0742 12.3611 30.6066 10.6388 29.182 9.4228C29.182 9.4228 27.5147 7.83478 24.6852 8.02453C22.1452 8.19488 20.4886 10.048 20.4886 10.048Z" stroke="#212131" stroke-miterlimit="10"/>
</svg>
