<svg width="28" height="36" viewBox="0 0 28 36" fill="none" xmlns="http://www.w3.org/2000/svg">
<path d="M25.719 4.86334C26.6436 4.86334 27.3931 4.14436 27.3931 3.25744V2.18684C27.3931 1.29991 26.6436 0.580933 25.719 0.580933H2.28153C1.35693 0.580933 0.607422 1.29991 0.607422 2.18684V3.25744C0.607422 4.14436 1.35693 4.86334 2.28153 4.86334M25.719 4.86334C25.719 10.95 22.1604 16.0869 17.2898 17.7106C19.417 18.4197 21.294 19.799 22.7336 21.6349M25.719 4.86334H2.28153M2.28153 4.86334C2.28153 10.95 5.84012 16.0869 10.7108 17.7106C8.58353 18.4197 6.70654 19.799 5.26699 21.6349M2.28153 30.5578C1.35693 30.5578 0.607422 31.2768 0.607422 32.1637V33.2343C0.607422 34.1212 1.35693 34.8402 2.28153 34.8402H25.719C26.6436 34.8402 27.3931 34.1212 27.3931 33.2343V32.1637C27.3931 31.2768 26.6436 30.5578 25.719 30.5578M2.28153 30.5578C2.28153 27.1294 3.41049 24.0025 5.26699 21.6349M2.28153 30.5578H25.719M25.719 30.5578C25.719 27.1294 24.5901 24.0025 22.7336 21.6349M5.26699 21.6349H22.7336" stroke="#3586FF"/>
</svg>
