<svg width="121" height="120" viewBox="0 0 121 120" fill="none" xmlns="http://www.w3.org/2000/svg">
<path d="M45.9219 21.0674H27.4219C25.2127 21.0674 23.4219 22.8582 23.4219 25.0674V107.067C23.4219 109.277 25.2127 111.067 27.4219 111.067H93.4219C95.631 111.067 97.4219 109.277 97.4219 107.067V25.0674C97.4219 22.8582 95.631 21.0674 93.4219 21.0674H74.9219M54.4219 17.5674H66.4219M45.4219 16.3401H49.1719V9.06738H71.6719V16.3401H75.4219V27.0674C75.4219 28.172 74.5264 29.0674 73.4219 29.0674H47.4219C46.3173 29.0674 45.4219 28.172 45.4219 27.0674V16.3401ZM68.4731 51.8445L60.1204 60.1972L51.7677 51.8445C50.7427 50.8195 49.0803 50.8195 48.0553 51.8445L46.1992 53.7006C45.1742 54.7256 45.1742 56.388 46.1992 57.4129L54.5519 65.7656L46.1992 74.1183C45.1742 75.1433 45.1742 76.8057 46.1992 77.8306L48.0553 79.6868C49.0803 80.7117 50.7427 80.7117 51.7677 79.6868L60.1204 71.3341L68.4731 79.6868C69.498 80.7117 71.1604 80.7117 72.1854 79.6868L74.0415 77.8306C75.0665 76.8057 75.0665 75.1433 74.0415 74.1183L65.6888 65.7656L74.0415 57.4129C75.0665 56.388 75.0665 54.7256 74.0415 53.7006L72.1854 51.8445C71.1604 50.8195 69.498 50.8195 68.4731 51.8445Z" stroke="#FF9797"/>
</svg>
