<svg width="41" height="40" viewBox="0 0 41 40" fill="none" xmlns="http://www.w3.org/2000/svg">
<path d="M17.9718 8.68421L33.3718 9C36.4327 9 38.9141 11.4695 38.9141 14.5158V22.5789H23.0487M17.9718 8.68421C15.1678 8.68421 12.8948 10.9464 12.8948 13.7368V22.5789M17.9718 8.68421C20.7757 8.68421 23.0487 10.9464 23.0487 13.7368V22.5789M23.0487 22.5789L12.8948 22.5789M12.8948 22.5789H5.91406M28.4122 22.5789V39H25.2392V22.5789M26.5084 10.5789C25.8074 10.5789 25.2392 11.2859 25.2392 12.1579C25.2392 13.0299 25.8074 13.7368 26.5084 13.7368C27.2094 13.7368 27.7776 13.0299 27.7776 12.1579C27.7776 11.2859 27.2094 10.5789 26.5084 10.5789ZM26.5084 10.5789V3H29.6815V4.7594H26.695" stroke="#C0C0C0"/>
<path d="M7.13251 10.8364L19.4542 13.7658L17.9192 20.2222L5.59755 17.2928L7.13251 10.8364Z" fill="#E6E4E3" stroke="#3586FF"/>
</svg>
