<svg width="161" height="160" viewBox="0 0 161 160" fill="none" xmlns="http://www.w3.org/2000/svg">
<path d="M76.5 96.75V103M86.5 96.2987V103M94.5 111V114C94.5 115.105 93.6046 116 92.5 116H92.2324M91.0267 109.93C91.7074 110.6 92.5663 111 93.5 111C95.7091 111 96 111 97.5 106C98.5 101 95.7091 101 93.5 101C92.1582 101 90.9706 101.826 90.245 103.093M91.0267 109.93C90.7534 109.661 90.5088 109.348 90.2997 109C89.7976 108.164 89.5 107.126 89.5 106C89.5 104.916 89.776 103.912 90.245 103.093M91.0267 109.93C90.8589 109.976 90.6823 110 90.5 110H72.5C71.9928 110 71.5297 109.811 71.1771 109.5M90.245 103.093C90.0068 103.032 89.7572 103 89.5 103H73.5C71.8431 103 70.5 104.343 70.5 106V108C70.5 108.597 70.7619 109.134 71.1771 109.5M71.1771 109.5C70.7619 109.866 70.5 110.403 70.5 111V114C70.5 114.597 70.7619 115.134 71.1771 115.5M71.1771 115.5C71.5297 115.811 71.9928 116 72.5 116H92.2324M71.1771 115.5C70.7619 115.866 70.5 116.403 70.5 117V120C70.5 120.597 70.7619 121.134 71.1771 121.5M92.2324 116C92.4026 116.294 92.5 116.636 92.5 117V120C92.5 121.105 91.6046 122 90.5 122H88.2324M71.1771 121.5C70.7619 121.866 70.5 122.403 70.5 123V125C70.5 126.657 71.8431 128 73.5 128H76.5M71.1771 121.5C71.5297 121.811 71.9928 122 72.5 122H88.2324M88.2324 122C88.4026 122.294 88.5 122.636 88.5 123V125C88.5 126.306 87.6652 127.417 86.5 127.829M86.5 127.829C86.1872 127.94 85.8506 128 85.5 128H76.5M86.5 127.829V134H76.5V128M115.75 61.875C115.75 81.1359 100.136 96.75 80.875 96.75C61.6141 96.75 46 81.1359 46 61.875C46 42.6141 61.6141 27 80.875 27C100.136 27 115.75 42.6141 115.75 61.875ZM89.0512 47.7771L80.6985 56.1298L72.3458 47.7771C71.3208 46.7521 69.6584 46.7521 68.6335 47.7771L66.7773 49.6332C65.7524 50.6582 65.7524 52.3206 66.7773 53.3455L75.13 61.6982L66.7773 70.0509C65.7524 71.0759 65.7524 72.7383 66.7773 73.7633L68.6335 75.6194C69.6584 76.6444 71.3208 76.6444 72.3458 75.6194L80.6985 67.2667L89.0512 75.6194C90.0761 76.6444 91.7385 76.6444 92.7635 75.6194L94.6196 73.7633C95.6446 72.7383 95.6446 71.0759 94.6196 70.0509L86.2669 61.6982L94.6196 53.3455C95.6446 52.3206 95.6446 50.6582 94.6196 49.6332L92.7635 47.7771C91.7385 46.7521 90.0761 46.7521 89.0512 47.7771Z" stroke="#FF9797"/>
</svg>
