<svg width="190" height="197" viewBox="0 0 190 197" fill="none" xmlns="http://www.w3.org/2000/svg">
<path d="M22.4733 77.5067L9 104.5L22.4733 109.52M22.4733 77.5067L94.0931 50.0667M22.4733 77.5067L94.0931 105.937M22.4733 166.687V109.52M22.4733 109.52L77.876 130.753C78.3704 130.947 78.9342 130.76 79.2092 130.31L94.0931 105.937M22.4733 109.52L22.5465 167.155C22.5465 167.594 22.816 167.99 23.2277 168.153L94.0931 196.413M94.0931 50.0667L175.341 77.405M94.0931 50.0667V105.937M175.341 77.405L189.256 101.458C189.589 102.035 189.32 102.769 188.69 102.999L172.214 109.057M175.341 77.405L94.0931 105.937M94.0931 105.937L111.799 130.42C112.084 130.816 112.603 130.973 113.064 130.803L172.214 109.057M94.0931 105.937V196.413M172.214 109.057L173.305 167.114C173.314 167.572 173.026 167.987 172.589 168.145L94.0931 196.413M1 13L35.5 48.5M188.5 13L154 48.5M95.5 38.5V0.5M126.903 136C129.403 131.78 138.149 130.748 143.149 134.748C146.428 130.204 153.096 127.653 156.747 131.689C160.93 136.322 160.125 143.856 157.544 149.782C155.13 155.112 151.836 159.998 147.801 164.236L144.906 167.276C144.09 168.405 143.149 168.5 141.915 167.299L132.769 158.002L129.403 154C126.403 149.782 122.903 142.752 126.903 136Z" stroke="url(#paint0_linear_3720_34207)"/>
<defs>
<linearGradient id="paint0_linear_3720_34207" x1="0.999997" y1="-18.7415" x2="310.94" y2="45.5371" gradientUnits="userSpaceOnUse">
<stop stop-color="#3586FF"/>
<stop offset="1" stop-color="#83E0B3"/>
</linearGradient>
</defs>
</svg>
