<svg width="52" height="52" viewBox="0 0 52 52" fill="none" xmlns="http://www.w3.org/2000/svg">
<mask id="path-1-inside-1_2006_25535" fill="white">
<path d="M25 19.2678V29.1533C25 29.7372 25.2239 30.2106 25.5 30.2106C25.7761 30.2106 26 29.7372 26 29.1533V19.2678C26 18.6839 25.7761 18.2106 25.5 18.2106C25.2239 18.2106 25 18.6839 25 19.2678Z"/>
</mask>
<path d="M25 19.2678V29.1533C25 29.7372 25.2239 30.2106 25.5 30.2106C25.7761 30.2106 26 29.7372 26 29.1533V19.2678C26 18.6839 25.7761 18.2106 25.5 18.2106C25.2239 18.2106 25 18.6839 25 19.2678Z" fill="#9D9D9D"/>
<path d="M26 29.1533V19.2678H24V29.1533H26ZM26 19.2678C26 19.09 26.0362 18.978 26.0505 18.9478C26.0578 18.9322 26.0405 18.9778 25.972 19.039C25.8974 19.1057 25.7355 19.2106 25.5 19.2106V17.2106C24.7497 17.2106 24.3728 17.8171 24.2424 18.0927C24.0758 18.4452 24 18.8618 24 19.2678H26ZM25.5 19.2106C25.2645 19.2106 25.1026 19.1057 25.028 19.039C24.9595 18.9778 24.9422 18.9322 24.9495 18.9478C24.9638 18.978 25 19.09 25 19.2678H27C27 18.8618 26.9242 18.4452 26.7576 18.0927C26.6272 17.8171 26.2503 17.2106 25.5 17.2106V19.2106ZM25 19.2678V29.1533H27V19.2678H25ZM25 29.1533C25 29.3311 24.9638 29.4432 24.9495 29.4734C24.9422 29.4889 24.9595 29.4434 25.028 29.3821C25.1026 29.3154 25.2645 29.2106 25.5 29.2106V31.2106C26.2503 31.2106 26.6272 30.6041 26.7576 30.3284C26.9242 29.976 27 29.5594 27 29.1533H25ZM25.5 29.2106C25.7355 29.2106 25.8974 29.3154 25.972 29.3821C26.0405 29.4434 26.0578 29.4889 26.0505 29.4734C26.0362 29.4432 26 29.3311 26 29.1533H24C24 29.5594 24.0758 29.976 24.2424 30.3284C24.3728 30.6041 24.7497 31.2106 25.5 31.2106V29.2106Z" fill="#9D9D9D" mask="url(#path-1-inside-1_2006_25535)"/>
<path d="M25.791 14.0972V16.1248M25.791 6.08447V4.36157V6.08447Z" stroke="#9D9D9D"/>
<path d="M27.9378 8.40143C27.9378 6.14385 24.1829 5.13387 23.5273 8.34202" stroke="#9D9D9D"/>
<path d="M23.5868 12.7384C24.1233 14.5802 28.0568 14.8772 28.0568 12.085C28.0568 11.3126 27.7833 10.1838 25.7325 10.1838C23.408 10.1838 23.4676 8.46092 23.5868 8.04504" stroke="#9D9D9D"/>
<path d="M25 29.7106C23.1421 24.8663 24.6319 21.9533 15.9685 20.1377C15.5356 22.8992 18.0838 30.8706 25 29.7106Z" stroke="#9D9D9D"/>
<path d="M26 30.0697C28.5414 23.4981 25.4213 20.0771 37.2721 17.6141C37.8643 21.3602 35.4607 31.6434 26 30.0697Z" stroke="#9D9D9D"/>
<path d="M37.3571 30.2322H14.6445V36.5412H37.3571V30.2322Z" stroke="#9D9D9D"/>
<path d="M20.0632 50.4212L17.168 36.5413H34.8333L32.7084 50.4212H20.0632Z" stroke="#9D9D9D"/>
<circle cx="25.6142" cy="10.1861" r="8.47556" stroke="#9D9D9D"/>
</svg>
