<svg width="25" height="24" viewBox="0 0 25 24" fill="none" xmlns="http://www.w3.org/2000/svg">
<path d="M10.9942 3.92942C12.5517 3.63878 14.1601 3.80505 15.6253 4.40816C17.0904 5.01128 18.3498 6.02547 19.2513 7.32838C20.1529 8.63128 20.6582 10.1672 20.7063 11.7509C20.7543 13.3346 20.3431 14.8984 19.5222 16.2536L18.3381 15.5364C19.0206 14.4097 19.3625 13.1096 19.3226 11.7929C19.2826 10.4763 18.8625 9.19931 18.113 8.1161C17.3634 7.03288 16.3164 6.18971 15.0983 5.68829C13.8802 5.18687 12.5431 5.04864 11.2481 5.29027L10.9942 3.92942Z" fill="#9D9D9D"/>
<path d="M18.1805 13.6676L19.0986 16.4684L21.5 14.7893" stroke="#9D9D9D" stroke-width="1.6"/>
<path d="M15.375 19.6899C13.6517 20.3342 11.762 20.381 10.0089 19.8228C8.25588 19.2646 6.74113 18.1337 5.70768 16.6116C4.67423 15.0895 4.18198 13.2644 4.3099 11.4291C4.43782 9.59379 5.17849 7.85462 6.41309 6.49061L7.45557 7.43419C6.43242 8.56459 5.81861 10.0059 5.7126 11.5269C5.60659 13.0479 6.01453 14.5604 6.87098 15.8218C7.72743 17.0832 8.98275 18.0204 10.4356 18.483C11.8884 18.9456 13.4544 18.9068 14.8826 18.3729L15.375 19.6899Z" fill="#9D9D9D"/>
<path d="M7.52542 9.36957L7.66022 6.26843L4.5 7.28937" stroke="#9D9D9D" stroke-width="1.6"/>
</svg>
