<svg width="121" height="120" viewBox="0 0 121 120" fill="none" xmlns="http://www.w3.org/2000/svg">
<path d="M102.5 59.5C102.5 82.696 83.696 101.5 60.5 101.5C37.304 101.5 18.5 82.696 18.5 59.5C18.5 36.304 37.304 17.5 60.5 17.5C83.696 17.5 102.5 36.304 102.5 59.5Z" stroke="#3586FF"/>
<g clip-path="url(#clip0_1947_25425)">
<path d="M59.8376 53.1999L60.1912 53.5534L60.5447 53.1999L70.7236 43.021C71.7774 41.9672 73.4867 41.9672 74.5405 43.021L76.8025 45.2829C77.8563 46.3367 77.8563 48.046 76.8025 49.0998L66.6236 59.2787L66.27 59.6323L66.6236 59.9858L76.8025 70.1647C77.8563 71.2185 77.8563 72.9278 76.8025 73.9816L74.5405 76.2436C73.4867 77.2973 71.7774 77.2973 70.7236 76.2436L60.5447 66.0647L60.1912 65.7111L59.8376 66.0647L49.6587 76.2436C48.6049 77.2973 46.8956 77.2973 45.8419 76.2436L43.5799 73.9816C42.5261 72.9278 42.5261 71.2185 43.5799 70.1647L53.7588 59.9858L54.1123 59.6323L53.7588 59.2787L43.5799 49.0998C42.5261 48.046 42.5261 46.3367 43.5799 45.2829L45.8419 43.021C46.8956 41.9672 48.6049 41.9672 49.6587 43.021L59.8376 53.1999Z" stroke="#3586FF"/>
</g>
<defs>
<clipPath id="clip0_1947_25425">
<rect width="51.7024" height="51.7024" fill="white" transform="translate(24 60) rotate(-45)"/>
</clipPath>
</defs>
</svg>
