<svg width="199" height="141" viewBox="0 0 199 141" fill="none" xmlns="http://www.w3.org/2000/svg">
<path d="M143.643 66.0982C153.404 69.4682 179.449 77.6408 198.513 113.329M139.34 75.5515C149.023 79.1531 185.188 99.5959 195.774 140.091M135.504 85.9256C146.533 90.8768 167.085 104.818 178.186 139.447M54.8723 10.6252C86.8554 27.764 118.35 64.867 116.731 68.0164C115.577 70.2631 90.5646 68.8709 64.71 61.6667M54.8723 10.6252C22.8892 -6.51365 2.52847 2.80177 0.910187 5.95125C-0.708164 9.10086 2.6443 32.8866 34.6274 50.0255M54.8723 10.6252L76.0693 6.77711L100.232 18.1825C102.115 19.0648 101.98 21.8409 100.021 22.5269L81.4872 29.015M64.71 61.6667L71.0174 84.5769C71.2154 85.2959 70.4526 85.8934 69.8239 85.5117L43.7485 69.6793L34.6274 50.0255M64.71 61.6667C54.3208 58.7717 43.7953 54.9383 34.6274 50.0255M34.3247 15.731C38.0559 17.7304 39.492 22.4363 37.5375 26.2402C35.5829 30.0442 30.975 31.5111 27.2438 29.5117C23.5126 27.5122 22.0764 22.8064 24.031 19.0025C25.9855 15.1986 30.5935 13.7315 34.3247 15.731Z" stroke="#3586FF"/>
</svg>
