<svg width="317" height="324" viewBox="0 0 317 324" fill="none" xmlns="http://www.w3.org/2000/svg">
<path d="M206.643 157.099C216.404 160.469 242.449 168.641 261.513 204.33" stroke="#3586FF"/>
<path d="M202.34 166.552C212.023 170.153 248.188 190.596 258.774 231.091" stroke="#3586FF"/>
<path d="M198.504 176.926C209.533 181.877 230.084 195.818 241.186 230.448" stroke="#3586FF"/>
<path d="M144.883 156.651L157.669 131.767" stroke="#3586FF"/>
<path d="M117.872 101.626C149.855 118.764 181.35 155.867 179.731 159.017C178.577 161.264 153.565 159.871 127.71 152.667M117.872 101.626C85.8892 84.4867 65.5284 93.8022 63.9101 96.9516C62.2918 100.101 65.6443 123.887 97.6274 141.026M117.872 101.626L139.069 97.7775L163.232 109.183C165.115 110.065 164.98 112.841 163.021 113.527L144.487 120.015M127.71 152.667L134.017 175.577C134.215 176.296 133.453 176.894 132.824 176.512L106.748 160.68L97.6274 141.026M127.71 152.667C117.321 149.772 106.795 145.939 97.6274 141.026" stroke="#3586FF"/>
<path d="M97.3246 106.731C101.056 108.731 102.492 113.437 100.537 117.24C98.5828 121.044 93.9749 122.511 90.2437 120.512C86.5125 118.512 85.0763 113.807 87.0309 110.003C88.9855 106.199 93.5934 104.732 97.3246 106.731Z" stroke="#3586FF"/>
</svg>
