<svg width="38" height="38" viewBox="0 0 38 38" fill="none" xmlns="http://www.w3.org/2000/svg">
<rect width="38" height="38" rx="4" fill="#C0C0C0" fill-opacity="0.5"/>
<path d="M23 11C22.8519 8.09677 21.5185 6 19.0316 6C16.8822 6 15 8.25806 15 10.8387" stroke="white"/>
<path d="M26.0261 11.15H12.113L11.1248 27.9257C11.0571 29.0745 11.9705 30.0433 13.1213 30.0433H24.8942C26.0393 30.0433 26.9505 29.0838 26.8916 27.9403L26.0261 11.15Z" stroke="white"/>
<path d="M23.8817 13.9408C23.8817 14.4605 23.4605 14.8817 22.9409 14.8817C22.4213 14.8817 22.0001 14.4605 22.0001 13.9408C22.0001 13.4212 22.4213 13 22.9409 13C23.4605 13 23.8817 13.4212 23.8817 13.9408Z" fill="white"/>
<path d="M15.8817 13.9408C15.8817 14.4605 15.4605 14.8817 14.9409 14.8817C14.4213 14.8817 14.0001 14.4605 14.0001 13.9408C14.0001 13.4212 14.4213 13 14.9409 13C15.4605 13 15.8817 13.4212 15.8817 13.9408Z" fill="white"/>
</svg>
