<svg width="24" height="24" viewBox="0 0 24 24" fill="none" xmlns="http://www.w3.org/2000/svg">
<path d="M23 8.72129V20.9375C23 22.0762 21.9442 23 20.6429 23H3.35714C2.0558 23 1 22.0762 1 20.9375V8.72129M23 8.72129H1M23 8.72129V5.8125C23 4.67383 21.9442 3.75 20.6429 3.75H18.2857V1.6875C18.2857 1.30938 17.9321 1 17.5 1H15.9286C15.4964 1 15.1429 1.30938 15.1429 1.6875V3.75H8.85714V1.6875C8.85714 1.30938 8.50357 1 8.07143 1H6.5C6.06786 1 5.71429 1.30938 5.71429 1.6875V3.75H3.35714C2.0558 3.75 1 4.67383 1 5.8125V8.72129M4.14286 12.6875C4.14286 12.3094 4.49643 12 4.92857 12H9.64286C10.075 12 10.4286 12.3094 10.4286 12.6875V16.8125C10.4286 17.1906 10.075 17.5 9.64286 17.5H4.92857C4.49643 17.5 4.14286 17.1906 4.14286 16.8125V12.6875Z" stroke="white" stroke-width="1.6"/>
</svg>
