<svg width="40" height="28" viewBox="0 0 40 28" fill="none" xmlns="http://www.w3.org/2000/svg">
<rect width="28" height="28" rx="4.42105" fill="#D9E8FF" fill-opacity="0.3"/>
<circle cx="14.3685" cy="9.21059" r="3.68421" stroke="#212131" stroke-width="0.736842"/>
<path d="M21.7369 18.4211C21.7369 19.4439 20.9717 20.451 19.5549 21.2238C18.152 21.989 16.1887 22.4737 14 22.4737C11.8113 22.4737 9.84807 21.989 8.44517 21.2238C7.02834 20.451 6.2632 19.4439 6.2632 18.4211C6.2632 17.3982 7.02834 16.3911 8.44517 15.6183C9.84807 14.8531 11.8113 14.3684 14 14.3684C16.1887 14.3684 18.152 14.8531 19.5549 15.6183C20.9717 16.3911 21.7369 17.3982 21.7369 18.4211Z" stroke="#212131" stroke-width="0.736842"/>
<path opacity="0.9" d="M31.7134 15.3261C31.4047 14.9402 31.6795 14.3684 32.1737 14.3684H36.3524C36.8466 14.3684 37.1214 14.9402 36.8127 15.3261L34.7234 17.9378C34.4874 18.2327 34.0387 18.2327 33.8028 17.9378L31.7134 15.3261Z" fill="#212131"/>
</svg>
