<svg width="80" height="80" viewBox="0 0 80 80" fill="none" xmlns="http://www.w3.org/2000/svg">
<path d="M65.3125 47.3438V57.2656C65.3125 58.9915 63.9134 60.3906 62.1875 60.3906H17.8125C16.0866 60.3906 14.6875 58.9915 14.6875 57.2656V22.7344C14.6875 21.0085 16.0866 19.6094 17.8125 19.6094H62.1875C63.9134 19.6094 65.3125 21.0085 65.3125 22.7344V32.6953" stroke="#3586FF"/>
<path d="M65.5469 32.6953H53.75C52.0457 32.6953 50.6641 34.0769 50.6641 35.7812V44.2188C50.6641 45.9231 52.0457 47.3047 53.75 47.3047H65.5469C67.2512 47.3047 68.6328 45.9231 68.6328 44.2188V35.7812C68.6328 34.0769 67.2512 32.6953 65.5469 32.6953Z" stroke="#3586FF"/>
<path d="M57.0312 43.0859C58.7356 43.0859 60.1172 41.7043 60.1172 40C60.1172 38.2957 58.7356 36.9141 57.0312 36.9141C55.3269 36.9141 53.9453 38.2957 53.9453 40C53.9453 41.7043 55.3269 43.0859 57.0312 43.0859Z" stroke="#3586FF"/>
<path d="M34.2969 19.6094L53.9062 11.4453L58.8281 19.6094" stroke="#3586FF"/>
</svg>
