<svg width="91" height="82" viewBox="0 0 91 82" fill="none" xmlns="http://www.w3.org/2000/svg">
<path d="M83.5 59.3851V75.4425C83.5 78.2356 81.2337 80.5 78.4383 80.5H6.56173C3.76626 80.5 1.5 78.2356 1.5 75.4425V19.5575C1.5 16.7644 3.76626 14.5 6.56173 14.5H78.4383C81.2337 14.5 83.5 16.7644 83.5 19.5575V35.6782M34.5 14.5L64.8758 1.5L72.5 14.5M65.4804 35.5H84.5196C87.2702 35.5 89.5 37.7697 89.5 40.5695V54.4305C89.5 57.2303 87.2702 59.5 84.5196 59.5H65.4804C62.7298 59.5 60.5 57.2303 60.5 54.4305V40.5695C60.5 37.7697 62.7298 35.5 65.4804 35.5ZM75.5 48C75.5 51.0376 73.0376 53.5 70 53.5C66.9624 53.5 64.5 51.0376 64.5 48C64.5 44.9624 66.9624 42.5 70 42.5C73.0376 42.5 75.5 44.9624 75.5 48Z" stroke="url(#paint0_linear_6333_53979)" stroke-width="2"/>
<defs>
<linearGradient id="paint0_linear_6333_53979" x1="1.5" y1="-6.25892" x2="144.258" y2="28.0359" gradientUnits="userSpaceOnUse">
<stop stop-color="#3586FF"/>
<stop offset="1" stop-color="#83E0B3"/>
</linearGradient>
</defs>
</svg>
