<svg width="87" height="20" viewBox="0 0 87 20" fill="none" xmlns="http://www.w3.org/2000/svg">
<g clip-path="url(#clip0_1419_22337)">
<path d="M82.7941 0.586471C81.7259 0.738956 80.8214 1.45055 80.339 2.39935L77.7288 7.54148C76.8932 9.18493 75.5321 10.5234 73.8609 11.3451C71.423 12.5396 68.5631 12.5396 66.1252 11.3451L63.9802 10.2862C63.5925 10.0998 63.1791 10.498 63.3772 10.8792L67.0125 18.0206C67.4346 19.0371 68.3822 19.7826 69.5193 19.9521C69.5365 19.9521 69.5537 19.9605 69.5796 19.9605C69.7174 19.9775 69.8638 19.9944 70.0017 19.9944C70.1481 19.9944 70.2859 19.9859 70.4238 19.9605C70.441 19.9605 70.4582 19.9521 70.4841 19.9521C71.6212 19.7826 72.5601 19.0371 72.9909 18.0206L75.5407 13.0055C76.3763 11.3621 77.7374 10.0236 79.4086 9.20187L84.7237 6.58421C85.8177 6.05051 86.5069 4.94923 86.5069 3.7463V3.71241C86.4983 1.81482 84.7926 0.306915 82.7941 0.586471Z" fill="#3586FF"/>
<path d="M39.5583 11.3452C37.8785 10.5235 36.5175 9.185 35.6819 7.53308L33.132 2.51802C32.7099 1.50146 31.7623 0.755974 30.6252 0.586546C30.608 0.586546 30.5907 0.578076 30.5649 0.578076C30.4271 0.561133 30.2806 0.544189 30.1428 0.544189C29.9964 0.544189 29.8585 0.552662 29.7207 0.578076C29.7035 0.578076 29.6862 0.586546 29.6604 0.586546C28.5233 0.755974 27.5843 1.50146 27.1536 2.51802L24.6037 7.53308C23.7681 9.17653 22.4071 10.515 20.7359 11.3367C18.298 12.5312 15.438 12.5312 13.0001 11.3367C11.3289 10.515 9.96786 9.17653 9.13226 7.53308L6.52209 2.39095C6.03969 1.44216 5.13517 0.730561 4.06699 0.578076C2.07706 0.29852 0.362793 1.80643 0.362793 3.71249V3.74637C0.362793 4.94931 1.05195 6.04212 2.14598 6.58429L7.46107 9.20194C9.13226 10.0237 10.4933 11.3621 11.3289 13.0056L13.853 17.9698C14.2664 19.0203 15.2313 19.7996 16.4028 19.9606C16.4114 19.9606 16.42 19.9606 16.4287 19.9606C16.5665 19.9775 16.7129 19.9945 16.8594 19.9945C17.0058 19.9945 17.1523 19.986 17.2901 19.9606C17.2987 19.9606 17.3073 19.9606 17.3159 19.9606C18.4875 19.7996 19.4523 19.0203 19.8658 17.9698L22.3898 13.0056C23.2254 11.3621 24.5865 10.0237 26.2577 9.20194C28.6956 8.00748 31.5556 8.00748 33.9934 9.20194C35.6646 10.0237 37.0257 11.3621 37.8613 13.0056L40.4112 18.0207C40.8333 19.0372 41.7809 19.7827 42.918 19.9521C42.9352 19.9521 42.9524 19.9606 42.9783 19.9606C43.1161 19.9775 43.2625 19.9945 43.4004 19.9945C43.5468 19.9945 43.6846 19.986 43.8225 19.9606C43.8397 19.9606 43.8569 19.9521 43.8828 19.9521C45.0199 19.7827 45.9589 19.0372 46.3896 18.0207L50.0249 10.8793C50.2144 10.4981 49.8095 10.0914 49.4218 10.2863L47.2941 11.3452C44.8562 12.5481 41.9876 12.5481 39.5583 11.3452Z" fill="#3586FF"/>
<path d="M59.5869 2.30631C59.1131 1.37446 58.2172 0.747576 57.1921 0.595091C57.1748 0.595091 57.1576 0.586619 57.1318 0.586619C56.9939 0.569677 56.8475 0.552734 56.7097 0.552734C56.5632 0.552734 56.4254 0.561205 56.2875 0.586619C56.2703 0.586619 56.2531 0.595091 56.2272 0.595091C55.2021 0.747576 54.3062 1.38293 53.8324 2.30631L53.7205 2.5181C53.5654 2.89084 53.4792 3.29746 53.4792 3.72103V3.75492C53.4792 4.95786 54.1684 6.05066 55.2624 6.59283C56.1756 7.04182 57.2437 7.04182 58.1569 6.59283C59.2509 6.05913 59.9401 4.95786 59.9401 3.75492V3.72103C59.9401 3.29746 59.8539 2.89084 59.6988 2.5181L59.5869 2.30631Z" fill="#3586FF"/>
</g>
<defs>
<clipPath id="clip0_1419_22337">
<rect width="87" height="20" fill="white"/>
</clipPath>
</defs>
</svg>
