<svg width="100" height="24" viewBox="0 0 100 24" fill="none" xmlns="http://www.w3.org/2000/svg">
<path d="M95.1657 0.997155C93.9379 1.17538 92.8983 2.00712 92.3438 3.1161L89.3436 9.12638C88.3831 11.0473 86.8187 12.6118 84.8978 13.5722C82.0956 14.9683 78.8083 14.9683 76.0061 13.5722L73.5406 12.3345C73.095 12.1167 72.6198 12.5821 72.8475 13.0276L77.026 21.3747C77.5112 22.5629 78.6003 23.4342 79.9073 23.6323C79.9272 23.6323 79.947 23.6422 79.9767 23.6422C80.1351 23.662 80.3034 23.6818 80.4618 23.6818C80.6302 23.6818 80.7886 23.6719 80.947 23.6422C80.9668 23.6422 80.9866 23.6323 81.0163 23.6323C82.3233 23.4342 83.4026 22.5629 83.8977 21.3747L86.8286 15.5129C87.789 13.592 89.3535 12.0276 91.2744 11.0671L97.3837 8.0075C98.6412 7.3837 99.4333 6.09649 99.4333 4.69046V4.65085C99.4234 2.43289 97.4629 0.670402 95.1657 0.997155Z" fill="url(#paint0_linear_5196_22311)"/>
<path d="M45.4694 13.5723C43.5385 12.6119 41.9741 11.0474 41.0136 9.11659L38.0827 3.25483C37.5976 2.06664 36.5084 1.19529 35.2014 0.997262C35.1816 0.997262 35.1618 0.987361 35.1321 0.987361C34.9736 0.967558 34.8053 0.947754 34.6469 0.947754C34.4786 0.947754 34.3201 0.957656 34.1617 0.987361C34.1419 0.987361 34.1221 0.997262 34.0924 0.997262C32.7854 1.19529 31.7061 2.06664 31.211 3.25483L28.2801 9.11659C27.3197 11.0375 25.7552 12.602 23.8343 13.5624C21.0322 14.9585 17.7448 14.9585 14.9427 13.5624C13.0218 12.602 11.4573 11.0375 10.4968 9.11659L7.49665 3.10631C6.94216 1.99733 5.90249 1.16559 4.67469 0.987361C2.38741 0.660608 0.416992 2.4231 0.416992 4.65096V4.69057C0.416992 6.0966 1.20912 7.3739 2.46663 8.00761L8.57593 11.0672C10.4968 12.0277 12.0613 13.5921 13.0218 15.513L15.9229 21.3154C16.3982 22.5432 17.5072 23.4541 18.8538 23.6423C18.8637 23.6423 18.8736 23.6423 18.8835 23.6423C19.0419 23.6621 19.2103 23.6819 19.3786 23.6819C19.5469 23.6819 19.7152 23.672 19.8737 23.6423C19.8836 23.6423 19.8935 23.6423 19.9034 23.6423C21.25 23.4541 22.359 22.5432 22.8343 21.3154L25.7354 15.513C26.6959 13.5921 28.2603 12.0277 30.1813 11.0672C32.9834 9.67108 36.2707 9.67108 39.0729 11.0672C40.9938 12.0277 42.5583 13.5921 43.5187 15.513L46.4496 21.3748C46.9348 22.563 48.024 23.4343 49.331 23.6324C49.3508 23.6324 49.3706 23.6423 49.4003 23.6423C49.5587 23.6621 49.727 23.6819 49.8855 23.6819C50.0538 23.6819 50.2122 23.672 50.3707 23.6423C50.3905 23.6423 50.4103 23.6324 50.44 23.6324C51.747 23.4343 52.8263 22.563 53.3213 21.3748L57.4998 13.0277C57.7177 12.5822 57.2523 12.1069 56.8067 12.3346L54.361 13.5723C51.5588 14.9783 48.2616 14.9783 45.4694 13.5723Z" fill="url(#paint1_linear_5196_22311)"/>
<path d="M68.491 3.00715C67.9464 1.91798 66.9166 1.18526 65.7383 1.00703C65.7185 1.00703 65.6987 0.997125 65.669 0.997125C65.5106 0.977322 65.3422 0.95752 65.1838 0.95752C65.0155 0.95752 64.8571 0.967421 64.6986 0.997125C64.6788 0.997125 64.659 1.00703 64.6293 1.00703C63.451 1.18526 62.4213 1.92788 61.8767 3.00715L61.7479 3.25469C61.5697 3.69037 61.4707 4.16564 61.4707 4.66072V4.70033C61.4707 6.10636 62.2628 7.38367 63.5203 8.01737C64.5699 8.54216 65.7977 8.54216 66.8473 8.01737C68.1048 7.39357 68.8969 6.10636 68.8969 4.70033V4.66072C68.8969 4.16564 68.7979 3.69037 68.6197 3.25469L68.491 3.00715Z" fill="url(#paint2_linear_5196_22311)"/>
<defs>
<linearGradient id="paint0_linear_5196_22311" x1="72.7886" y1="-1.27379" x2="115.76" y2="9.59252" gradientUnits="userSpaceOnUse">
<stop stop-color="#3586FF"/>
<stop offset="1" stop-color="#83E0B3"/>
</linearGradient>
<linearGradient id="paint1_linear_5196_22311" x1="0.416991" y1="-1.28506" x2="76.1958" y2="39.789" gradientUnits="userSpaceOnUse">
<stop stop-color="#3586FF"/>
<stop offset="1" stop-color="#83E0B3"/>
</linearGradient>
<linearGradient id="paint2_linear_5196_22311" x1="61.4707" y1="0.225486" x2="73.6508" y2="2.84266" gradientUnits="userSpaceOnUse">
<stop stop-color="#3586FF"/>
<stop offset="1" stop-color="#83E0B3"/>
</linearGradient>
</defs>
</svg>
