<svg width="105" height="25" viewBox="0 0 105 25" fill="none" xmlns="http://www.w3.org/2000/svg">
<path d="M99.9238 0.73315C98.6346 0.923756 97.543 1.81325 96.9608 2.99925L93.8106 9.42691C92.8021 11.4812 91.1594 13.1543 89.1425 14.1815C86.2002 15.6746 82.7485 15.6746 79.8062 14.1815L77.2174 12.8578C76.7496 12.6249 76.2505 13.1226 76.4897 13.5991L80.8771 22.5258C81.3865 23.7965 82.5301 24.7283 83.9025 24.9401C83.9233 24.9401 83.9441 24.9507 83.9753 24.9507C84.1416 24.9719 84.3184 24.9931 84.4847 24.9931C84.6615 24.9931 84.8278 24.9825 84.9942 24.9507C85.015 24.9507 85.0358 24.9401 85.0669 24.9401C86.4393 24.7283 87.5725 23.7965 88.0924 22.5258L91.1698 16.257C92.1783 14.2027 93.821 12.5296 95.8379 11.5024L102.253 8.23033C103.573 7.5632 104.405 6.1866 104.405 4.68293V4.64058C104.394 2.26859 102.336 0.383705 99.9238 0.73315Z" fill="#3586FF"/>
<path d="M47.7428 14.1814C45.7154 13.1543 44.0728 11.4812 43.0643 9.41629L39.9868 3.14747C39.4774 1.87676 38.3338 0.944907 36.9614 0.733122C36.9406 0.733122 36.9198 0.722534 36.8886 0.722534C36.7223 0.701355 36.5455 0.680176 36.3792 0.680176C36.2024 0.680176 36.0361 0.690766 35.8698 0.722534C35.849 0.722534 35.8282 0.733122 35.797 0.733122C34.4246 0.944907 33.2914 1.87676 32.7715 3.14747L29.6941 9.41629C28.6856 11.4706 27.043 13.1437 25.026 14.1709C22.0837 15.6639 18.632 15.6639 15.6898 14.1709C13.6728 13.1437 12.0301 11.4706 11.0216 9.41629L7.87144 2.98863C7.28923 1.80263 6.19758 0.91314 4.90839 0.722534C2.50675 0.373089 0.437805 2.25797 0.437805 4.64055V4.68291C0.437805 6.18658 1.26954 7.55259 2.58992 8.2303L9.00469 11.5024C11.0216 12.5295 12.6643 14.2026 13.6728 16.2569L16.719 22.4622C17.2181 23.7753 18.3825 24.7495 19.7965 24.9507C19.8069 24.9507 19.8173 24.9507 19.8277 24.9507C19.994 24.9719 20.1707 24.993 20.3475 24.993C20.5242 24.993 20.701 24.9825 20.8673 24.9507C20.8777 24.9507 20.8881 24.9507 20.8985 24.9507C22.3125 24.7495 23.4769 23.7753 23.9759 22.4622L27.0222 16.2569C28.0306 14.2026 29.6733 12.5295 31.6903 11.5024C34.6325 10.0093 38.0842 10.0093 41.0265 11.5024C43.0435 12.5295 44.6862 14.2026 45.6946 16.2569L48.7721 22.5258C49.2815 23.7965 50.4251 24.7283 51.7975 24.9401C51.8183 24.9401 51.8391 24.9507 51.8703 24.9507C52.0366 24.9719 52.2134 24.993 52.3797 24.993C52.5565 24.993 52.7228 24.9825 52.8892 24.9507C52.9099 24.9507 52.9307 24.9401 52.9619 24.9401C54.3343 24.7283 55.4675 23.7965 55.9874 22.5258L60.3748 13.599C60.6035 13.1225 60.1149 12.6142 59.647 12.8578L57.079 14.1814C54.1368 15.6851 50.6747 15.6851 47.7428 14.1814Z" fill="#3586FF"/>
<path d="M71.9152 2.88277C71.3434 1.71795 70.2621 0.934348 69.0249 0.743742C69.0041 0.743742 68.9833 0.733152 68.9521 0.733152C68.7858 0.711974 68.6091 0.690796 68.4427 0.690796C68.266 0.690796 68.0996 0.701384 67.9333 0.733152C67.9125 0.733152 67.8917 0.743742 67.8605 0.743742C66.6233 0.934348 65.542 1.72854 64.9702 2.88277L64.8351 3.1475C64.6479 3.61342 64.5439 4.12171 64.5439 4.65117V4.69353C64.5439 6.1972 65.3757 7.56321 66.6961 8.24092C67.7981 8.80215 69.0873 8.80215 70.1894 8.24092C71.5097 7.5738 72.3415 6.1972 72.3415 4.69353V4.65117C72.3415 4.12171 72.2375 3.61342 72.0504 3.1475L71.9152 2.88277Z" fill="#3586FF"/>
</svg>
