<svg width="40" height="40" viewBox="0 0 40 40" fill="none" xmlns="http://www.w3.org/2000/svg">
<path d="M39 20C39 14.7539 36.8739 10.0045 33.4363 6.56625M39 20C39 25.2461 36.8739 29.9955 33.4363 33.4337M39 20L34.6047 19.9722M20 39C14.7526 39 10.0021 36.8728 6.56369 33.4337M20 39L20.0278 34.549M20 39C25.2474 39 29.9979 36.8728 33.4363 33.4337M1 20C1 14.7539 3.12612 10.0045 6.56369 6.56625M1 20L5.45095 19.9722M1 20C1 25.2461 3.12612 29.9955 6.56369 33.4337M20 1C14.7526 1 10.0021 3.12718 6.56369 6.56625M20 1C25.2474 1 29.9979 3.12718 33.4363 6.56625M20 1L20.0278 5.39531M34.6047 19.9722C34.6047 15.9963 33.0129 12.3922 30.4319 9.76239M34.6047 19.9722C34.6047 23.9481 33.0129 27.5522 30.4319 30.182M20.0278 34.549C17.5881 34.549 15.2884 33.9497 13.2679 32.8902M20.0278 34.549C22.4675 34.549 24.7672 33.9497 26.7877 32.8902M5.45095 19.9722C5.45095 15.9963 7.04271 12.3922 9.62372 9.76239M5.45095 19.9722C5.45095 23.9481 7.04271 27.5522 9.62372 30.182M20.0278 5.39531C17.5881 5.39531 15.2884 5.99466 13.2679 7.05415M20.0278 5.39531C22.4675 5.39531 24.7672 5.99466 26.7877 7.05415M13.2679 7.05415V32.8902M13.2679 7.05415C11.9138 7.76419 10.6851 8.68091 9.62372 9.76239M13.2679 32.8902C11.9138 32.1802 10.6851 31.2635 9.62372 30.182M26.7877 7.05415V32.8902M26.7877 7.05415C28.1418 7.76419 29.3705 8.68091 30.4319 9.76239M26.7877 32.8902C28.1418 32.1802 29.3705 31.2635 30.4319 30.182M6.56369 6.56625L9.62372 9.76239M33.4363 6.56625L30.4319 9.76239M9.62372 30.182L6.56369 33.4337M30.4319 30.182L33.4363 33.4337" stroke="#3586FF"/>
</svg>
