<svg width="124" height="70" viewBox="0 0 124 70" fill="none" xmlns="http://www.w3.org/2000/svg">
<g clip-path="url(#clip0_6333_59730)">
<g clip-path="url(#clip1_6333_59730)">
<path d="M61.9167 39C72.226 39 80.5833 30.4934 80.5833 20C80.5833 9.50659 72.226 1 61.9167 1M61.9167 39C51.6074 39 43.25 30.4934 43.25 20C43.25 9.50659 51.6074 1 61.9167 1M61.9167 39C61.0915 39 60.2789 38.9448 59.4818 38.8392C68.6407 37.6247 73.4723 29.6534 73.4723 20C73.4723 10.3466 68.6407 2.37527 59.4819 1.16083C60.2789 1.05522 61.0915 1 61.9167 1" stroke="#C0C0C0"/>
<path d="M74.3196 8.91969L74.2226 8.66923C74.2197 8.66204 74.2143 8.6561 74.2073 8.6529L73.9664 8.54157C71.9837 7.62493 69.187 7.39876 66.7126 7.29852H63.9256C63.8942 7.29852 63.8846 7.3418 63.9129 7.35563L69.6376 10.1491C69.6699 10.1649 69.652 10.2138 69.6173 10.2045C67.0427 9.52016 64.4418 9.17376 61.8735 9.17376C59.3136 9.17376 56.7211 9.51805 54.1544 10.1981C54.1195 10.2073 54.1018 10.1578 54.1346 10.1424L60.0601 7.35594C60.0888 7.34243 60.0794 7.29868 60.0477 7.29868H57.0346C54.5602 7.39891 51.7634 7.62509 49.7807 8.54173L49.5399 8.65305C49.5329 8.65626 49.5274 8.66212 49.5246 8.66938L49.4276 8.91985C47.3985 14.1531 46.8219 23.0374 47.4368 28.6031L47.469 28.895L47.6972 29.0751C50.867 31.577 55.1054 32.8633 57.7718 33.2046L58.1166 33.2488C58.2286 33.2631 58.3357 33.1972 58.3753 33.0895L60.1107 28.3702C60.1648 28.2231 60.0727 28.0625 59.9203 28.0381L59.3878 27.953C57.5309 27.656 54.8999 26.8688 52.6766 24.8165C52.6292 24.7727 52.6749 24.6939 52.7349 24.7166C52.9156 24.7849 53.1149 24.8641 53.32 24.9457C53.8228 25.1456 54.3427 25.3524 54.682 25.4344C57.0663 26.0114 59.4841 26.3041 61.8734 26.3041V26.2608H61.8784L61.8787 26.3041C64.2631 26.3041 66.6809 26.0115 69.065 25.4344C69.4044 25.3523 69.9243 25.1456 70.4271 24.9456C70.6321 24.8641 70.8313 24.7849 71.0119 24.7166C71.0719 24.6939 71.1177 24.7727 71.0703 24.8165C68.8544 26.8598 66.2201 27.6449 64.3591 27.9416L63.8267 28.0265C63.6743 28.0508 63.582 28.2113 63.6361 28.3584L65.3718 33.0893C65.4113 33.197 65.5185 33.2631 65.6305 33.2487L65.9756 33.2045C68.6418 32.8632 72.88 31.5769 76.0499 29.075L76.278 28.8949L76.3102 28.6031C76.9252 23.0374 76.3486 14.1531 74.3196 8.91969ZM56.2094 21.7683C54.0539 21.9639 52.2556 20.1337 52.4476 17.9397C52.5948 16.2579 53.9252 14.9035 55.5776 14.7535C57.7331 14.5579 59.5314 16.3881 59.3394 18.5821C59.1921 20.2639 57.8617 21.6183 56.2094 21.7683ZM68.1697 21.7683C66.0142 21.9639 64.2159 20.1337 64.4079 17.9397C64.5551 16.2579 65.8856 14.9035 67.5379 14.7535C69.6934 14.5579 71.4917 16.3881 71.2998 18.5821C71.1525 20.2639 69.822 21.6183 68.1697 21.7683Z" fill="#F1EFED" stroke="#3586FF"/>
</g>
</g>
<path d="M27.658 65H26.164V55.118L22.078 65H21.466L17.398 55.118V65H15.904V52.994H18.046L21.772 62.03L25.516 52.994H27.658V65ZM34.3287 65.216C33.0327 65.216 31.9707 64.796 31.1427 63.956C30.3147 63.104 29.9007 62 29.9007 60.644C29.9007 59.372 30.3087 58.298 31.1247 57.422C31.9407 56.534 32.9607 56.09 34.1847 56.09C35.4687 56.09 36.4827 56.534 37.2267 57.422C37.9827 58.298 38.3607 59.408 38.3607 60.752V61.094H31.3227C31.3827 61.946 31.6947 62.66 32.2587 63.236C32.8227 63.812 33.5547 64.1 34.4547 64.1C35.5347 64.1 36.4287 63.734 37.1367 63.002L37.7847 63.884C36.8967 64.772 35.7447 65.216 34.3287 65.216ZM37.0287 60.104C37.0167 59.36 36.7647 58.694 36.2727 58.106C35.7807 57.506 35.0787 57.206 34.1667 57.206C33.3027 57.206 32.6187 57.5 32.1147 58.088C31.6227 58.676 31.3587 59.348 31.3227 60.104H37.0287ZM43.3013 65.216C41.8253 65.216 40.6553 64.76 39.7913 63.848L40.4933 62.876C40.7933 63.224 41.2013 63.518 41.7173 63.758C42.2453 63.998 42.7913 64.118 43.3553 64.118C44.0033 64.118 44.5073 63.98 44.8673 63.704C45.2273 63.428 45.4073 63.068 45.4073 62.624C45.4073 62.24 45.2213 61.94 44.8493 61.724C44.4773 61.496 44.0273 61.328 43.4993 61.22C42.9833 61.1 42.4613 60.968 41.9333 60.824C41.4053 60.668 40.9553 60.41 40.5833 60.05C40.2113 59.678 40.0253 59.192 40.0253 58.592C40.0253 57.884 40.3133 57.29 40.8893 56.81C41.4773 56.33 42.2693 56.09 43.2653 56.09C44.5733 56.09 45.6473 56.51 46.4873 57.35L45.8573 58.286C45.2453 57.554 44.3813 57.188 43.2653 57.188C42.6773 57.188 42.2093 57.32 41.8613 57.584C41.5133 57.836 41.3393 58.16 41.3393 58.556C41.3393 58.904 41.5253 59.18 41.8973 59.384C42.2693 59.576 42.7133 59.732 43.2293 59.852C43.7573 59.96 44.2853 60.092 44.8133 60.248C45.3413 60.404 45.7913 60.68 46.1633 61.076C46.5353 61.46 46.7213 61.964 46.7213 62.588C46.7213 63.356 46.4213 63.986 45.8213 64.478C45.2213 64.97 44.3813 65.216 43.3013 65.216ZM51.6685 65.216C50.1925 65.216 49.0225 64.76 48.1585 63.848L48.8605 62.876C49.1605 63.224 49.5685 63.518 50.0845 63.758C50.6125 63.998 51.1585 64.118 51.7225 64.118C52.3705 64.118 52.8745 63.98 53.2345 63.704C53.5945 63.428 53.7745 63.068 53.7745 62.624C53.7745 62.24 53.5885 61.94 53.2165 61.724C52.8445 61.496 52.3945 61.328 51.8665 61.22C51.3505 61.1 50.8285 60.968 50.3005 60.824C49.7725 60.668 49.3225 60.41 48.9505 60.05C48.5785 59.678 48.3925 59.192 48.3925 58.592C48.3925 57.884 48.6805 57.29 49.2565 56.81C49.8445 56.33 50.6365 56.09 51.6325 56.09C52.9405 56.09 54.0145 56.51 54.8545 57.35L54.2245 58.286C53.6125 57.554 52.7485 57.188 51.6325 57.188C51.0445 57.188 50.5765 57.32 50.2285 57.584C49.8805 57.836 49.7065 58.16 49.7065 58.556C49.7065 58.904 49.8925 59.18 50.2645 59.384C50.6365 59.576 51.0805 59.732 51.5965 59.852C52.1245 59.96 52.6525 60.092 53.1805 60.248C53.7085 60.404 54.1585 60.68 54.5305 61.076C54.9025 61.46 55.0885 61.964 55.0885 62.588C55.0885 63.356 54.7885 63.986 54.1885 64.478C53.5885 64.97 52.7485 65.216 51.6685 65.216ZM64.0676 65H62.7176V64.01C61.9856 64.814 61.0256 65.216 59.8376 65.216C59.0336 65.216 58.3256 64.958 57.7136 64.442C57.1016 63.926 56.7956 63.224 56.7956 62.336C56.7956 61.424 57.0956 60.722 57.6956 60.23C58.3076 59.726 59.0216 59.474 59.8376 59.474C61.0736 59.474 62.0336 59.87 62.7176 60.662V59.096C62.7176 58.52 62.5136 58.07 62.1056 57.746C61.6976 57.422 61.1696 57.26 60.5216 57.26C59.5016 57.26 58.6136 57.662 57.8576 58.466L57.2276 57.53C58.1516 56.57 59.3096 56.09 60.7016 56.09C61.6976 56.09 62.5076 56.33 63.1316 56.81C63.7556 57.29 64.0676 58.028 64.0676 59.024V65ZM60.3236 64.244C61.4036 64.244 62.2016 63.884 62.7176 63.164V61.526C62.2016 60.806 61.4036 60.446 60.3236 60.446C59.6996 60.446 59.1836 60.626 58.7756 60.986C58.3796 61.334 58.1816 61.79 58.1816 62.354C58.1816 62.906 58.3796 63.362 58.7756 63.722C59.1836 64.07 59.6996 64.244 60.3236 64.244ZM70.2658 68.528C69.4978 68.528 68.8438 68.432 68.3038 68.24C67.7638 68.06 67.2478 67.724 66.7558 67.232L67.4398 66.224C68.0998 67.016 69.0418 67.412 70.2658 67.412C71.0698 67.412 71.7358 67.196 72.2638 66.764C72.7918 66.344 73.0558 65.69 73.0558 64.802V63.56C72.7318 64.016 72.3118 64.388 71.7958 64.676C71.2798 64.964 70.7278 65.108 70.1398 65.108C68.9878 65.108 68.0518 64.706 67.3318 63.902C66.6238 63.086 66.2698 61.988 66.2698 60.608C66.2698 59.228 66.6238 58.13 67.3318 57.314C68.0518 56.498 68.9878 56.09 70.1398 56.09C71.3278 56.09 72.2998 56.6 73.0558 57.62V56.306H74.4058V64.748C74.4058 66.08 74.0158 67.04 73.2358 67.628C72.4558 68.228 71.4658 68.528 70.2658 68.528ZM70.4638 63.92C70.9798 63.92 71.4778 63.782 71.9578 63.506C72.4498 63.23 72.8158 62.894 73.0558 62.498V58.7C72.8158 58.304 72.4558 57.974 71.9758 57.71C71.4958 57.434 70.9918 57.296 70.4638 57.296C69.5998 57.296 68.9158 57.602 68.4118 58.214C67.9198 58.826 67.6738 59.624 67.6738 60.608C67.6738 61.58 67.9258 62.378 68.4298 63.002C68.9338 63.614 69.6118 63.92 70.4638 63.92ZM81.0338 65.216C79.7378 65.216 78.6758 64.796 77.8478 63.956C77.0198 63.104 76.6058 62 76.6058 60.644C76.6058 59.372 77.0138 58.298 77.8298 57.422C78.6458 56.534 79.6658 56.09 80.8898 56.09C82.1738 56.09 83.1878 56.534 83.9318 57.422C84.6878 58.298 85.0658 59.408 85.0658 60.752V61.094H78.0278C78.0878 61.946 78.3998 62.66 78.9638 63.236C79.5278 63.812 80.2598 64.1 81.1598 64.1C82.2398 64.1 83.1338 63.734 83.8418 63.002L84.4898 63.884C83.6018 64.772 82.4498 65.216 81.0338 65.216ZM83.7338 60.104C83.7218 59.36 83.4698 58.694 82.9778 58.106C82.4858 57.506 81.7838 57.206 80.8718 57.206C80.0078 57.206 79.3238 57.5 78.8198 58.088C78.3278 58.676 78.0638 59.348 78.0278 60.104H83.7338ZM99.111 65H97.761V63.776C97.401 64.184 96.945 64.526 96.393 64.802C95.853 65.078 95.277 65.216 94.665 65.216C92.817 65.216 91.893 64.292 91.893 62.444V56.306H93.243V62.03C93.243 62.75 93.405 63.26 93.729 63.56C94.065 63.86 94.551 64.01 95.187 64.01C95.691 64.01 96.177 63.884 96.645 63.632C97.125 63.38 97.497 63.068 97.761 62.696V56.306H99.111V65ZM104.561 65.216C103.085 65.216 101.915 64.76 101.051 63.848L101.753 62.876C102.053 63.224 102.461 63.518 102.977 63.758C103.505 63.998 104.051 64.118 104.615 64.118C105.263 64.118 105.767 63.98 106.127 63.704C106.487 63.428 106.667 63.068 106.667 62.624C106.667 62.24 106.481 61.94 106.109 61.724C105.737 61.496 105.287 61.328 104.759 61.22C104.243 61.1 103.721 60.968 103.193 60.824C102.665 60.668 102.215 60.41 101.843 60.05C101.471 59.678 101.285 59.192 101.285 58.592C101.285 57.884 101.573 57.29 102.149 56.81C102.737 56.33 103.529 56.09 104.525 56.09C105.833 56.09 106.907 56.51 107.747 57.35L107.117 58.286C106.505 57.554 105.641 57.188 104.525 57.188C103.937 57.188 103.469 57.32 103.121 57.584C102.773 57.836 102.599 58.16 102.599 58.556C102.599 58.904 102.785 59.18 103.157 59.384C103.529 59.576 103.973 59.732 104.489 59.852C105.017 59.96 105.545 60.092 106.073 60.248C106.601 60.404 107.051 60.68 107.423 61.076C107.795 61.46 107.981 61.964 107.981 62.588C107.981 63.356 107.681 63.986 107.081 64.478C106.481 64.97 105.641 65.216 104.561 65.216Z" fill="#3586FF"/>
<defs>
<clipPath id="clip0_6333_59730">
<rect width="40" height="40" fill="white" transform="translate(42)"/>
</clipPath>
<clipPath id="clip1_6333_59730">
<rect width="39.2982" height="40" fill="white" transform="translate(42.25)"/>
</clipPath>
</defs>
</svg>
