<svg width="20" height="20" viewBox="0 0 20 20" fill="none" xmlns="http://www.w3.org/2000/svg">
<path d="M1.92504 18.9137L1.92411 18.9138C1.6767 18.9417 1.46684 18.7319 1.49477 18.4845L1.49488 18.4835L1.9461 14.4181L11.7618 4.60241L15.8062 8.64676L5.99046 18.4625L1.92504 18.9137ZM16.8953 1.28833L19.1248 3.51786C19.6232 4.01623 19.625 4.82861 19.1242 5.33331C19.124 5.33349 19.1238 5.33366 19.1237 5.33384L17.5458 6.91169L13.5015 2.86734L15.0793 1.28948C15.0795 1.28932 15.0796 1.28915 15.0798 1.28899C15.5845 0.788123 16.3969 0.789946 16.8953 1.28833L17.2488 0.934774L16.8953 1.28833Z" stroke="white"/>
</svg>
