<svg width="123" height="70" viewBox="0 0 123 70" fill="none" xmlns="http://www.w3.org/2000/svg">
<path d="M58.9796 8.68421L74.3796 9C77.4405 9 79.9219 11.4695 79.9219 14.5158V22.5789H64.0565M58.9796 8.68421C56.1757 8.68421 53.9026 10.9464 53.9026 13.7368V22.5789M58.9796 8.68421C61.7835 8.68421 64.0565 10.9464 64.0565 13.7368V22.5789M64.0565 22.5789L53.9026 22.5789M53.9026 22.5789H46.9219M69.42 22.5789V39H66.247V22.5789M67.5162 10.5789C66.8152 10.5789 66.247 11.2859 66.247 12.1579C66.247 13.0299 66.8152 13.7368 67.5162 13.7368C68.2172 13.7368 68.7854 13.0299 68.7854 12.1579C68.7854 11.2859 68.2172 10.5789 67.5162 10.5789ZM67.5162 10.5789V3H70.6893V4.7594H67.7028" stroke="#C0C0C0"/>
<path d="M48.1442 10.8365L60.4659 13.7658L58.9309 20.2223L46.6093 17.2929L48.1442 10.8365Z" fill="#E6E4E3" stroke="#3586FF"/>
<path d="M27.3299 65H25.8359V55.118L21.7499 65H21.1379L17.0699 55.118V65H15.5759V52.994H17.7179L21.4439 62.03L25.1879 52.994H27.3299V65ZM34.0006 65.216C32.7046 65.216 31.6426 64.796 30.8146 63.956C29.9866 63.104 29.5726 62 29.5726 60.644C29.5726 59.372 29.9806 58.298 30.7966 57.422C31.6126 56.534 32.6326 56.09 33.8566 56.09C35.1406 56.09 36.1546 56.534 36.8986 57.422C37.6546 58.298 38.0326 59.408 38.0326 60.752V61.094H30.9946C31.0546 61.946 31.3666 62.66 31.9306 63.236C32.4946 63.812 33.2266 64.1 34.1266 64.1C35.2066 64.1 36.1006 63.734 36.8086 63.002L37.4566 63.884C36.5686 64.772 35.4166 65.216 34.0006 65.216ZM36.7006 60.104C36.6886 59.36 36.4366 58.694 35.9446 58.106C35.4526 57.506 34.7506 57.206 33.8386 57.206C32.9746 57.206 32.2906 57.5 31.7866 58.088C31.2946 58.676 31.0306 59.348 30.9946 60.104H36.7006ZM42.9731 65.216C41.4971 65.216 40.3271 64.76 39.4631 63.848L40.1651 62.876C40.4651 63.224 40.8731 63.518 41.3891 63.758C41.9171 63.998 42.4631 64.118 43.0271 64.118C43.6751 64.118 44.1791 63.98 44.5391 63.704C44.8991 63.428 45.0791 63.068 45.0791 62.624C45.0791 62.24 44.8931 61.94 44.5211 61.724C44.1491 61.496 43.6991 61.328 43.1711 61.22C42.6551 61.1 42.1331 60.968 41.6051 60.824C41.0771 60.668 40.6271 60.41 40.2551 60.05C39.8831 59.678 39.6971 59.192 39.6971 58.592C39.6971 57.884 39.9851 57.29 40.5611 56.81C41.1491 56.33 41.9411 56.09 42.9371 56.09C44.2451 56.09 45.3191 56.51 46.1591 57.35L45.5291 58.286C44.9171 57.554 44.0531 57.188 42.9371 57.188C42.3491 57.188 41.8811 57.32 41.5331 57.584C41.1851 57.836 41.0111 58.16 41.0111 58.556C41.0111 58.904 41.1971 59.18 41.5691 59.384C41.9411 59.576 42.3851 59.732 42.9011 59.852C43.4291 59.96 43.9571 60.092 44.4851 60.248C45.0131 60.404 45.4631 60.68 45.8351 61.076C46.2071 61.46 46.3931 61.964 46.3931 62.588C46.3931 63.356 46.0931 63.986 45.4931 64.478C44.8931 64.97 44.0531 65.216 42.9731 65.216ZM51.3403 65.216C49.8643 65.216 48.6943 64.76 47.8303 63.848L48.5323 62.876C48.8323 63.224 49.2403 63.518 49.7563 63.758C50.2843 63.998 50.8303 64.118 51.3943 64.118C52.0423 64.118 52.5463 63.98 52.9063 63.704C53.2663 63.428 53.4463 63.068 53.4463 62.624C53.4463 62.24 53.2603 61.94 52.8883 61.724C52.5163 61.496 52.0663 61.328 51.5383 61.22C51.0223 61.1 50.5003 60.968 49.9723 60.824C49.4443 60.668 48.9943 60.41 48.6223 60.05C48.2503 59.678 48.0643 59.192 48.0643 58.592C48.0643 57.884 48.3523 57.29 48.9283 56.81C49.5163 56.33 50.3083 56.09 51.3043 56.09C52.6123 56.09 53.6863 56.51 54.5263 57.35L53.8963 58.286C53.2843 57.554 52.4203 57.188 51.3043 57.188C50.7163 57.188 50.2483 57.32 49.9003 57.584C49.5523 57.836 49.3783 58.16 49.3783 58.556C49.3783 58.904 49.5643 59.18 49.9363 59.384C50.3083 59.576 50.7523 59.732 51.2683 59.852C51.7963 59.96 52.3243 60.092 52.8523 60.248C53.3803 60.404 53.8303 60.68 54.2023 61.076C54.5743 61.46 54.7603 61.964 54.7603 62.588C54.7603 63.356 54.4603 63.986 53.8603 64.478C53.2603 64.97 52.4203 65.216 51.3403 65.216ZM63.7395 65H62.3895V64.01C61.6575 64.814 60.6975 65.216 59.5095 65.216C58.7055 65.216 57.9975 64.958 57.3855 64.442C56.7735 63.926 56.4675 63.224 56.4675 62.336C56.4675 61.424 56.7675 60.722 57.3675 60.23C57.9795 59.726 58.6935 59.474 59.5095 59.474C60.7455 59.474 61.7055 59.87 62.3895 60.662V59.096C62.3895 58.52 62.1855 58.07 61.7775 57.746C61.3695 57.422 60.8415 57.26 60.1935 57.26C59.1735 57.26 58.2855 57.662 57.5295 58.466L56.8995 57.53C57.8235 56.57 58.9815 56.09 60.3735 56.09C61.3695 56.09 62.1795 56.33 62.8035 56.81C63.4275 57.29 63.7395 58.028 63.7395 59.024V65ZM59.9955 64.244C61.0755 64.244 61.8735 63.884 62.3895 63.164V61.526C61.8735 60.806 61.0755 60.446 59.9955 60.446C59.3715 60.446 58.8555 60.626 58.4475 60.986C58.0515 61.334 57.8535 61.79 57.8535 62.354C57.8535 62.906 58.0515 63.362 58.4475 63.722C58.8555 64.07 59.3715 64.244 59.9955 64.244ZM69.9377 68.528C69.1697 68.528 68.5157 68.432 67.9757 68.24C67.4357 68.06 66.9197 67.724 66.4277 67.232L67.1117 66.224C67.7717 67.016 68.7137 67.412 69.9377 67.412C70.7417 67.412 71.4077 67.196 71.9357 66.764C72.4637 66.344 72.7277 65.69 72.7277 64.802V63.56C72.4037 64.016 71.9837 64.388 71.4677 64.676C70.9517 64.964 70.3997 65.108 69.8117 65.108C68.6597 65.108 67.7237 64.706 67.0037 63.902C66.2957 63.086 65.9417 61.988 65.9417 60.608C65.9417 59.228 66.2957 58.13 67.0037 57.314C67.7237 56.498 68.6597 56.09 69.8117 56.09C70.9997 56.09 71.9717 56.6 72.7277 57.62V56.306H74.0777V64.748C74.0777 66.08 73.6877 67.04 72.9077 67.628C72.1277 68.228 71.1377 68.528 69.9377 68.528ZM70.1357 63.92C70.6517 63.92 71.1497 63.782 71.6297 63.506C72.1217 63.23 72.4877 62.894 72.7277 62.498V58.7C72.4877 58.304 72.1277 57.974 71.6477 57.71C71.1677 57.434 70.6637 57.296 70.1357 57.296C69.2717 57.296 68.5877 57.602 68.0837 58.214C67.5917 58.826 67.3457 59.624 67.3457 60.608C67.3457 61.58 67.5977 62.378 68.1017 63.002C68.6057 63.614 69.2837 63.92 70.1357 63.92ZM80.7056 65.216C79.4096 65.216 78.3476 64.796 77.5196 63.956C76.6916 63.104 76.2776 62 76.2776 60.644C76.2776 59.372 76.6856 58.298 77.5016 57.422C78.3176 56.534 79.3376 56.09 80.5616 56.09C81.8456 56.09 82.8596 56.534 83.6036 57.422C84.3596 58.298 84.7376 59.408 84.7376 60.752V61.094H77.6996C77.7596 61.946 78.0716 62.66 78.6356 63.236C79.1996 63.812 79.9316 64.1 80.8316 64.1C81.9116 64.1 82.8056 63.734 83.5136 63.002L84.1616 63.884C83.2736 64.772 82.1216 65.216 80.7056 65.216ZM83.4056 60.104C83.3936 59.36 83.1416 58.694 82.6496 58.106C82.1576 57.506 81.4556 57.206 80.5436 57.206C79.6796 57.206 78.9956 57.5 78.4916 58.088C77.9996 58.676 77.7356 59.348 77.6996 60.104H83.4056ZM98.7828 65H97.4328V63.776C97.0728 64.184 96.6168 64.526 96.0648 64.802C95.5248 65.078 94.9488 65.216 94.3368 65.216C92.4888 65.216 91.5648 64.292 91.5648 62.444V56.306H92.9148V62.03C92.9148 62.75 93.0768 63.26 93.4008 63.56C93.7368 63.86 94.2228 64.01 94.8588 64.01C95.3628 64.01 95.8488 63.884 96.3168 63.632C96.7968 63.38 97.1688 63.068 97.4328 62.696V56.306H98.7828V65ZM104.233 65.216C102.757 65.216 101.587 64.76 100.723 63.848L101.425 62.876C101.725 63.224 102.133 63.518 102.649 63.758C103.177 63.998 103.723 64.118 104.287 64.118C104.935 64.118 105.439 63.98 105.799 63.704C106.159 63.428 106.339 63.068 106.339 62.624C106.339 62.24 106.153 61.94 105.781 61.724C105.409 61.496 104.959 61.328 104.431 61.22C103.915 61.1 103.393 60.968 102.865 60.824C102.337 60.668 101.887 60.41 101.515 60.05C101.143 59.678 100.957 59.192 100.957 58.592C100.957 57.884 101.245 57.29 101.821 56.81C102.409 56.33 103.201 56.09 104.197 56.09C105.505 56.09 106.579 56.51 107.419 57.35L106.789 58.286C106.177 57.554 105.313 57.188 104.197 57.188C103.609 57.188 103.141 57.32 102.793 57.584C102.445 57.836 102.271 58.16 102.271 58.556C102.271 58.904 102.457 59.18 102.829 59.384C103.201 59.576 103.645 59.732 104.161 59.852C104.689 59.96 105.217 60.092 105.745 60.248C106.273 60.404 106.723 60.68 107.095 61.076C107.467 61.46 107.653 61.964 107.653 62.588C107.653 63.356 107.353 63.986 106.753 64.478C106.153 64.97 105.313 65.216 104.233 65.216Z" fill="#3586FF"/>
</svg>
