<svg width="19" height="24" viewBox="0 0 19 24" fill="none" xmlns="http://www.w3.org/2000/svg">
<path d="M0.841245 2.27299L0.841222 2.27296C0.696737 2.09887 0.662375 1.84046 0.741377 1.611C0.821765 1.37753 0.964487 1.2998 1.07267 1.2998H17.9191C18.0278 1.2998 18.1702 1.37758 18.2504 1.61103C18.3292 1.84082 18.2945 2.09944 18.1505 2.27298L11.4349 10.3654L11.3197 10.5043V10.6847V22.1489C11.3197 22.419 11.1962 22.5865 11.0848 22.6559C10.9863 22.7172 10.8817 22.7204 10.7708 22.6269L10.7708 22.6269L7.86592 20.1777C7.86591 20.1777 7.8659 20.1777 7.8659 20.1777C7.76045 20.0888 7.67188 19.9156 7.67188 19.6998V10.6847V10.5043L7.55665 10.3654L0.841245 2.27299Z" stroke="white"/>
</svg>
