<svg width="23" height="29" viewBox="0 0 23 29" fill="none" xmlns="http://www.w3.org/2000/svg">
<path d="M7.30357 14.5V15H7.80357H20.5357C21.575 15 22.5 15.9466 22.5 17.2188V26.2813C22.5 27.5535 21.575 28.5 20.5357 28.5H2.46429C1.42503 28.5 0.5 27.5535 0.5 26.2813V17.2188C0.5 15.9466 1.42503 15 2.46429 15H3.69643H4.19643V14.5V8.69438C4.19643 4.15838 7.48984 0.515759 11.4763 0.500052C15.4663 0.48433 18.8036 4.08068 18.8036 8.60942V9.51566C18.8036 10.0402 18.433 10.375 18.0714 10.375H16.4286C16.067 10.375 15.6964 10.0402 15.6964 9.51566V8.60942C15.6964 6.12001 13.8369 4.00509 11.4585 4.03133L11.4585 4.03133C9.0998 4.05761 7.30357 6.19822 7.30357 8.66039V14.5Z" stroke="#3586FF"/>
</svg>
