<svg width="27" height="28" viewBox="0 0 27 28" fill="none" xmlns="http://www.w3.org/2000/svg">
<path d="M20.3255 6.41667C20.3255 9.68435 17.6765 12.3333 14.4089 12.3333C11.1412 12.3333 8.49219 9.68435 8.49219 6.41667C8.49219 3.14898 11.1412 0.5 14.4089 0.5C17.6765 0.5 20.3255 3.14898 20.3255 6.41667ZM26.1589 21C26.1589 22.6642 24.9152 24.281 22.6606 25.5108C20.4249 26.7303 17.3022 27.5 13.8255 27.5C10.3489 27.5 7.22612 26.7303 4.99041 25.5108C2.7358 24.281 1.49219 22.6642 1.49219 21C1.49219 19.3358 2.7358 17.719 4.99041 16.4892C7.22612 15.2697 10.3489 14.5 13.8255 14.5C17.3022 14.5 20.4249 15.2697 22.6606 16.4892C24.9152 17.719 26.1589 19.3358 26.1589 21Z" stroke="#3586FF"/>
</svg>
