<svg width="18" height="17" viewBox="0 0 18 17" fill="none" xmlns="http://www.w3.org/2000/svg">
<path d="M6.63339 0.793265C3.31281 1.74533 0.882812 4.80434 0.882812 8.43092C0.882812 12.0696 3.32904 15.1369 6.66663 16.078M10.9214 0.765381C14.2929 1.6843 16.7717 4.76814 16.7717 8.43092C16.7717 12.0696 14.3255 15.1369 10.9879 16.078M11.7192 6.56946C11.6528 5.81601 11.1209 4.27587 9.52537 4.14291V2.71358H8.06279V4.14291C7.26502 4.14291 5.70273 4.90744 5.70273 6.56946C5.70273 10.1262 10.2898 8.09851 10.4228 10.3589C10.2898 12.1871 7.06552 11.7882 6.99904 10.1927H5.46998C5.53646 10.9461 6.40071 12.4862 7.99625 12.6192V14.0485H9.45883V12.6192C10.2566 12.6192 11.9519 11.8547 11.9519 10.1927C11.9519 6.63594 7.23172 8.6636 7.23172 6.53622C7.23172 5.17336 9.72475 4.80772 10.2898 6.56946H11.7192Z" stroke="#3586FF" stroke-width="0.882716"/>
</svg>
