<svg width="123" height="70" viewBox="0 0 123 70" fill="none" xmlns="http://www.w3.org/2000/svg">
<path d="M63.0835 22.3679V21.0116C63.0835 20.637 62.7672 20.3334 62.3769 20.3334H61.6703C61.28 20.3334 60.9636 20.637 60.9636 21.0116V22.3679M63.0835 22.3679H60.9636M63.0835 22.3679H68.7365M60.9636 22.3679H60.2211C59.944 22.3679 59.679 22.4766 59.4879 22.6687L56.3272 25.8457C53.849 28.3367 52.4841 31.603 52.4841 35.0429V39.0307C52.4841 39.566 52.9375 40 53.4967 40H78.3235C78.8827 40 79.3361 39.566 79.3359 39.0306V35.0429C79.3359 31.603 77.9711 28.3367 75.4929 25.8457L72.3322 22.6687C72.1411 22.4766 71.8761 22.3679 71.5989 22.3679H70.8564M70.8564 22.3679V21.0116C70.8564 20.637 70.5401 20.3334 70.1498 20.3334H69.4432C69.0529 20.3334 68.7365 20.637 68.7365 21.0116V22.3679M70.8564 22.3679H68.7365M73.1017 10.8436C73.1017 10.8436 73.0993 10.8449 73.098 10.8456L69.3807 12.9009C68.6373 13.3114 67.7523 13.384 66.9521 13.1005C66.1618 12.8204 65.5473 12.2241 65.2662 11.4643C65.2577 11.4413 65.2501 11.4179 65.2434 11.3943L65.0057 10.559C63.6235 10.6636 60.5965 11.0646 57.7888 12.6019C54.9782 14.1389 53.1016 16.4558 52.3173 17.5513L52.9516 18.1724C52.9688 18.1893 52.9854 18.2068 53.0014 18.2249C53.5447 18.8399 53.7732 19.6494 53.6284 20.446C53.482 21.2511 52.9732 21.948 52.2324 22.3585C52.2324 22.3585 52.2299 22.3599 52.2287 22.3606L48.5114 24.4158C47.4254 25.0155 46.0845 24.8849 45.1744 24.0912C43.7712 22.8675 43.1519 21.1352 43.3833 19.0814C43.6243 16.9429 44.8129 14.4783 46.7303 12.1417C48.6368 9.81842 51.1982 7.70029 53.945 6.18706C56.6899 4.67112 59.8817 3.60873 62.9325 3.19524C65.9997 2.77958 68.8169 3.0325 70.865 3.90732C72.8336 4.74824 74.0843 6.13368 74.4818 7.914C74.7393 9.06671 74.1847 10.2434 73.1017 10.8436Z" stroke="#C0C0C0"/>
<path d="M66.3359 35.5C63.855 35.5 61.8359 33.4809 61.8359 31C61.8359 28.5192 63.8551 26.5 66.3359 26.5C68.8168 26.5 70.8359 28.5192 70.8359 31C70.8359 33.4808 68.8168 35.5 66.3359 35.5Z" stroke="#3586FF"/>
<path d="M16.4519 65H14.6879L11.6279 60.23H9.23394V65H7.73994V52.994H12.5639C13.6799 52.994 14.5859 53.324 15.2819 53.984C15.9779 54.644 16.3259 55.52 16.3259 56.612C16.3259 57.644 16.0259 58.466 15.4259 59.078C14.8259 59.69 14.0879 60.032 13.2119 60.104L16.4519 65ZM12.3839 58.916C13.0919 58.916 13.6679 58.7 14.1119 58.268C14.5559 57.836 14.7779 57.284 14.7779 56.612C14.7779 55.94 14.5559 55.394 14.1119 54.974C13.6679 54.542 13.0919 54.326 12.3839 54.326H9.23394V58.916H12.3839ZM22.0162 65.216C20.7202 65.216 19.6582 64.796 18.8302 63.956C18.0022 63.104 17.5882 62 17.5882 60.644C17.5882 59.372 17.9962 58.298 18.8122 57.422C19.6282 56.534 20.6482 56.09 21.8722 56.09C23.1562 56.09 24.1702 56.534 24.9142 57.422C25.6702 58.298 26.0482 59.408 26.0482 60.752V61.094H19.0102C19.0702 61.946 19.3822 62.66 19.9462 63.236C20.5102 63.812 21.2422 64.1 22.1422 64.1C23.2222 64.1 24.1162 63.734 24.8242 63.002L25.4722 63.884C24.5842 64.772 23.4322 65.216 22.0162 65.216ZM24.7162 60.104C24.7042 59.36 24.4522 58.694 23.9602 58.106C23.4682 57.506 22.7662 57.206 21.8542 57.206C20.9902 57.206 20.3062 57.5 19.8022 58.088C19.3102 58.676 19.0462 59.348 19.0102 60.104H24.7162ZM31.8708 64.01C32.3988 64.01 32.9028 63.878 33.3828 63.614C33.8748 63.338 34.2348 63.002 34.4628 62.606V58.682C34.2348 58.298 33.8748 57.974 33.3828 57.71C32.9028 57.434 32.3988 57.296 31.8708 57.296C31.0188 57.296 30.3408 57.608 29.8368 58.232C29.3448 58.856 29.0988 59.66 29.0988 60.644C29.0988 61.628 29.3448 62.438 29.8368 63.074C30.3408 63.698 31.0188 64.01 31.8708 64.01ZM31.5468 65.216C30.3948 65.216 29.4588 64.802 28.7388 63.974C28.0308 63.146 27.6768 62.036 27.6768 60.644C27.6768 59.252 28.0308 58.148 28.7388 57.332C29.4588 56.504 30.3948 56.09 31.5468 56.09C32.1468 56.09 32.7048 56.228 33.2208 56.504C33.7368 56.78 34.1508 57.146 34.4628 57.602V56.306H35.8128V68.312H34.4628V63.686C33.7308 64.706 32.7588 65.216 31.5468 65.216ZM45.7535 65H44.4035V63.776C44.0435 64.184 43.5875 64.526 43.0355 64.802C42.4955 65.078 41.9195 65.216 41.3075 65.216C39.4595 65.216 38.5355 64.292 38.5355 62.444V56.306H39.8855V62.03C39.8855 62.75 40.0475 63.26 40.3715 63.56C40.7075 63.86 41.1935 64.01 41.8295 64.01C42.3335 64.01 42.8195 63.884 43.2875 63.632C43.7675 63.38 44.1395 63.068 44.4035 62.696V56.306H45.7535V65ZM52.3736 65.216C51.0776 65.216 50.0156 64.796 49.1876 63.956C48.3596 63.104 47.9456 62 47.9456 60.644C47.9456 59.372 48.3536 58.298 49.1696 57.422C49.9856 56.534 51.0056 56.09 52.2296 56.09C53.5136 56.09 54.5276 56.534 55.2716 57.422C56.0276 58.298 56.4056 59.408 56.4056 60.752V61.094H49.3676C49.4276 61.946 49.7396 62.66 50.3036 63.236C50.8676 63.812 51.5996 64.1 52.4996 64.1C53.5796 64.1 54.4736 63.734 55.1816 63.002L55.8296 63.884C54.9416 64.772 53.7896 65.216 52.3736 65.216ZM55.0736 60.104C55.0616 59.36 54.8096 58.694 54.3176 58.106C53.8256 57.506 53.1236 57.206 52.2116 57.206C51.3476 57.206 50.6636 57.5 50.1596 58.088C49.6676 58.676 49.4036 59.348 49.3676 60.104H55.0736ZM61.3462 65.216C59.8702 65.216 58.7002 64.76 57.8362 63.848L58.5382 62.876C58.8382 63.224 59.2462 63.518 59.7622 63.758C60.2902 63.998 60.8362 64.118 61.4002 64.118C62.0482 64.118 62.5522 63.98 62.9122 63.704C63.2722 63.428 63.4522 63.068 63.4522 62.624C63.4522 62.24 63.2662 61.94 62.8942 61.724C62.5222 61.496 62.0722 61.328 61.5442 61.22C61.0282 61.1 60.5062 60.968 59.9782 60.824C59.4502 60.668 59.0002 60.41 58.6282 60.05C58.2562 59.678 58.0702 59.192 58.0702 58.592C58.0702 57.884 58.3582 57.29 58.9342 56.81C59.5222 56.33 60.3142 56.09 61.3102 56.09C62.6182 56.09 63.6922 56.51 64.5322 57.35L63.9022 58.286C63.2902 57.554 62.4262 57.188 61.3102 57.188C60.7222 57.188 60.2542 57.32 59.9062 57.584C59.5582 57.836 59.3842 58.16 59.3842 58.556C59.3842 58.904 59.5702 59.18 59.9422 59.384C60.3142 59.576 60.7582 59.732 61.2742 59.852C61.8022 59.96 62.3302 60.092 62.8582 60.248C63.3862 60.404 63.8362 60.68 64.2082 61.076C64.5802 61.46 64.7662 61.964 64.7662 62.588C64.7662 63.356 64.4662 63.986 63.8662 64.478C63.2662 64.97 62.4262 65.216 61.3462 65.216ZM69.1554 65.216C68.5194 65.216 68.0394 65.042 67.7154 64.694C67.3914 64.346 67.2294 63.842 67.2294 63.182V57.494H65.7894V56.306H67.2294V53.93H68.5794V56.306H70.3434V57.494H68.5794V62.894C68.5794 63.23 68.6514 63.5 68.7954 63.704C68.9514 63.908 69.1734 64.01 69.4614 64.01C69.8574 64.01 70.1634 63.89 70.3794 63.65L70.7754 64.658C70.3794 65.03 69.8394 65.216 69.1554 65.216ZM83.677 65H82.327V64.01C81.595 64.814 80.635 65.216 79.447 65.216C78.643 65.216 77.935 64.958 77.323 64.442C76.711 63.926 76.405 63.224 76.405 62.336C76.405 61.424 76.705 60.722 77.305 60.23C77.917 59.726 78.631 59.474 79.447 59.474C80.683 59.474 81.643 59.87 82.327 60.662V59.096C82.327 58.52 82.123 58.07 81.715 57.746C81.307 57.422 80.779 57.26 80.131 57.26C79.111 57.26 78.223 57.662 77.467 58.466L76.837 57.53C77.761 56.57 78.919 56.09 80.311 56.09C81.307 56.09 82.117 56.33 82.741 56.81C83.365 57.29 83.677 58.028 83.677 59.024V65ZM79.933 64.244C81.013 64.244 81.811 63.884 82.327 63.164V61.526C81.811 60.806 81.013 60.446 79.933 60.446C79.309 60.446 78.793 60.626 78.385 60.986C77.989 61.334 77.791 61.79 77.791 62.354C77.791 62.906 77.989 63.362 78.385 63.722C78.793 64.07 79.309 64.244 79.933 64.244ZM94.8578 65.216C93.5738 65.216 92.5298 64.784 91.7258 63.92C90.9218 63.044 90.5198 61.952 90.5198 60.644C90.5198 59.336 90.9218 58.25 91.7258 57.386C92.5298 56.522 93.5738 56.09 94.8578 56.09C96.2018 56.09 97.2638 56.594 98.0438 57.602L97.1438 58.43C96.5918 57.674 95.8538 57.296 94.9298 57.296C94.0178 57.296 93.2858 57.608 92.7338 58.232C92.1938 58.856 91.9238 59.66 91.9238 60.644C91.9238 61.628 92.1938 62.438 92.7338 63.074C93.2858 63.698 94.0178 64.01 94.9298 64.01C95.8418 64.01 96.5798 63.632 97.1438 62.876L98.0438 63.704C97.2638 64.712 96.2018 65.216 94.8578 65.216ZM106.722 65H105.372V64.01C104.64 64.814 103.68 65.216 102.492 65.216C101.688 65.216 100.98 64.958 100.368 64.442C99.7559 63.926 99.4499 63.224 99.4499 62.336C99.4499 61.424 99.7499 60.722 100.35 60.23C100.962 59.726 101.676 59.474 102.492 59.474C103.728 59.474 104.688 59.87 105.372 60.662V59.096C105.372 58.52 105.168 58.07 104.76 57.746C104.352 57.422 103.824 57.26 103.176 57.26C102.156 57.26 101.268 57.662 100.512 58.466L99.8819 57.53C100.806 56.57 101.964 56.09 103.356 56.09C104.352 56.09 105.162 56.33 105.786 56.81C106.41 57.29 106.722 58.028 106.722 59.024V65ZM102.978 64.244C104.058 64.244 104.856 63.884 105.372 63.164V61.526C104.856 60.806 104.058 60.446 102.978 60.446C102.354 60.446 101.838 60.626 101.43 60.986C101.034 61.334 100.836 61.79 100.836 62.354C100.836 62.906 101.034 63.362 101.43 63.722C101.838 64.07 102.354 64.244 102.978 64.244ZM110.778 65H109.428V52.994H110.778V65ZM114.821 65H113.471V52.994H114.821V65Z" fill="#3586FF"/>
</svg>
