<svg width="40" height="31" viewBox="0 0 40 31" fill="none" xmlns="http://www.w3.org/2000/svg">
<path d="M16.758 13.3412L19.2363 8.62124M11.5227 2.90419C17.7218 6.15499 23.8262 13.1925 23.5125 13.7899C23.2887 14.216 18.4408 13.9519 13.4295 12.5855M11.5227 2.90419C5.32359 -0.346612 1.37717 1.42029 1.06351 2.01766C0.749834 2.61506 1.39962 7.12662 7.59874 10.3774M11.5227 2.90419L15.6312 2.17431L20.3145 4.33763C20.6795 4.50497 20.6534 5.03153 20.2737 5.16164L16.6813 6.39228M13.4295 12.5855L14.652 16.931C14.6904 17.0673 14.5425 17.1807 14.4207 17.1083L9.36664 14.1053L7.59874 10.3774M13.4295 12.5855C11.4158 12.0364 9.37571 11.3093 7.59874 10.3774M26.3009 13.2418C28.56 14.0051 34.588 15.856 39 23.9389M25.304 15.3829C27.545 16.1985 35.9152 20.8285 38.3651 30M24.4168 17.7324C26.9694 18.8538 31.7257 22.0112 34.2951 29.8543M7.54008 3.87261C8.26326 4.25184 8.54163 5.14445 8.16279 5.86594C7.78395 6.58746 6.89081 6.8657 6.16762 6.48646C5.44441 6.10721 5.16606 5.21465 5.5449 4.49313C5.92374 3.77163 6.81687 3.49336 7.54008 3.87261Z" stroke="#3586FF"/>
</svg>
