<svg width="35" height="40" viewBox="0 0 35 40" fill="none" xmlns="http://www.w3.org/2000/svg">
<path d="M17.0133 17.7421L14.5067 6.09376C13.5092 1.45822 8.09967 -0.650512 4.22799 2.08692L2.83736 3.07015C1.41718 4.07427 0.771377 5.85577 1.21821 7.53669C2.11153 10.8973 6.48826 11.7447 8.57134 8.96039L9.54187 7.66316C10.2789 6.67802 11.7963 6.81813 12.3405 7.92158L16.1761 15.6992M23.1929 25.0511L22.8242 23.7485M24.9077 31.109L25.3416 32.6419M25.6934 25.7676C25.2103 24.0608 21.487 25.1092 21.5612 27.851M22.5579 31.1458C23.4532 32.2793 27.1909 30.6057 26.5933 28.4947C26.428 27.9107 25.9309 27.1893 24.0154 28.179C21.8442 29.3007 21.5312 27.9694 21.5535 27.5975M20.9587 37.2573L10.1466 19.864L21.5535 11.8725L33.181 30.206C33.9737 31.4465 33.4403 32.706 32.2408 33.4966L24.9077 38.1975C23.7082 38.9881 21.7514 38.4979 20.9587 37.2573ZM18.4541 17.9764C18.6248 18.5025 18.3487 19.0635 17.8373 19.2295C17.3258 19.3955 16.7728 19.1036 16.6021 18.5775C16.4314 18.0514 16.7075 17.4903 17.219 17.3244C17.7304 17.1584 18.2834 17.4503 18.4541 17.9764Z" stroke="#3586FF"/>
</svg>
