<svg width="28" height="34" viewBox="0 0 28 34" fill="none" xmlns="http://www.w3.org/2000/svg">
<path d="M8.18024 7.85716C8.18024 4.17051 10.1196 1 13.9984 1C18.2056 1 19.6371 3.70968 19.8166 7.85716M2.97985 7.64341H25.2408L26.6831 31.1132C26.7459 32.136 25.9334 33 24.9086 33H3.106C2.07511 33 1.26036 32.126 1.33258 31.0977L2.97985 7.64341ZM19.818 13.5715C19.818 14.2027 19.2971 14.7143 18.6544 14.7143C18.0117 14.7143 17.4908 14.2027 17.4908 13.5715C17.4908 12.9403 18.0117 12.4286 18.6544 12.4286C19.2971 12.4286 19.818 12.9403 19.818 13.5715ZM10.5076 13.5715C10.5076 14.2027 9.98663 14.7143 9.34397 14.7143C8.70131 14.7143 8.18033 14.2027 8.18033 13.5715C8.18033 12.9403 8.70131 12.4286 9.34397 12.4286C9.98663 12.4286 10.5076 12.9403 10.5076 13.5715Z" stroke="#3586FF"/>
</svg>
