<svg width="120" height="121" viewBox="0 0 120 121" fill="none" xmlns="http://www.w3.org/2000/svg">
<g clip-path="url(#clip0_6333_52785)">
<path d="M53.2157 88.2168H45.1034C43.4809 71.1165 51.8636 66.8414 56.2578 66.8414H56.7648V69.3861M53.2157 88.2168V78.038M53.2157 88.2168H66.3981M66.3981 88.2168V78.038M66.3981 88.2168H75.0174C76.0315 81.0916 74.916 66.8414 62.342 66.8414H61.835V69.3861M61.835 69.3861H56.7648M61.835 69.3861L61.8345 65.5447M56.7648 69.3861L56.7643 65.4459M56.7398 69.3963H56.532C56.3793 69.3963 56.2556 69.5205 56.2556 69.6738V72.6709C56.2556 72.8241 56.3793 72.9484 56.532 72.9484H62.0634C62.216 72.9484 62.3398 72.8241 62.3398 72.6709V69.6738C62.3398 69.5205 62.216 69.3963 62.0634 69.3963H61.8559M48.1493 50.5553C46.7492 50.5553 46.1212 51.6946 46.1212 53.1C46.1212 54.5054 46.7492 55.6447 48.1493 55.6447C48.3877 55.6381 48.924 55.5602 49.1618 55.3012V56.1789C49.1618 59.0532 50.4838 61.7665 52.7441 63.5311C53.3951 64.0394 54.1107 64.4582 54.872 64.7766L56.042 65.266C58.4445 66.2708 61.1551 66.2275 63.5245 65.1464L64.3356 64.7763C65.0337 64.4578 65.6922 64.0581 66.2975 63.5856C68.6099 61.7802 69.9967 59.0314 70.078 56.0919V55.408C70.1613 55.4869 70.4545 55.6447 70.9619 55.6447C72.362 55.6447 72.99 54.5054 72.99 53.1C72.99 51.6946 72.362 50.5553 70.9619 50.5553C70.3156 50.5553 69.53 51.0271 69.7268 52.0147C69.3333 51.5209 68.8413 51.5209 68.1526 52.2122C68.1526 47.1228 69.4383 44.4481 67.4103 43.9392C64.7614 43.2744 63.1537 45.3978 56.5429 45.3978C52.7058 45.3978 51.5554 43.8327 50.5413 43.3238L50.9349 52.0147C50.6397 51.7184 49.772 51.7184 49.2623 52.0147C49.2623 50.5553 48.7558 50.5553 48.1493 50.5553ZM48.1493 50.5553C47.3042 47.5017 46.5211 40.9873 50.1716 39.3587C48.4815 38.6801 45.7098 36.5087 48.1435 33.2515C49.1576 34.6086 54.025 37.0176 65.3822 35.7962C67.5793 35.2872 71.5678 35.389 69.9454 39.8677C71.2974 40.207 73.4945 42.8195 71.4664 50.5554M70.078 29.5092C77.9995 31.0295 88.7587 39.8677 91.2146 53.1M102.202 60.8511C102.202 84.1028 83.3528 102.952 60.1011 102.952C36.8493 102.952 18 84.1028 18 60.8511C18 37.5993 36.8493 18.75 60.1011 18.75C83.3528 18.75 102.202 37.5993 102.202 60.8511ZM57.2712 72.9484L55.2431 81.6004L59.8063 86.6898L63.8624 81.6004L61.3273 72.9484H57.2712ZM98.2259 60.7341C98.2259 81.8545 81.1045 98.9759 59.9841 98.9759C38.8637 98.9759 21.7423 81.8545 21.7423 60.7341C21.7423 39.6138 38.8637 22.4923 59.9841 22.4923C81.1045 22.4923 98.2259 39.6138 98.2259 60.7341Z" stroke="url(#paint0_linear_6333_52785)"/>
<path d="M94 35L102 28.5L109 30.5L143.5 5L129 -7.5L99 17.5V24.5L90 31.5" stroke="url(#paint1_linear_6333_52785)"/>
<path d="M30.3016 78.3077C31.2787 76.6154 33.7213 76.6154 34.6984 78.3077L54.1173 111.942C55.0944 113.635 53.8731 115.75 51.919 115.75H13.081C11.1269 115.75 9.90562 113.635 10.8827 111.942L30.3016 78.3077Z" fill="white" stroke="url(#paint2_linear_6333_52785)"/>
<path d="M32.5 103.015V89.308" stroke="url(#paint3_linear_6333_52785)"/>
<path d="M32.5 108.981V106.866" stroke="url(#paint4_linear_6333_52785)"/>
</g>
<defs>
<linearGradient id="paint0_linear_6333_52785" x1="18" y1="10.4802" x2="156.059" y2="40.2542" gradientUnits="userSpaceOnUse">
<stop stop-color="#3586FF"/>
<stop offset="1" stop-color="#83E0B3"/>
</linearGradient>
<linearGradient id="paint1_linear_6333_52785" x1="143.5" y1="39.1741" x2="58.002" y2="15.9632" gradientUnits="userSpaceOnUse">
<stop stop-color="#3586FF"/>
<stop offset="1" stop-color="#83E0B3"/>
</linearGradient>
<linearGradient id="paint2_linear_6333_52785" x1="5" y1="69.0982" x2="95.1789" y2="88.5463" gradientUnits="userSpaceOnUse">
<stop stop-color="#3586FF"/>
<stop offset="1" stop-color="#83E0B3"/>
</linearGradient>
<linearGradient id="paint3_linear_6333_52785" x1="32.5" y1="87.9617" x2="34.2155" y2="87.9887" gradientUnits="userSpaceOnUse">
<stop stop-color="#3586FF"/>
<stop offset="1" stop-color="#83E0B3"/>
</linearGradient>
<linearGradient id="paint4_linear_6333_52785" x1="32.5" y1="106.658" x2="34.1982" y2="106.831" gradientUnits="userSpaceOnUse">
<stop stop-color="#3586FF"/>
<stop offset="1" stop-color="#83E0B3"/>
</linearGradient>
<clipPath id="clip0_6333_52785">
<rect width="120" height="120" fill="white" transform="translate(0 0.5)"/>
</clipPath>
</defs>
</svg>
