<svg width="120" height="121" viewBox="0 0 120 121" fill="none" xmlns="http://www.w3.org/2000/svg">
<path d="M51.7438 93.3168H41.8973C39.928 72.5609 50.1027 67.372 55.4362 67.372H56.0516V70.4606M51.7438 93.3168V80.9621M51.7438 93.3168H67.7443M67.7443 93.3168V80.9621M67.7443 93.3168H78.2061C79.4369 84.6685 78.083 67.372 62.821 67.372H62.2056V70.4606M62.2056 70.4606H56.0516M62.2056 70.4606L62.205 65.798M56.0516 70.4606L56.051 65.6781M56.0213 70.4731H55.769C55.5837 70.4731 55.4335 70.6238 55.4335 70.8098V74.4476C55.4335 74.6336 55.5837 74.7844 55.769 74.7844H62.4828C62.6681 74.7844 62.8183 74.6336 62.8183 74.4476V70.8098C62.8183 70.6238 62.6681 70.4731 62.4828 70.4731H62.2311M45.5943 47.6044C43.8949 47.6044 43.1327 48.9872 43.1327 50.693C43.1327 52.3989 43.8949 53.7817 45.5943 53.7817C45.8837 53.7737 46.5347 53.6791 46.8233 53.3648V54.4301C46.8233 57.9188 48.428 61.2121 51.1714 63.354C51.9616 63.9709 52.8302 64.4793 53.7542 64.8658L55.1743 65.4597C58.0904 66.6794 61.3804 66.6268 64.2564 65.3146L65.2409 64.8654C66.0882 64.4788 66.8874 63.9937 67.6221 63.4201C70.4288 61.2289 72.1121 57.8924 72.2108 54.3246V53.4944C72.3118 53.5902 72.6678 53.7817 73.2837 53.7817C74.9831 53.7817 75.7453 52.3989 75.7453 50.693C75.7453 48.9872 74.9831 47.6044 73.2837 47.6044C72.4992 47.6044 71.5457 48.177 71.7845 49.3757C71.3069 48.7763 70.7098 48.7763 69.8738 49.6154C69.8738 43.4381 71.4344 40.1916 68.9728 39.5739C65.7577 38.7671 63.8063 41.3443 55.7823 41.3443C51.125 41.3443 49.7285 39.4447 48.4977 38.827L48.9754 49.3757C48.6171 49.0161 47.564 49.0161 46.9453 49.3757C46.9453 47.6044 46.3305 47.6044 45.5943 47.6044ZM45.5943 47.6044C44.5686 43.898 43.618 35.991 48.049 34.0143C45.9976 33.1906 42.6334 30.555 45.5873 26.6015C46.8182 28.2488 52.7261 31.1727 66.5111 29.6901C69.1779 29.0724 74.0191 29.196 72.0498 34.632C73.6909 35.0438 76.3576 38.2149 73.896 47.6044M111.202 60.1011C111.202 88.3234 88.3234 111.202 60.1011 111.202C31.8787 111.202 9 88.3234 9 60.1011C9 31.8787 31.8787 9 60.1011 9C88.3234 9 111.202 31.8787 111.202 60.1011ZM56.6663 74.7845L54.2046 85.286L59.7433 91.4633L64.6665 85.286L61.5895 74.7845H56.6663Z" stroke="url(#paint0_linear_4486_39824)"/>
<path d="M111 90.5C111 101.822 101.822 111 90.5 111C79.1782 111 70 101.822 70 90.5C70 79.1782 79.1782 70 90.5 70C101.822 70 111 79.1782 111 90.5Z" fill="white"/>
<path d="M87.0872 100.78L78.6113 92.4828C78.1021 91.9844 78.1021 90.7165 78.6113 90.2179L80.1426 88.8723C80.6518 88.3737 81.7903 88.3737 82.2995 88.8723L88.0092 94.4617L99.5672 83.3058C100.076 82.8073 101.429 82.8073 101.938 83.3058L103.123 84.4957C103.633 84.9942 103.633 86.3769 103.123 86.8755L88.9313 100.78C88.422 101.279 87.5964 101.279 87.0872 100.78Z" fill="white"/>
<path d="M111 90.5C111 101.822 101.822 111 90.5 111C79.1782 111 70 101.822 70 90.5C70 79.1782 79.1782 70 90.5 70C101.822 70 111 79.1782 111 90.5Z" stroke="url(#paint1_linear_4486_39824)"/>
<path d="M87.0872 100.78L78.6113 92.4828C78.1021 91.9844 78.1021 90.7165 78.6113 90.2179L80.1426 88.8723C80.6518 88.3737 81.7903 88.3737 82.2995 88.8723L88.0092 94.4617L99.5672 83.3058C100.076 82.8073 101.429 82.8073 101.938 83.3058L103.123 84.4957C103.633 84.9942 103.633 86.3769 103.123 86.8755L88.9313 100.78C88.422 101.279 87.5964 101.279 87.0872 100.78Z" stroke="url(#paint2_linear_4486_39824)"/>
<defs>
<linearGradient id="paint0_linear_4486_39824" x1="9" y1="-1.0377" x2="176.572" y2="35.1011" gradientUnits="userSpaceOnUse">
<stop stop-color="#3586FF"/>
<stop offset="1" stop-color="#83E0B3"/>
</linearGradient>
<linearGradient id="paint1_linear_4486_39824" x1="70" y1="65.9732" x2="137.224" y2="80.4709" gradientUnits="userSpaceOnUse">
<stop stop-color="#3586FF"/>
<stop offset="1" stop-color="#83E0B3"/>
</linearGradient>
<linearGradient id="paint2_linear_4486_39824" x1="70" y1="65.9732" x2="137.224" y2="80.4709" gradientUnits="userSpaceOnUse">
<stop stop-color="#3586FF"/>
<stop offset="1" stop-color="#83E0B3"/>
</linearGradient>
</defs>
</svg>
