<svg width="20" height="20" viewBox="0 0 20 20" fill="none" xmlns="http://www.w3.org/2000/svg">
<path d="M20 10C20 14.8967 16.4804 18.9714 11.8327 19.8322C11.2388 19.9425 10.6261 20 10 20C9.31183 20 8.64 19.9306 7.99101 19.798C3.43102 18.8682 0 14.8347 0 10C0 7.33429 1.04328 4.91144 2.74406 3.11918C2.84242 3.01512 2.94324 2.91348 3.04609 2.81387C4.8457 1.07184 7.29754 0 10 0C12.7025 0 15.1543 1.07184 16.9539 2.81387C16.9963 2.85469 17.0384 2.89633 17.08 2.93793C18.8845 4.74652 20 7.24328 20 10Z" fill="#1BA27A"/>
<path d="M11.833 8.50896V6.2804H17.0803V2.81384H2.7444V6.28036H7.99136V8.51751C3.753 8.73423 0.577881 9.6224 0.577881 10.6853C0.577881 11.7481 3.753 12.6363 7.99136 12.8531V19.7979C8.64034 19.9306 9.31218 20 10.0003 20C10.6265 20 11.2391 19.9424 11.833 19.8322V12.8616C16.1595 12.6608 19.4228 11.7628 19.4228 10.6853C19.4228 9.60775 16.1595 8.70978 11.833 8.50896ZM10.0003 12.0551C5.27257 12.0551 1.43995 11.3429 1.43995 10.4641C1.43995 9.71388 4.233 9.0849 7.99139 8.91712V11.4653C8.62854 11.5571 9.27057 11.6033 9.91222 11.6033C10.5542 11.6033 11.1963 11.5571 11.833 11.4653V8.90935C15.68 9.06568 18.5604 9.702 18.5604 10.464C18.5603 11.3428 14.7277 12.0551 10.0003 12.0551Z" fill="#F0EFEB"/>
</svg>
