<svg width="24" height="24" viewBox="0 0 24 24" fill="none" xmlns="http://www.w3.org/2000/svg">
<rect width="24" height="24" fill="white"/>
<path d="M1.11669 14.992C-0.606884 9.16646 2.70472 3.00132 8.51337 1.22175C14.322 -0.557818 20.4281 2.72206 22.1517 8.54757C23.8752 14.3731 20.5636 20.5382 14.755 22.3178C8.94633 24.0973 2.84026 20.8175 1.11669 14.992ZM20.7956 8.96303C19.2942 3.88864 13.9755 1.03166 8.91575 2.58178C3.85605 4.13189 0.971435 9.50212 2.47278 14.5765C3.97412 19.6509 9.29289 22.5079 14.3526 20.9578C19.4123 19.4076 22.2969 14.0374 20.7956 8.96303Z" fill="#3586FF"/>
<path d="M10.0758 8.25465L10.0479 12.4315L16.1169 12.3918" stroke="#3586FF" stroke-width="1.6"/>
</svg>
