<svg width="26" height="24" viewBox="0 0 26 24" fill="none" xmlns="http://www.w3.org/2000/svg">
<rect x="12.7065" y="3.42578" width="0.5" height="20.3238" stroke="url(#paint0_linear_3157_38041)" stroke-width="0.5"/>
<path d="M5.42676 0.667969L20.4388 6.19429" stroke="#3586FF"/>
<path d="M10.0487 9.55078C9.75136 11.3378 7.88456 12.8223 5.46183 12.8223C3.0391 12.8223 1.1723 11.3378 0.87493 9.55078H10.0487Z" stroke="url(#paint1_linear_3157_38041)"/>
<path d="M0.567383 9.3191L5.46261 1.04297L10.3578 9.3191" stroke="#3586FF"/>
<path d="M24.9667 14.8906C24.6693 16.6776 22.8025 18.1622 20.3798 18.1622C17.9571 18.1622 16.0903 16.6776 15.7929 14.8906H24.9667Z" stroke="url(#paint2_linear_3157_38041)"/>
<path d="M15.4854 14.6589L20.3806 6.38281L25.2758 14.6589" stroke="#3586FF"/>
<defs>
<linearGradient id="paint0_linear_3157_38041" x1="12.4565" y1="1.13059" x2="14.1722" y2="1.14836" gradientUnits="userSpaceOnUse">
<stop stop-color="#3586FF"/>
<stop offset="1" stop-color="#83E0B3"/>
</linearGradient>
<linearGradient id="paint1_linear_3157_38041" x1="0.333496" y1="8.63125" x2="14.2113" y2="15.8177" gradientUnits="userSpaceOnUse">
<stop stop-color="#3586FF"/>
<stop offset="1" stop-color="#83E0B3"/>
</linearGradient>
<linearGradient id="paint2_linear_3157_38041" x1="15.2515" y1="13.9711" x2="29.1292" y2="21.1575" gradientUnits="userSpaceOnUse">
<stop stop-color="#3586FF"/>
<stop offset="1" stop-color="#83E0B3"/>
</linearGradient>
</defs>
</svg>
