<svg width="40" height="40" viewBox="0 0 40 40" fill="none" xmlns="http://www.w3.org/2000/svg">
<path d="M7.85262 19.1796L20.3441 23.529M7.85262 19.1796L5.409 22.849C5.35124 22.9356 5.39472 23.0474 5.5007 23.0845L8.12868 24.0047M7.85262 19.1796L11.2793 18M34.2159 19.1796L36.5918 22.8463C36.6486 22.9343 36.6026 23.0461 36.4951 23.0812L33.6821 24.0047M34.2159 19.1796L20.3441 23.529M34.2159 19.1796L30.7203 18M20.3441 23.529L23.3671 27.2613C23.4159 27.3217 23.5044 27.3456 23.5831 27.3197L33.6821 24.0047M20.3441 23.529L17.8029 27.2446C17.756 27.3131 17.6597 27.3417 17.5753 27.3122L8.12868 24.0047M20.3441 23.529V37.3214M8.12868 24.0047V32.8612C8.12868 32.9281 8.17469 32.9885 8.24498 33.0134L20.3441 37.3214M33.6821 24.0047L33.8683 32.855C33.8698 32.9248 33.8208 32.9882 33.746 33.0121L20.3441 37.3214" stroke="url(#paint0_linear_3157_38347)"/>
<path d="M31 19.9179V8H11V20" stroke="url(#paint1_linear_3157_38347)"/>
<path d="M20.6464 21.3536C20.8417 21.5488 21.1583 21.5488 21.3536 21.3536L24.5355 18.1716C24.7308 17.9763 24.7308 17.6597 24.5355 17.4645C24.3403 17.2692 24.0237 17.2692 23.8284 17.4645L21 20.2929L18.1716 17.4645C17.9763 17.2692 17.6597 17.2692 17.4645 17.4645C17.2692 17.6597 17.2692 17.9763 17.4645 18.1716L20.6464 21.3536ZM20.5 11V21H21.5V11H20.5Z" fill="#3586FF"/>
<defs>
<linearGradient id="paint0_linear_3157_38347" x1="5.3833" y1="16.1024" x2="53.1678" y2="32.7608" gradientUnits="userSpaceOnUse">
<stop stop-color="#3586FF"/>
<stop offset="1" stop-color="#83E0B3"/>
</linearGradient>
<linearGradient id="paint1_linear_3157_38347" x1="11" y1="6.82143" x2="41.3912" y2="17.7451" gradientUnits="userSpaceOnUse">
<stop stop-color="#3586FF"/>
<stop offset="1" stop-color="#83E0B3"/>
</linearGradient>
</defs>
</svg>
