<svg width="121" height="120" viewBox="0 0 121 120" fill="none" xmlns="http://www.w3.org/2000/svg">
<g clip-path="url(#clip0_3648_51669)" >
<path d="M19.748 51.6456L58.9427 66.9303M19.748 51.6456L12.0806 64.5404C11.8994 64.8448 12.0358 65.2379 12.3684 65.3682L20.6142 68.6019M19.748 51.6456L30.5 47.5M102.468 51.6456L109.923 64.5312C110.102 64.8402 109.957 65.2333 109.62 65.3566L100.793 68.6019M102.468 51.6456L58.9427 66.9303M102.468 51.6456L91.5 47.5M58.9427 66.9303L68.4278 80.0464C68.581 80.2585 68.8587 80.3427 69.1056 80.2516L100.793 68.6019M58.9427 66.9303L50.9692 79.9876C50.8219 80.2285 50.5198 80.3288 50.255 80.2251L20.6142 68.6019M58.9427 66.9303V115.4M20.6142 68.6019V99.7257C20.6142 99.9609 20.7586 100.173 20.9791 100.261L58.9427 115.4M100.793 68.6019L101.378 99.7038C101.382 99.9494 101.228 100.172 100.994 100.256L58.9427 115.4" stroke="url(#paint0_linear_3648_51669)" stroke-width="3"/>
<path d="M87 20.5L30.5 21V56M91.5 55.7604V28.5" stroke="url(#paint1_linear_3648_51669)" stroke-width="3"/>
<path d="M81.3347 9.41936C81.0194 9.58435 80.7063 9.90244 80.4201 10.2721C79.7094 11.1898 79.8879 11.4236 79.8879 11.4236" stroke="url(#paint2_linear_3648_51669)" stroke-miterlimit="10" stroke-linejoin="round" />
<path d="M96.7084 5.19687L100.185 4.63408C100.185 4.63408 101.923 4.3527 105.688 5.51448C107.372 6.03406 112.192 5.34726 113.655 5.11048C115.393 4.82909 114.889 4.02508 116.118 3.82611C117.856 3.54471 118.664 10.2213 117.847 14.1735C117.533 15.6907 116.248 20.6316 114.221 19.1884C111.956 17.5749 109.006 20.0326 105.093 23.3229C101.179 26.6132 96.0131 28.4059 96.0131 28.4059C95.287 28.5234 92.774 28.2387 91.7738 28.4617C87.9847 29.3066 87.4556 28.8989 86.0804 29.1215C85.2219 29.2605 83.6195 29.3015 82.3203 29.3811C81.5176 29.4303 80.7347 29.0537 80.2722 28.4015C79.8518 27.8088 79.3405 27.1653 79 27C73.3103 24.2391 74.5 23.5 74.5 23.5C78 21.5 81.4268 22.4985 82.5123 24.6361C84.2745 24.3599 85.683 24.0764 86.808 23.7966C90.183 22.9573 89.2435 20.9033 85.8321 20.2416V20.2416C85.8321 20.2416 84.3189 20.2626 82.2425 18.7277C79.5439 20.1087 76.2921 20.7867 74.5 20.5M68 20.6554C68.5 20.2416 69.6173 19.3716 70.5 18.5C71.5354 17.4776 72.8957 15.5867 74.4511 15.5093C74.4511 15.5093 76.3365 13.3187 77.4382 12.7443C80.4874 11.1545 80.1234 11.4119 84.8283 8.8912C85.7828 8.37979 86.2785 6.88524 90.0433 8.04701" stroke="url(#paint3_linear_3648_51669)" stroke-miterlimit="10" stroke-linejoin="round" stroke-width="3" />
<path d="M74.4414 15.4867C76.7047 15.1201 78.6489 14.3059 84.3771 11.5968C87.2449 8.94214 89.0837 10.2855 90.6623 10.4756M98.426 4.89487C98.426 4.89487 94.951 5.45771 92.2008 5.01786C91.487 4.90372 88.1713 4.57534 87.7132 4.85944C86.0372 5.89889 85.2066 7.41601 81.3391 9.433" stroke="url(#paint4_linear_3648_51669)" stroke-miterlimit="10" stroke-linejoin="round" stroke-width="3"/>
<path d="M59.8536 34.6464C59.6583 34.4512 59.3417 34.4512 59.1464 34.6464L55.9645 37.8284C55.7692 38.0237 55.7692 38.3403 55.9645 38.5355C56.1597 38.7308 56.4763 38.7308 56.6716 38.5355L59.5 35.7071L62.3284 38.5355C62.5237 38.7308 62.8403 38.7308 63.0355 38.5355C63.2308 38.3403 63.2308 38.0237 63.0355 37.8284L59.8536 34.6464ZM60 55L60 35L59 35L59 55L60 55Z" fill="#3586FF" />
</g>
<defs >
<linearGradient id="paint0_linear_3648_51669" x1="12" y1="40.8313" x2="165.303" y2="88.5489" gradientUnits="userSpaceOnUse" >
<stop stop-color="#3586FF"/>
<stop offset="1" stop-color="#83E0B3" />
</linearGradient>
<linearGradient id="paint1_linear_3648_51669" x1="30.5" y1="17.0134" x2="122.53" y2="51.1173" gradientUnits="userSpaceOnUse">
<stop stop-color="#3586FF"/>
<stop offset="1" stop-color="#83E0B3"/>
</linearGradient>
<linearGradient id="paint2_linear_3648_51669" x1="79.6678" y1="11.2666" x2="81.4174" y2="11.6059" gradientUnits="userSpaceOnUse">
<stop stop-color="#3586FF"/>
<stop offset="1" stop-color="#83E0B3"/>
</linearGradient>
<linearGradient id="paint3_linear_3648_51669" x1="64.9712" y1="18.4984" x2="117.632" y2="-27.4789" gradientUnits="userSpaceOnUse">
<stop stop-color="#3586FF"/>
<stop offset="1" stop-color="#83E0B3"/>
</linearGradient>
<linearGradient id="paint4_linear_3648_51669" x1="73.3828" y1="14.7327" x2="103.436" y2="-5.78443" gradientUnits="userSpaceOnUse">
<stop stop-color="#3586FF"/>
<stop offset="1" stop-color="#83E0B3"/>
</linearGradient>
<clipPath id="clip0_3648_51669">
<rect width="120" height="120" fill="white" transform="translate(0.5)"/>
</clipPath>
</defs>
</svg>
