<svg width="38" height="38" viewBox="0 0 38 38" fill="none" xmlns="http://www.w3.org/2000/svg">
<rect width="38" height="38" rx="4" fill="#3586FF"/>
<mask id="path-2-outside-1_2377_26391" maskUnits="userSpaceOnUse" x="8" y="9" width="24" height="19" fill="black">
<rect fill="white" x="8" y="9" width="24" height="19"/>
<path d="M16.7097 26.6512L9.33241 18.9103C8.8892 18.4453 8.8892 17.2624 9.33241 16.7973L10.6653 15.5419C11.1085 15.0768 12.0993 15.0768 12.5426 15.5419L17.5123 20.7565L27.5722 10.3488C28.0154 9.88373 29.1926 9.88374 29.6358 10.3488L30.6676 11.4589C31.1108 11.9239 31.1108 13.2139 30.6676 13.679L18.3148 26.6512C17.8716 27.1163 17.1529 27.1163 16.7097 26.6512Z"/>
</mask>
<path d="M16.7097 26.6512L9.33241 18.9103C8.8892 18.4453 8.8892 17.2624 9.33241 16.7973L10.6653 15.5419C11.1085 15.0768 12.0993 15.0768 12.5426 15.5419L17.5123 20.7565L27.5722 10.3488C28.0154 9.88373 29.1926 9.88374 29.6358 10.3488L30.6676 11.4589C31.1108 11.9239 31.1108 13.2139 30.6676 13.679L18.3148 26.6512C17.8716 27.1163 17.1529 27.1163 16.7097 26.6512Z" stroke="white" stroke-width="2" mask="url(#path-2-outside-1_2377_26391)"/>
</svg>
