<svg width="89" height="130" viewBox="0 0 89 130" fill="none" xmlns="http://www.w3.org/2000/svg">
<path d="M9.30777 8.76938V122H79.4616M9.30777 8.76938V1.38477H88.077V122H79.4616M9.30777 8.76938H0.692383V129.385H79.4616V122M68.077 42.6155C68.077 53.6612 59.1227 62.6155 48.077 62.6155C37.0313 62.6155 27.917 54.6342 27.917 43.5886H48.077V22.6155C59.1227 22.6155 68.077 31.5699 68.077 42.6155Z" stroke="#3586FF"/>
<path d="M45.8374 41.3182L45.8375 20.5615C35.0304 21.3701 26.3173 33.5344 26.3174 41.3182H45.8374Z" stroke="url(#paint0_linear_5899_47305)"/>
<path d="M34.6923 82.8462C34.6923 83.8657 33.5259 84.6923 32.8462 84.6923C32.1664 84.6923 31 83.8657 31 82.8462C31 81.8265 32.1664 81 32.8462 81C33.5259 81 34.6923 81.8265 34.6923 82.8462Z" fill="#61BFB8" stroke="url(#paint1_linear_5899_47305)"/>
<path d="M57.3075 104.154C57.3075 105.173 56.481 106 55.4614 106C54.4418 106 53.6152 105.173 53.6152 104.154C53.6152 103.133 54.4418 102.308 55.4614 102.308C56.481 102.308 57.3075 103.133 57.3075 104.154Z" fill="#61BFB8"/>
<path d="M74.5385 76.0099C74.5385 77.0294 73.372 77.8559 72.6923 77.8559C72.0126 77.8559 70.8462 77.0293 70.8462 76.0097C70.8462 74.9902 72.0126 74.1636 72.6923 74.1636C73.372 74.1636 74.5385 74.9903 74.5385 76.0099Z" fill="#61BFB8"/>
<path d="M21.6152 104.154C21.6152 105.173 20.7886 106 19.769 106C18.7494 106 17.9229 105.173 17.9229 104.154C17.9229 103.133 18.7494 102.308 19.769 102.308C20.7886 102.308 21.6152 103.133 21.6152 104.154Z" fill="#61BFB8"/>
<path d="M20.3844 103.539C20.9512 95.0768 26.5 82.8921 31.9471 82.8921C49 82.8921 41 102.308 53.7123 103.539C70 103.5 69.3561 81.5383 72.0767 76.4614M57.3075 104.154C57.3075 105.173 56.4809 106 55.4613 106C54.4417 106 53.6152 105.173 53.6152 104.154C53.6152 103.134 54.4417 102.308 55.4613 102.308C56.4809 102.308 57.3075 103.134 57.3075 104.154ZM74.5381 76.0099C74.5381 77.0294 73.3716 77.8559 72.692 77.8559C72.0122 77.8559 70.8458 77.0293 70.8458 76.0097C70.8458 74.9902 72.0122 74.1636 72.692 74.1636C73.3716 74.1636 74.5381 74.9903 74.5381 76.0099ZM21.6152 104.154C21.6152 105.173 20.7886 106 19.769 106C18.7494 106 17.9229 105.173 17.9229 104.154C17.9229 103.134 18.7494 102.308 19.769 102.308C20.7886 102.308 21.6152 103.134 21.6152 104.154Z" stroke="url(#paint2_linear_5899_47305)"/>
<defs>
<linearGradient id="paint0_linear_5899_47305" x1="26.3174" y1="18.5229" x2="58.4882" y2="25.0476" gradientUnits="userSpaceOnUse">
<stop stop-color="#3586FF"/>
<stop offset="1" stop-color="#83E0B3"/>
</linearGradient>
<linearGradient id="paint1_linear_5899_47305" x1="31" y1="80.6374" x2="37.054" y2="81.943" gradientUnits="userSpaceOnUse">
<stop stop-color="#3586FF"/>
<stop offset="1" stop-color="#83E0B3"/>
</linearGradient>
<linearGradient id="paint2_linear_5899_47305" x1="17.9229" y1="71.0368" x2="102.611" y2="103.516" gradientUnits="userSpaceOnUse">
<stop stop-color="#3586FF"/>
<stop offset="1" stop-color="#83E0B3"/>
</linearGradient>
</defs>
</svg>
