<svg width="53" height="52" viewBox="0 0 53 52" fill="none" xmlns="http://www.w3.org/2000/svg">
<g opacity="0.3">
<path d="M35.593 22.5231C39.6118 24.7953 42.352 29.2013 42.4104 34.1566C42.4975 41.5551 36.5704 47.6234 29.172 47.7105C21.7735 47.7976 15.7052 41.8706 15.6181 34.4721C15.5575 29.322 18.4109 24.8157 22.6485 22.5231H35.593ZM20.4964 18.3223C20.4964 17.4938 21.168 16.8223 21.9964 16.8223H28.9707H35.945C36.7734 16.8223 37.445 17.4938 37.445 18.3223V19.9332C37.445 20.6431 36.9474 21.2557 36.2526 21.4013L35.6714 21.5231H22.5689L21.7246 21.3675C21.013 21.2364 20.4964 20.616 20.4964 19.8924V18.3223Z" stroke="#3586FF"/>
<path d="M23.9022 10.31C23.2662 11.2415 22.9363 12.3858 22.8299 13.0981C21.2964 11.007 18.6767 11.007 17.5586 11.2684C19.2315 9.45609 18.4299 6.76671 17.82 5.64856C20.155 6.51985 22.4233 5.05318 23.2655 4.21094C22.7776 6.47629 24.8629 8.23338 25.9665 8.82876C25.0696 8.99599 24.3942 9.58927 23.9022 10.31ZM23.9022 10.31C25.0985 10.6294 27.7701 12.2878 28.8853 16.3654" stroke="#3586FF"/>
<path d="M12.8089 4.73438L15.902 5.43141M10.5 10.4413L15.902 8.82943M14.5515 14.6671L16.3376 12.8374" stroke="#3586FF"/>
<path d="M29.1422 32.0083L29.4919 32.3656L29.8493 32.016L33.7776 28.1725C34.0623 27.894 34.5191 27.899 34.7976 28.1836L35.6517 29.0566C35.9302 29.3413 35.9252 29.7981 35.6406 30.0766L31.7123 33.9201L31.3549 34.2697L31.7045 34.6271L35.548 38.5555C35.8265 38.8401 35.8215 39.297 35.5369 39.5755L34.6639 40.4296C34.3793 40.7081 33.9224 40.7031 33.6439 40.4184L29.8004 36.4901L29.4508 36.1327L29.0934 36.4824L25.165 40.3259C24.8804 40.6044 24.4235 40.5994 24.145 40.3147L23.2909 39.4418C23.0124 39.1571 23.0174 38.7003 23.3021 38.4218L27.2304 34.5783L27.5878 34.2286L27.2381 33.8712L23.3946 29.9429C23.1161 29.6582 23.1211 29.2014 23.4058 28.9229L24.2787 28.0688C24.5634 27.7903 25.0202 27.7953 25.2987 28.0799L29.1422 32.0083Z" stroke="#3586FF"/>
</g>
</svg>
