<svg width="33" height="47" viewBox="0 0 33 47" fill="none" xmlns="http://www.w3.org/2000/svg">
<path d="M25.593 20.5222C29.6118 22.7944 32.352 27.2005 32.4104 32.1558C32.4975 39.5542 26.5704 45.6225 19.172 45.7096C11.7735 45.7967 5.70525 39.8697 5.61814 32.4712C5.5575 27.3212 8.41091 22.8148 12.6485 20.5222H25.593ZM10.4964 16.3214C10.4964 15.493 11.168 14.8214 11.9964 14.8214H18.9707H25.945C26.7734 14.8214 27.445 15.493 27.445 16.3214V17.9323C27.445 18.6422 26.9474 19.2549 26.2526 19.4005L25.6714 19.5222H12.5689L11.7246 19.3667C11.013 19.2356 10.4964 18.6151 10.4964 17.8915V16.3214Z" stroke="#3586FF"/>
<path d="M13.9022 8.30959C13.2662 9.24108 12.9363 10.3854 12.8299 11.0977C11.2964 9.00662 8.67675 9.00662 7.55859 9.268C9.23147 7.45572 8.42988 4.76635 7.81998 3.6482C10.155 4.51948 12.4233 3.05282 13.2655 2.21057C12.7776 4.47592 14.8629 6.23302 15.9665 6.8284C15.0696 6.99562 14.3942 7.5889 13.9022 8.30959ZM13.9022 8.30959C15.0985 8.62906 17.7701 10.2874 18.8853 14.365" stroke="#3586FF"/>
<path d="M2.80891 2.73328L5.90198 3.43031M0.5 8.44021L5.90198 6.82833M4.55149 12.666L6.33763 10.8363" stroke="#3586FF"/>
<path d="M19.1432 30.0076L19.4929 30.365L19.8503 30.0154L23.7786 26.1719C24.0632 25.8934 24.5201 25.8984 24.7986 26.183L25.6527 27.056C25.9312 27.3406 25.9262 27.7975 25.6416 28.076L21.7132 31.9195L21.3558 32.2691L21.7055 32.6265L25.549 36.5549C25.8275 36.8395 25.8225 37.2964 25.5379 37.5749L24.6649 38.429C24.3802 38.7075 23.9234 38.7025 23.6449 38.4178L19.8014 34.4895L19.4517 34.1321L19.0943 34.4818L15.166 38.3253C14.8813 38.6038 14.4245 38.5988 14.146 38.3141L13.2919 37.4412C13.0134 37.1565 13.0184 36.6997 13.303 36.4212L17.2314 32.5777L17.5888 32.228L17.2391 31.8706L13.3956 27.9423C13.1171 27.6576 13.1221 27.2008 13.4067 26.9223L14.2797 26.0682C14.5644 25.7897 15.0212 25.7947 15.2997 26.0793L19.1432 30.0076Z" stroke="#3586FF"/>
</svg>
