<svg width="81" height="80" viewBox="0 0 81 80" fill="none" xmlns="http://www.w3.org/2000/svg">
<path d="M63.9998 22.5C63.9998 27.0935 59.7398 29.9474 54.9042 29.9474C50.068 29.9474 45.9998 27.0935 45.9998 22.5C45.9998 17.9065 50.068 13 54.9042 13C60.4998 13 63.9998 17.9065 63.9998 22.5Z" stroke="#3586FF"/>
<path d="M36.3081 23.1458H73.4999V59.0001H36.3081V23.1458Z" fill="white" stroke="#3586FF"/>
<path d="M10.7656 35.3125L6.5 42.0156L10.7656 43.8438V59.0781L29.6562 67L50.9844 59.0781V43.8438L55.25 42.0156L50.9844 35.3125L30.875 28L10.7656 35.3125Z" fill="white"/>
<path d="M10.3542 35.2854L29.8516 28M10.3542 35.2854L29.8516 42.8888M10.3542 35.2854L6.54011 41.6999C6.44995 41.8514 6.51783 42.0469 6.68324 42.1117L10.7851 43.7203M29.8516 28L51.5033 35.2854M29.8516 28V42.8888M51.5033 35.2854L55.2117 41.6954C55.3005 41.8491 55.2286 42.0446 55.0609 42.106L50.6702 43.7203M51.5033 35.2854L29.8516 42.8888M29.8516 42.8888L34.57 49.4134C34.6462 49.5189 34.7843 49.5608 34.9071 49.5155L50.6702 43.7203M29.8516 42.8888L25.8852 49.3841C25.8119 49.504 25.6617 49.5539 25.5299 49.5023L10.7851 43.7203M29.8516 42.8888V67M10.7851 43.7203V59.2028C10.7851 59.3198 10.8569 59.4253 10.9667 59.4689L29.8516 67M50.6702 43.7203L50.9609 59.1919C50.9632 59.3141 50.8866 59.4248 50.77 59.4666L29.8516 67" stroke="#3586FF"/>
<circle cx="46" cy="26.5" r="1.5" stroke="#3586FF"/>
<circle cx="63" cy="26.5" r="1.5" stroke="#3586FF"/>
</svg>
