<svg width="121" height="120" viewBox="0 0 121 120" fill="none" xmlns="http://www.w3.org/2000/svg">
<path d="M19.748 51.6456L31.5 46.5M19.748 51.6456L58.9427 66.9303M19.748 51.6456L12.0806 64.5404C11.8994 64.8448 12.0358 65.2379 12.3684 65.3682L20.6142 68.6019M102.468 51.6456L109.923 64.5312C110.102 64.8402 109.957 65.2333 109.62 65.3566L100.793 68.6019M102.468 51.6456L58.9427 66.9303M102.468 51.6456L92 48M58.9427 66.9303L68.4278 80.0464C68.581 80.2585 68.8587 80.3427 69.1056 80.2516L100.793 68.6019M58.9427 66.9303L50.9692 79.9876C50.8219 80.2285 50.5198 80.3288 50.255 80.2251L20.6142 68.6019M58.9427 66.9303V115.4M20.6142 68.6019V99.7257C20.6142 99.9609 20.7586 100.173 20.9791 100.261L58.9427 115.4M100.793 68.6019L101.378 99.7038C101.382 99.9494 101.228 100.172 100.994 100.256L58.9427 115.4" stroke="url(#paint0_linear_2245_26866)"/>
<mask id="path-2-inside-1_2245_26866" fill="white">
<path d="M30.5 20H92V55.5L59 68L30.5 56.5V20Z"/>
</mask>
<path d="M30.5 20H92V55.5L59 68L30.5 56.5V20Z" stroke="url(#paint1_linear_2245_26866)" stroke-width="2" mask="url(#path-2-inside-1_2245_26866)"/>
<g clip-path="url(#clip0_2245_26866)">
<mask id="path-3-inside-2_2245_26866" fill="white">
<path d="M68.2348 30.6096L60.5004 38.344L52.7659 30.6096C51.8168 29.6605 50.2774 29.6605 49.3283 30.6096L47.6095 32.3283C46.6605 33.2774 46.6605 34.8168 47.6095 35.7659L55.344 43.5004L47.6095 51.2349C46.6605 52.1839 46.6605 53.7233 47.6095 54.6724L49.3283 56.3912C50.2774 57.3403 51.8168 57.3403 52.7659 56.3912L60.5004 48.6567L68.2348 56.3912C69.1839 57.3403 70.7233 57.3403 71.6724 56.3912L73.3912 54.6724C74.3402 53.7233 74.3402 52.1839 73.3912 51.2349L65.6567 43.5004L73.3912 35.7659C74.3402 34.8168 74.3402 33.2774 73.3912 32.3283L71.6724 30.6096C70.7233 29.6605 69.1839 29.6605 68.2348 30.6096Z"/>
</mask>
<path d="M68.2348 30.6096L60.5004 38.344L52.7659 30.6096C51.8168 29.6605 50.2774 29.6605 49.3283 30.6096L47.6095 32.3283C46.6605 33.2774 46.6605 34.8168 47.6095 35.7659L55.344 43.5004L47.6095 51.2349C46.6605 52.1839 46.6605 53.7233 47.6095 54.6724L49.3283 56.3912C50.2774 57.3403 51.8168 57.3403 52.7659 56.3912L60.5004 48.6567L68.2348 56.3912C69.1839 57.3403 70.7233 57.3403 71.6724 56.3912L73.3912 54.6724C74.3402 53.7233 74.3402 52.1839 73.3912 51.2349L65.6567 43.5004L73.3912 35.7659C74.3402 34.8168 74.3402 33.2774 73.3912 32.3283L71.6724 30.6096C70.7233 29.6605 69.1839 29.6605 68.2348 30.6096Z" stroke="url(#paint2_linear_2245_26866)" stroke-width="2" mask="url(#path-3-inside-2_2245_26866)"/>
</g>
<defs>
<linearGradient id="paint0_linear_2245_26866" x1="12" y1="39.733" x2="165.694" y2="86.8781" gradientUnits="userSpaceOnUse">
<stop stop-color="#3586FF"/>
<stop offset="1" stop-color="#83E0B3"/>
</linearGradient>
<linearGradient id="paint1_linear_2245_26866" x1="30.5" y1="15.2857" x2="128.541" y2="42.376" gradientUnits="userSpaceOnUse">
<stop stop-color="#3586FF"/>
<stop offset="1" stop-color="#83E0B3"/>
</linearGradient>
<linearGradient id="paint2_linear_2245_26866" x1="34.0742" y1="41.1371" x2="82.0367" y2="10.1919" gradientUnits="userSpaceOnUse">
<stop stop-color="#3586FF"/>
<stop offset="1" stop-color="#83E0B3"/>
</linearGradient>
<clipPath id="clip0_2245_26866">
<rect width="39.2863" height="39.2863" fill="white" transform="translate(33 43.7798) rotate(-45)"/>
</clipPath>
</defs>
</svg>
