<svg width="38" height="38" viewBox="-1 -1 40 40" fill="none" xmlns="http://www.w3.org/2000/svg">
<rect x="0.5" y="0.5" width="37" height="37" rx="3.5" fill="#5E97EC" fill-opacity="0.27"/>
<g clip-path="url(#clip0_4117_41411)">
<mask id="path-2-inside-1_4117_41411" fill="white">
<path d="M21.0771 13.2105L25.198 17.3315C25.3716 17.5051 25.3716 17.7884 25.198 17.962L15.22 27.9401L10.9802 28.4106C10.4137 28.4746 9.93397 27.9949 9.99793 27.4284L10.4685 23.1886L20.4466 13.2105C20.6202 13.0369 20.9034 13.0369 21.0771 13.2105ZM28.4784 12.1643L26.2488 9.93476C25.5544 9.24031 24.4259 9.24031 23.7269 9.93476L22.1096 11.5521C21.936 11.7257 21.936 12.009 22.1096 12.1826L26.2306 16.3035C26.4042 16.4772 26.6874 16.4772 26.8611 16.3035L28.4784 14.6862C29.1728 13.9872 29.1728 12.8587 28.4784 12.1643Z"/>
</mask>
<path d="M21.0771 13.2105L25.198 17.3315C25.3716 17.5051 25.3716 17.7884 25.198 17.962L15.22 27.9401L10.9802 28.4106C10.4137 28.4746 9.93397 27.9949 9.99793 27.4284L10.4685 23.1886L20.4466 13.2105C20.6202 13.0369 20.9034 13.0369 21.0771 13.2105ZM28.4784 12.1643L26.2488 9.93476C25.5544 9.24031 24.4259 9.24031 23.7269 9.93476L22.1096 11.5521C21.936 11.7257 21.936 12.009 22.1096 12.1826L26.2306 16.3035C26.4042 16.4772 26.6874 16.4772 26.8611 16.3035L28.4784 14.6862C29.1728 13.9872 29.1728 12.8587 28.4784 12.1643Z" stroke="#3586FF" stroke-width="2" mask="url(#path-2-inside-1_4117_41411)"/>
</g>
<rect x="0.5" y="0.5" width="37" height="37" rx="3.5" stroke="#3586FF"/>
<defs>
<clipPath id="clip0_4117_41411">
<rect width="20" height="20" fill="white" transform="translate(9 9)"/>
</clipPath>
</defs>
</svg>
