<svg width="396" height="338" viewBox="0 0 396 338" fill="none" xmlns="http://www.w3.org/2000/svg">
<path d="M167.395 209.3L173.203 233.484C173.93 236.522 177.152 238.238 180.078 237.146L202.882 228.638M173.768 120.231L152.16 130.273L181.695 221M173.768 120.231L220.672 98.4335L265.166 218.624M173.768 120.231L176.5 130.273M173.768 120.231L170.404 102.929M176.5 130.273C172.5 132 168.929 135.5 170.5 141C171.5 144.5 176.5 149.538 182 147C185.25 145.5 188.5 141.667 186.5 136C184.206 129.5 180 128.762 176.5 130.273ZM164.156 109.177L161.032 86.2676M161.032 86.2676H168.321M161.032 86.2676H143.33" stroke="url(#paint0_linear_5246_43773)" stroke-width="2"/>
<path d="M187.286 91C188.074 95.7895 191.777 106.135 200.286 109.2M145.542 51.3211H142.974L138.357 26H171.071L167.639 51.3211H165.718M145.542 51.3211H165.718M145.542 51.3211C146.073 64.843 144.299 86.7118 142.633 93.4099C138.015 111.982 127.462 113.376 124.886 147.809L124.886 291.2H184.686V236.6M165.718 51.3211C165.048 64.8276 166.184 86.8364 168.417 93.4099C170.749 100.273 171.789 102.35 171.789 102.35M263.085 218.515L329.819 281.975C334.702 286.619 342.419 286.452 347.096 281.603C351.857 276.669 351.646 268.785 346.626 264.113L279.746 201.854M296.486 157.3C296.486 198.224 262.728 231.4 221.086 231.4C179.444 231.4 145.686 198.224 145.686 157.3C145.686 116.376 179.444 83.2 221.086 83.2C262.728 83.2 296.486 116.376 296.486 157.3Z" stroke="#8CBAFF" stroke-width="1.6"/>
<path d="M203.715 160.157C197.058 162.503 193.722 166.794 192.078 172.93C191.78 174.043 192.402 175.205 193.492 175.563L198.067 177.068C199.167 177.429 200.343 176.84 200.716 175.739C201.869 172.343 202.879 170.266 206.142 169.116C208.708 168.212 212.473 168.771 213.364 171.3C214.038 173.211 212.831 174.739 210.806 177.075C208.444 179.799 205.272 183.272 207.118 188.512L207.411 189.341C207.806 190.464 209.024 191.059 210.129 190.67L216.174 188.54C217.28 188.15 217.855 186.924 217.459 185.8L217.287 185.311C216.007 181.679 226.402 177.846 222.939 168.017C220.331 160.615 210.795 157.663 203.715 160.157ZM214.031 192.101C210.845 193.224 209.181 196.771 210.322 200.008C211.462 203.244 214.982 204.965 218.168 203.842C221.354 202.72 223.018 199.173 221.878 195.936C220.737 192.699 217.217 190.979 214.031 192.101Z" fill="white" stroke="url(#paint1_linear_5246_43773)" stroke-width="1.6"/>
<defs>
<linearGradient id="paint0_linear_5246_43773" x1="143.33" y1="71.4168" x2="346.257" y2="106.679" gradientUnits="userSpaceOnUse">
<stop stop-color="#3586FF"/>
<stop offset="1" stop-color="#83E0B3"/>
</linearGradient>
<linearGradient id="paint1_linear_5246_43773" x1="187.498" y1="161.081" x2="239.349" y2="150.899" gradientUnits="userSpaceOnUse">
<stop stop-color="#3586FF"/>
<stop offset="1" stop-color="#83E0B3"/>
</linearGradient>
</defs>
</svg>
