<svg width="224" height="224" viewBox="0 0 224 224" fill="none" xmlns="http://www.w3.org/2000/svg">
<path d="M35.4733 90.44L22 117.433L35.4733 122.453M35.4733 90.44L107.093 63M35.4733 90.44L107.093 118.87M35.4733 179.62L35.4733 122.453M35.4733 122.453L90.876 143.687C91.3704 143.88 91.9342 143.693 92.2092 143.243L107.093 118.87M35.4733 122.453L35.5465 180.088C35.5465 180.527 35.816 180.923 36.2277 181.087L107.093 209.347M107.093 63L188.341 90.3384M107.093 63V118.87M188.341 90.3384L202.256 114.392C202.589 114.968 202.32 115.702 201.69 115.932L185.214 121.99M188.341 90.3384L107.093 118.87M107.093 118.87L124.799 143.353C125.084 143.749 125.603 143.906 126.064 143.736L185.214 121.99M107.093 118.87L107.093 209.347M185.214 121.99L186.305 180.047C186.314 180.505 186.026 180.921 185.589 181.078L107.093 209.347" stroke="url(#paint0_linear_5327_44091)"/>
<path d="M139.786 25.6837L139.783 25.6803L139.406 25.2534C139.405 25.2528 139.405 25.2521 139.404 25.2515C132.366 17.4484 121.568 16.7241 113.806 22.8526L119.294 40.4582L119.398 40.7925L119.12 41.0047L104.539 52.1134L112.204 73.9563L111.365 74.4607L88.5345 49.6786L88.1626 49.2748L88.5992 48.9421L103.191 37.8251L98.6793 23.3072C90.7333 17.1006 79.7576 18.0117 72.8321 26.1082L72.8283 26.1126L72.8283 26.1126L72.4601 26.533C65.1199 35.1067 64.9579 48.6403 71.7265 57.6169L105.353 95.2344L139.786 25.6837ZM139.786 25.6837C147.342 34.07 147.845 47.5966 141.304 56.7238L108.619 95.1933M139.786 25.6837L108.619 95.1933M108.619 95.1933L108.618 95.1937C107.72 96.2472 106.278 96.2654 105.354 95.2348L108.619 95.1933Z" fill="white" stroke="url(#paint1_linear_5327_44091)"/>
<defs>
<linearGradient id="paint0_linear_5327_44091" x1="22" y1="48.6267" x2="311.112" y2="125.485" gradientUnits="userSpaceOnUse">
<stop stop-color="#3586FF"/>
<stop offset="1" stop-color="#83E0B3"/>
</linearGradient>
<linearGradient id="paint1_linear_5327_44091" x1="65.9036" y1="11.3474" x2="197.219" y2="38.688" gradientUnits="userSpaceOnUse">
<stop stop-color="#3586FF"/>
<stop offset="1" stop-color="#83E0B3"/>
</linearGradient>
</defs>
</svg>
