<svg width="140" height="176" viewBox="0 0 140 176" fill="none" xmlns="http://www.w3.org/2000/svg">
<path d="M129.311 27.4728L133.96 15.5963L138.64 43.1257M79.3338 82.4922L1 54.8775M79.3338 82.4922L138.64 43.1257M79.3338 82.4922L28.118 88.8667M79.3338 82.4922L52.295 36.8817L100.94 9.00274L113.882 1.58545L138.64 43.1257M79.3338 82.4922L80.131 103.989M79.3338 82.4922L80.0973 103.082M1 54.8775L8.3106 137.852L32.2865 147.145M1 54.8775L62.5872 19.5812L75.6074 23.5211M82.5225 168.479L138.64 123.47M82.5225 168.479L34.2789 175M82.5225 168.479L80.9281 125.485M82.5225 168.479L81.0282 128.183M138.64 123.47L103.198 111.992M138.64 123.47V43.1257M28.118 88.8667L34.2789 175M28.118 88.8667L32.2865 147.145M34.2789 175L32.2865 147.145M103.198 111.992L81.0282 128.183M103.198 111.992L80.0973 103.082M81.0282 128.183L80.9281 125.485M80.0973 103.082L80.131 103.989M80.9281 125.485L80.131 103.989" stroke="#3586FF" stroke-width="1.6" stroke-linejoin="round"/>
</svg>
