<svg width="38" height="38" viewBox="0 0 38 38" fill="none" xmlns="http://www.w3.org/2000/svg">
<g clip-path="url(#clip0_3157_37983)">
<path d="M30.2664 16.9713L28.2068 16.7992C28.0441 16.7873 27.9061 16.6758 27.8604 16.5191C27.6623 15.8109 27.3793 15.1291 27.018 14.4885C26.94 14.3451 26.9588 14.1686 27.0652 14.0447L28.4012 12.4664C28.6682 12.1482 28.6488 11.6789 28.3564 11.384L26.6145 9.64355C26.3186 9.35234 25.85 9.33359 25.5316 9.6L23.9527 10.9359C23.8293 11.0424 23.6529 11.0613 23.5096 10.9836C22.8693 10.6221 22.1879 10.3387 21.4801 10.14C21.3232 10.0941 21.2117 9.95566 21.2 9.79277L21.0283 7.73359C20.9918 7.32031 20.6469 7.00273 20.232 7H17.768C17.3527 7.00234 17.0076 7.32012 16.9707 7.73359L16.8 9.79277C16.7883 9.95566 16.6768 10.0941 16.5199 10.14C15.8117 10.3381 15.1299 10.6209 14.4893 10.982C14.3459 11.0596 14.1695 11.0406 14.0461 10.9344L12.4684 9.6C12.1498 9.33398 11.6813 9.35352 11.3859 9.64512L9.64355 11.3855C9.35156 11.6809 9.33262 12.1502 9.6 12.468L10.9355 14.0469C11.0424 14.1703 11.0613 14.3471 10.9832 14.4904C10.6215 15.1307 10.3383 15.8121 10.1396 16.5199C10.0932 16.6756 9.95508 16.7861 9.79316 16.7977L7.73359 16.9691C7.31934 17.0061 7.00156 17.3521 7 17.768V20.232C7.00234 20.6471 7.32012 20.9922 7.73359 21.0287L9.79316 21.2008C9.95586 21.2127 10.0939 21.3242 10.1396 21.4809C10.3377 22.1891 10.6207 22.8709 10.982 23.5115C11.06 23.6549 11.0412 23.8314 10.9348 23.9553L9.6 25.5316C9.33301 25.8498 9.35234 26.3189 9.64473 26.6141L11.3867 28.3564C11.6822 28.648 12.151 28.6676 12.4695 28.4016L14.0484 27.0656C14.1721 26.9596 14.3482 26.9408 14.4916 27.018C15.1324 27.3785 15.8143 27.6605 16.5225 27.858C16.6791 27.9039 16.7908 28.0424 16.8023 28.2053L16.974 30.2645C17.0096 30.6775 17.3533 30.9959 17.768 31H20.232C20.6473 30.9977 20.9924 30.6799 21.0293 30.2664L21.2008 28.2072C21.2125 28.0443 21.324 27.9059 21.4809 27.86C22.1891 27.6625 22.8709 27.3805 23.5115 27.0199C23.6549 26.9422 23.8313 26.9611 23.9549 27.0676L25.5336 28.4035C25.852 28.6703 26.3211 28.6508 26.616 28.3584L28.3584 26.6164C28.6512 26.3203 28.6691 25.8496 28.4 25.532L27.0645 23.9531C26.9576 23.8297 26.9387 23.6529 27.0168 23.5096C27.3785 22.8693 27.6617 22.1879 27.8604 21.4801C27.9068 21.3244 28.0449 21.2139 28.2068 21.2023L30.2664 21.0309C30.6807 20.9939 30.9984 20.6479 31 20.232V17.768C30.9977 17.3529 30.6799 17.0078 30.2664 16.9713ZM30.2 20.232L28.1404 20.4039C27.6455 20.4439 27.2271 20.7861 27.09 21.2633C26.9086 21.9098 26.65 22.532 26.3199 23.1168C26.0787 23.5516 26.1318 24.0904 26.4535 24.4695L27.7896 26.0484L26.0473 27.7908L24.4684 26.4549C24.0891 26.1334 23.5504 26.0801 23.1156 26.3213C22.5309 26.651 21.9084 26.909 21.2619 27.09C20.7848 27.2275 20.4426 27.6459 20.4023 28.1408L20.232 30.2H17.768L17.5965 28.1408C17.5563 27.6457 17.2137 27.2273 16.7363 27.09C16.09 26.9086 15.4678 26.65 14.8832 26.3199C14.7072 26.2211 14.5086 26.1693 14.3068 26.1695C14.0227 26.1695 13.7475 26.2701 13.5305 26.4535L11.9516 27.7896L10.2092 26.0473L11.5455 24.4684C11.867 24.0891 11.9199 23.5504 11.6787 23.1156C11.3492 22.5309 11.0912 21.9088 10.91 21.2623C10.7725 20.7855 10.3541 20.4438 9.85957 20.4039L7.8 20.232V17.768L9.85957 17.5961C10.3545 17.5561 10.7729 17.2139 10.91 16.7367C11.0914 16.0902 11.35 15.468 11.6801 14.8832C11.9213 14.4484 11.8682 13.9096 11.5465 13.5305L10.2104 11.9516L11.9527 10.2092L13.5316 11.5451C13.9107 11.867 14.4496 11.9201 14.8844 11.6787C15.4691 11.349 16.0916 11.091 16.7381 10.91C17.2152 10.7725 17.5574 10.3541 17.5977 9.85918L17.768 7.8H20.232L20.4035 9.85918C20.4438 10.3543 20.7863 10.7727 21.2637 10.91C21.91 11.0914 22.5322 11.35 23.1168 11.6801C23.5516 11.9213 24.0904 11.8682 24.4695 11.5465L26.0484 10.2104L27.7908 11.9527L26.4545 13.5316C26.133 13.9109 26.0801 14.4496 26.3213 14.8844C26.6508 15.4691 26.9088 16.0912 27.09 16.7377C27.2271 17.2148 27.6455 17.5572 28.1404 17.5973L30.2 17.768V20.232Z" fill="#3586FF"/>
<path d="M19 13C15.6863 13 13 15.6863 13 19C13 22.3137 15.6863 25 19 25C22.3137 25 25 22.3137 25 19C24.9963 15.6879 22.3121 13.0037 19 13ZM19 24.2C16.1281 24.2 13.8 21.8719 13.8 19C13.8 16.1281 16.1281 13.8 19 13.8C21.8719 13.8 24.2 16.1281 24.2 19C24.1967 21.8705 21.8705 24.1967 19 24.2Z" fill="#3586FF"/>
</g>
<defs>
<clipPath id="clip0_3157_37983">
<rect width="24" height="24" fill="white" transform="translate(7 7)"/>
</clipPath>
</defs>
</svg>
