<svg width="53" height="52" viewBox="0 0 53 52" fill="none" xmlns="http://www.w3.org/2000/svg">
<g opacity="0.3">
<path d="M38.2185 12.8644C39.1431 12.8644 39.8926 12.1455 39.8926 11.2585V10.1879C39.8926 9.30101 39.1431 8.58203 38.2185 8.58203H14.781C13.8564 8.58203 13.1069 9.30101 13.1069 10.1879V11.2585C13.1069 12.1455 13.8564 12.8644 14.781 12.8644M38.2185 12.8644C38.2185 18.9511 34.6599 24.088 29.7893 25.7117C31.9165 26.4208 33.7935 27.8001 35.2331 29.636M38.2185 12.8644H14.781M14.781 12.8644C14.781 18.9511 18.3396 24.088 23.2103 25.7117C21.083 26.4208 19.206 27.8001 17.7665 29.636M14.781 38.5589C13.8564 38.5589 13.1069 39.2779 13.1069 40.1648V41.2354C13.1069 42.1223 13.8564 42.8413 14.781 42.8413H38.2185C39.1431 42.8413 39.8926 42.1223 39.8926 41.2354V40.1648C39.8926 39.2779 39.1431 38.5589 38.2185 38.5589M14.781 38.5589C14.781 35.1305 15.91 32.0036 17.7665 29.636M14.781 38.5589H38.2185M38.2185 38.5589C38.2185 35.1305 37.0896 32.0036 35.2331 29.636M17.7665 29.636H35.2331" stroke="#9D9D9D"/>
</g>
</svg>
