<svg width="31" height="38" viewBox="0 0 31 38" fill="none" xmlns="http://www.w3.org/2000/svg">
<path d="M27.219 5.86334C28.1436 5.86334 28.8931 5.14436 28.8931 4.25744V3.18684C28.8931 2.29991 28.1436 1.58093 27.219 1.58093H3.78153C2.85693 1.58093 2.10742 2.29991 2.10742 3.18684V4.25744C2.10742 5.14436 2.85693 5.86334 3.78153 5.86334M27.219 5.86334C27.219 11.95 23.6604 17.0869 18.7898 18.7106C20.917 19.4197 22.794 20.799 24.2336 22.6349M27.219 5.86334H3.78153M3.78153 5.86334C3.78153 11.95 7.34012 17.0869 12.2108 18.7106C10.0835 19.4197 8.20654 20.799 6.76699 22.6349M3.78153 31.5578C2.85693 31.5578 2.10742 32.2768 2.10742 33.1637V34.2343C2.10742 35.1212 2.85693 35.8402 3.78153 35.8402H27.219C28.1436 35.8402 28.8931 35.1212 28.8931 34.2343V33.1637C28.8931 32.2768 28.1436 31.5578 27.219 31.5578M3.78153 31.5578C3.78153 28.1294 4.91049 25.0025 6.76699 22.6349M3.78153 31.5578H27.219M27.219 31.5578C27.219 28.1294 26.0901 25.0025 24.2336 22.6349M6.76699 22.6349H24.2336" stroke="#9D9D9D"/>
</svg>
