<svg width="29" height="36" viewBox="0 0 29 36" fill="none" xmlns="http://www.w3.org/2000/svg">
<path d="M26.2185 4.86444C27.1431 4.86444 27.8926 4.14546 27.8926 3.25854V2.18793C27.8926 1.30101 27.1431 0.582031 26.2185 0.582031H2.78104C1.85645 0.582031 1.10693 1.30101 1.10693 2.18793V3.25854C1.10693 4.14546 1.85645 4.86444 2.78104 4.86444M26.2185 4.86444C26.2185 10.9511 22.6599 16.088 17.7893 17.7117C19.9165 18.4208 21.7935 19.8001 23.2331 21.636M26.2185 4.86444H2.78104M2.78104 4.86444C2.78104 10.9511 6.33963 16.088 11.2103 17.7117C9.08304 18.4208 7.20605 19.8001 5.7665 21.636M2.78104 30.5589C1.85645 30.5589 1.10693 31.2779 1.10693 32.1648V33.2354C1.10693 34.1223 1.85645 34.8413 2.78104 34.8413H26.2185C27.1431 34.8413 27.8926 34.1223 27.8926 33.2354V32.1648C27.8926 31.2779 27.1431 30.5589 26.2185 30.5589M2.78104 30.5589C2.78104 27.1305 3.91 24.0036 5.7665 21.636M2.78104 30.5589H26.2185M26.2185 30.5589C26.2185 27.1305 25.0896 24.0036 23.2331 21.636M5.7665 21.636H23.2331" stroke="#3586FF"/>
</svg>
