<svg width="72" height="109" viewBox="0 0 72 109" fill="none" xmlns="http://www.w3.org/2000/svg">
<path d="M52.5 80C51 85 50.7091 85 48.5 85C47.5663 85 46.7074 84.6001 46.0267 83.9299C45.7534 83.6607 45.5088 83.348 45.2997 83C44.7976 82.1643 44.5 81.1256 44.5 80C44.5 78.9159 44.776 77.9124 45.245 77.0932C45.9706 75.8259 47.1582 75 48.5 75C50.7091 75 53.5 75 52.5 80Z" fill="#ECECEE"/>
<path d="M70.75 35.875C70.75 55.1359 55.1359 70.75 35.875 70.75C16.6141 70.75 1 55.1359 1 35.875C1 16.6141 16.6141 1 35.875 1C55.1359 1 70.75 16.6141 70.75 35.875Z" fill="#ECECEE"/>
<path d="M30.069 53.3639L15.6497 39.2482C14.7834 38.4002 14.7834 36.2433 15.6497 35.3951L18.2548 33.1059C19.1211 32.2578 21.0578 32.2578 21.9241 33.1059L31.6376 42.6148L51.3002 23.636C52.1665 22.788 54.4673 22.788 55.3336 23.636L57.3503 25.6603C58.2166 26.5083 58.2166 28.8607 57.3503 29.7088L33.2062 53.364C32.3399 54.212 30.9353 54.212 30.069 53.3639Z" fill="#ECECEE"/>
<path d="M31.5 70.75V77M41.5 70.2987V77M49.5 85V88C49.5 89.1046 48.6046 90 47.5 90H47.2324M46.0267 83.9299C46.7074 84.6001 47.5663 85 48.5 85C50.7091 85 51 85 52.5 80C53.5 75 50.7091 75 48.5 75C47.1582 75 45.9706 75.8259 45.245 77.0932M46.0267 83.9299C45.7534 83.6607 45.5088 83.348 45.2997 83C44.7976 82.1643 44.5 81.1256 44.5 80C44.5 78.9159 44.776 77.9124 45.245 77.0932M46.0267 83.9299C45.8589 83.9756 45.6823 84 45.5 84H27.5C26.9928 84 26.5297 83.8112 26.1771 83.5M45.245 77.0932C45.0068 77.0324 44.7572 77 44.5 77H28.5C26.8431 77 25.5 78.3431 25.5 80V82C25.5 82.5973 25.7619 83.1335 26.1771 83.5M26.1771 83.5C25.7619 83.8665 25.5 84.4027 25.5 85V88C25.5 88.5973 25.7619 89.1335 26.1771 89.5M26.1771 89.5C26.5297 89.8112 26.9928 90 27.5 90H47.2324M26.1771 89.5C25.7619 89.8665 25.5 90.4027 25.5 91V94C25.5 94.5973 25.7619 95.1335 26.1771 95.5M47.2324 90C47.4026 90.2942 47.5 90.6357 47.5 91V94C47.5 95.1046 46.6046 96 45.5 96H43.2324M26.1771 95.5C25.7619 95.8665 25.5 96.4027 25.5 97V99C25.5 100.657 26.8431 102 28.5 102H31.5M26.1771 95.5C26.5297 95.8112 26.9928 96 27.5 96H31.5H36.5H41.5H43.2324M43.2324 96C43.4026 96.2942 43.5 96.6357 43.5 97V99C43.5 100.306 42.6652 101.417 41.5 101.829M41.5 101.829C41.1872 101.94 40.8506 102 40.5 102H31.5M41.5 101.829V108H31.5V102M70.75 35.875C70.75 55.1359 55.1359 70.75 35.875 70.75C16.6141 70.75 1 55.1359 1 35.875C1 16.6141 16.6141 1 35.875 1C55.1359 1 70.75 16.6141 70.75 35.875ZM30.069 53.3639L15.6497 39.2482C14.7834 38.4002 14.7834 36.2433 15.6497 35.3951L18.2548 33.1059C19.1211 32.2578 21.0578 32.2578 21.9241 33.1059L31.6376 42.6148L51.3002 23.636C52.1665 22.788 54.4673 22.788 55.3336 23.636L57.3503 25.6603C58.2166 26.5083 58.2166 28.8607 57.3503 29.7088L33.2062 53.364C32.3399 54.212 30.9353 54.212 30.069 53.3639Z" stroke="url(#paint0_linear_4468_43763)"/>
<defs>
<linearGradient id="paint0_linear_4468_43763" x1="0.999999" y1="-9.50892" x2="118.363" y2="6.99027" gradientUnits="userSpaceOnUse">
<stop stop-color="#3586FF"/>
<stop offset="1" stop-color="#83E0B3"/>
</linearGradient>
</defs>
</svg>
