<svg width="134" height="124" viewBox="0 0 134 124" fill="none" xmlns="http://www.w3.org/2000/svg">
<path d="M128.364 45.9265C125.606 44.3819 122.241 44.9558 120.129 47.1111C113.49 21.2055 89.9462 2 62 2C28.9159 2 2 28.9159 2 62C2 95.0841 28.9159 122 62 122C76.4515 122 90.414 116.789 101.315 107.326C104.172 104.845 104.478 100.518 101.998 97.6604C99.5172 94.8034 95.1901 94.4979 92.3325 96.9777C83.9236 104.277 73.1514 108.297 62 108.297C36.4716 108.297 15.7026 87.528 15.7026 61.9996C15.7026 36.4713 36.4716 15.7026 62 15.7026C82.4849 15.7026 99.9022 29.0769 105.986 47.5513C103.675 46.3545 100.782 46.5281 98.6014 48.2404C95.6255 50.5773 95.1075 54.8842 97.4445 57.8601L108.771 72.2836C110.334 74.2741 112.66 75.4184 115.086 75.4184C115.284 75.4184 115.484 75.4107 115.683 75.3953C118.321 75.1902 120.694 73.6414 122.032 71.2526L130.993 55.252C132.842 51.9505 131.665 47.7757 128.364 45.9265Z" stroke="white" stroke-width="3"/>
<path d="M60.824 33C57.04 33 54 36.0673 54 39.8513V66.2286C54 70.9508 57.7994 74.9518 62.5825 74.9518H81.6553C85.4393 74.9518 88.5066 71.9118 88.5066 68.1278C88.5066 64.3438 85.4393 61.3038 81.6553 61.3038H67.6476V39.8513C67.648 36.0673 64.608 33 60.824 33Z" stroke="white" stroke-width="3"/>
</svg>
