<svg width="105" height="97" viewBox="0 0 105 97" fill="none" xmlns="http://www.w3.org/2000/svg">
<path d="M100.9 35.5965C98.7196 34.3753 96.0598 34.829 94.3902 36.533C89.1416 16.0526 70.5282 0.869202 48.4346 0.869202C22.2791 0.869202 1 22.1483 1 48.3038C1 74.4593 22.2791 95.7384 48.4346 95.7384C59.8596 95.7384 70.8981 91.6184 79.5161 84.1372C81.775 82.1762 82.0168 78.755 80.0558 76.4961C78.0949 74.2374 74.6739 73.9959 72.4147 75.9563C65.7669 81.7272 57.2507 84.9052 48.4346 84.9052C28.2525 84.9052 11.8329 68.4857 11.8329 48.3035C11.8329 28.1214 28.2525 11.7021 48.4346 11.7021C64.6295 11.7021 78.3992 22.2756 83.2086 36.881C81.3816 35.9349 79.095 36.0721 77.3708 37.4258C75.0181 39.2733 74.6087 42.6782 76.4562 45.0309L85.4109 56.4338C86.6464 58.0074 88.4854 58.9121 90.4029 58.9121C90.5601 58.9121 90.7178 58.906 90.8755 58.8938C92.9604 58.7317 94.8367 57.5072 95.8944 55.6187L102.979 42.9689C104.441 40.3589 103.51 37.0584 100.9 35.5965Z" stroke="url(#paint0_linear_5982_47124)" stroke-width="1.6"/>
<path d="M47.5043 25.3771C44.5127 25.3771 42.1094 27.802 42.1094 30.7935V51.6468C42.1094 55.3801 45.1131 58.5432 48.8945 58.5432H63.973C66.9646 58.5432 69.3895 56.1398 69.3895 53.1483C69.3895 50.1568 66.9646 47.7534 63.973 47.7534H52.8989V30.7935C52.8991 27.802 50.4958 25.3771 47.5043 25.3771Z" stroke="url(#paint1_linear_5982_47124)" stroke-width="1.6"/>
<defs>
<linearGradient id="paint0_linear_5982_47124" x1="0.999998" y1="-8.4483" x2="168.069" y2="30.5451" gradientUnits="userSpaceOnUse">
<stop stop-color="#3586FF"/>
<stop offset="1" stop-color="#83E0B3"/>
</linearGradient>
<linearGradient id="paint1_linear_5982_47124" x1="42.1094" y1="22.1197" x2="87.4907" y2="30.1698" gradientUnits="userSpaceOnUse">
<stop stop-color="#3586FF"/>
<stop offset="1" stop-color="#83E0B3"/>
</linearGradient>
</defs>
</svg>
