<svg width="284" height="276" viewBox="0 0 284 276" fill="none" xmlns="http://www.w3.org/2000/svg">
<path d="M114 201H170V239C170 241.209 168.209 243 166 243H118C115.791 243 114 241.209 114 239V201Z" fill="#F3F8FF"/>
<path d="M114 146.323C114 145.119 114 143.925 114 142.724C116.342 110.989 125.939 109.704 130.139 92.5866C131.013 89.0264 131.142 82.9211 131.003 76C130.9 70.9199 130.653 65.4004 130.449 60.125V49.5L128.647 47.6673C127.912 46.9192 127.5 45.9122 127.5 44.8632V43.2206C127.5 42.1222 127.952 41.0721 128.749 40.3167L130.139 39L130.449 34L153.586 34V39L154.878 40.3375C155.598 41.0832 156 42.0793 156 43.1158V45.0907C156 46.0028 155.688 46.8874 155.117 47.5981L153.586 49.5V60.125C153.329 65.3986 153.005 70.9183 152.838 76C152.611 82.9136 152.674 89.0165 153.586 92.5866C157.887 109.422 167.789 111.242 169.73 142.024C169.759 142.48 169.773 142.952 169.775 143.41C169.776 144.013 169.779 145.002 169.783 146.323H114ZM169.783 146.323C169.817 157.16 169.732 174.297 169.783 201V146.323Z" fill="#D9E8FF" fill-opacity="0.3"/>
<path d="M114 201H170V239C170 241.209 168.209 243 166 243H118C115.791 243 114 241.209 114 239V201ZM114 201L114 146.323M114 146.323C114 145.119 114 143.925 114 142.724C116.342 110.989 125.939 109.704 130.139 92.5866C131.013 89.0264 131.142 82.9211 131.003 76C130.9 70.9199 130.653 65.4004 130.449 60.125V49.5L128.647 47.6673C127.912 46.9192 127.5 45.9122 127.5 44.8632V43.2206C127.5 42.1222 127.952 41.0721 128.749 40.3167L130.139 39L130.449 34L153.586 34V39L154.878 40.3375C155.598 41.0832 156 42.0793 156 43.1158V45.0907C156 46.0028 155.688 46.8874 155.117 47.5981L153.586 49.5V60.125C153.329 65.3986 153.005 70.9183 152.838 76C152.611 82.9136 152.674 89.0165 153.586 92.5866C157.887 109.422 167.789 111.242 169.73 142.024C169.759 142.48 169.773 142.952 169.775 143.41C169.776 144.013 169.779 145.002 169.783 146.323M114 146.323H169.783M169.783 146.323C169.817 157.16 169.732 174.297 169.783 201V146.323Z" stroke="#3586FF"/>
<rect x="0.5" y="0.5" width="283" height="275" rx="6.5" stroke="#5E97EC" stroke-opacity="0.27"/>
</svg>
