<svg width="72" height="109" viewBox="0 0 72 109" fill="none" xmlns="http://www.w3.org/2000/svg">
<path d="M31.5 70.75V77M41.5 70.2987V77M49.5 85V88C49.5 89.1046 48.6046 90 47.5 90H47.2324M46.0267 83.9299C46.7074 84.6001 47.5663 85 48.5 85C50.7091 85 51 85 52.5 80C53.5 75 50.7091 75 48.5 75C47.1582 75 45.9706 75.8259 45.245 77.0932M46.0267 83.9299C45.7534 83.6607 45.5088 83.348 45.2997 83C44.7976 82.1643 44.5 81.1256 44.5 80C44.5 78.9159 44.776 77.9124 45.245 77.0932M46.0267 83.9299C45.8589 83.9756 45.6823 84 45.5 84H27.5C26.9928 84 26.5297 83.8112 26.1771 83.5M45.245 77.0932C45.0068 77.0324 44.7572 77 44.5 77H28.5C26.8431 77 25.5 78.3431 25.5 80V82C25.5 82.5973 25.7619 83.1335 26.1771 83.5M26.1771 83.5C25.7619 83.8665 25.5 84.4027 25.5 85V88C25.5 88.5973 25.7619 89.1335 26.1771 89.5M26.1771 89.5C26.5297 89.8112 26.9928 90 27.5 90H47.2324M26.1771 89.5C25.7619 89.8665 25.5 90.4027 25.5 91V94C25.5 94.5973 25.7619 95.1335 26.1771 95.5M47.2324 90C47.4026 90.2942 47.5 90.6357 47.5 91V94C47.5 95.1046 46.6046 96 45.5 96H43.2324M26.1771 95.5C25.7619 95.8665 25.5 96.4027 25.5 97V99C25.5 100.657 26.8431 102 28.5 102H31.5M26.1771 95.5C26.5297 95.8112 26.9928 96 27.5 96H43.2324M43.2324 96C43.4026 96.2942 43.5 96.6357 43.5 97V99C43.5 100.306 42.6652 101.417 41.5 101.829M41.5 101.829C41.1872 101.94 40.8506 102 40.5 102H31.5M41.5 101.829V108H31.5V102M70.75 35.875C70.75 55.1359 55.1359 70.75 35.875 70.75C16.6141 70.75 1 55.1359 1 35.875C1 16.6141 16.6141 1 35.875 1C55.1359 1 70.75 16.6141 70.75 35.875ZM44.0512 21.7771L35.6985 30.1298L27.3458 21.7771C26.3208 20.7521 24.6584 20.7521 23.6335 21.7771L21.7773 23.6332C20.7524 24.6582 20.7524 26.3206 21.7773 27.3455L30.13 35.6982L21.7773 44.0509C20.7524 45.0759 20.7524 46.7383 21.7773 47.7633L23.6335 49.6194C24.6584 50.6444 26.3208 50.6444 27.3458 49.6194L35.6985 41.2667L44.0512 49.6194C45.0761 50.6444 46.7385 50.6444 47.7635 49.6194L49.6196 47.7633C50.6446 46.7383 50.6446 45.0759 49.6196 44.0509L41.2669 35.6982L49.6196 27.3455C50.6446 26.3206 50.6446 24.6582 49.6196 23.6332L47.7635 21.7771C46.7385 20.7521 45.0761 20.7521 44.0512 21.7771Z" stroke="#FF9797"/>
</svg>
