<svg width="375" height="338" viewBox="0 0 375 338" fill="none" xmlns="http://www.w3.org/2000/svg">
<path d="M156.895 209.3L162.703 233.484C163.43 236.522 166.652 238.238 169.578 237.146L192.382 228.638M163.268 120.231L141.66 130.273L171.195 221M163.268 120.231L210.172 98.4335L254.666 218.624M163.268 120.231L166 130.273M163.268 120.231L159.904 102.929M166 130.273C162 132 158.429 135.5 160 141C161 144.5 166 149.538 171.5 147C174.75 145.5 178 141.667 176 136C173.706 129.5 169.5 128.762 166 130.273ZM153.656 109.177L150.532 86.2676M150.532 86.2676H157.821M150.532 86.2676H132.83" stroke="url(#paint0_linear_5332_45950)" stroke-width="2"/>
<path d="M176.786 91C177.574 95.7895 181.277 106.135 189.786 109.2M135.042 51.3211H132.474L127.857 26H160.571L157.139 51.3211H155.218M135.042 51.3211H155.218M135.042 51.3211C135.573 64.843 133.799 86.7118 132.133 93.4099C127.515 111.982 116.962 113.376 114.386 147.809L114.386 291.2H174.186V236.6M155.218 51.3211C154.548 64.8276 155.684 86.8364 157.917 93.4099C160.249 100.273 161.289 102.35 161.289 102.35M252.585 218.515L319.319 281.975C324.202 286.619 331.919 286.452 336.596 281.603C341.357 276.669 341.146 268.785 336.126 264.113L269.246 201.854M285.986 157.3C285.986 198.224 252.228 231.4 210.586 231.4C168.944 231.4 135.186 198.224 135.186 157.3C135.186 116.376 168.944 83.2 210.586 83.2C252.228 83.2 285.986 116.376 285.986 157.3Z" stroke="#8CBAFF" stroke-width="1.6"/>
<path fill-rule="evenodd" clip-rule="evenodd" d="M200.906 166.454C201.143 165.975 199.864 168.734 199.864 168.734L199.479 169.569L198.657 169.157C198.657 169.157 197.017 168.336 196.47 168.062C191.265 165.443 184.912 167.007 182.05 171.934C180.413 174.758 180.396 177.692 181.407 180.477C182.426 183.284 184.495 185.934 187.002 188.065C191.692 191.912 197.031 194.886 202.766 196.843L208.206 198.7L208.263 198.719L208.318 198.747C209.255 199.217 210.361 198.829 210.799 197.876L210.825 197.821L210.858 197.769L213.953 192.912C217.203 187.813 219.51 182.167 220.764 176.244C221.119 173.584 221.084 170.204 220.183 167.206C219.283 164.208 217.552 161.687 214.565 160.527C214.565 160.527 210.977 158.902 206.523 160.809C202.526 162.521 200.67 166.933 200.906 166.454Z" stroke="url(#paint1_linear_5332_45950)" stroke-width="1.6" stroke-miterlimit="10"/>
<defs>
<linearGradient id="paint0_linear_5332_45950" x1="132.83" y1="71.4168" x2="335.757" y2="106.679" gradientUnits="userSpaceOnUse">
<stop stop-color="#3586FF"/>
<stop offset="1" stop-color="#83E0B3"/>
</linearGradient>
<linearGradient id="paint1_linear_5332_45950" x1="176.798" y1="167.342" x2="244.861" y2="160.318" gradientUnits="userSpaceOnUse">
<stop stop-color="#3586FF"/>
<stop offset="1" stop-color="#83E0B3"/>
</linearGradient>
</defs>
</svg>
