<svg width="160" height="160" viewBox="0 0 160 160" fill="none" xmlns="http://www.w3.org/2000/svg">
<path d="M80.5 64.5L81 90.9753M80.5 64.5C80.5 63.0402 80.9165 63.233 80.6404 63.233M80.5 64.5C80.5 63.0402 80.3643 63.233 80.6404 63.233M80.6404 63.233C93.1312 63.233 103.257 53.1073 103.257 40.6165C103.257 28.1258 93.1312 18 80.6404 18C68.1497 18 58.0239 28.1258 58.0239 40.6165C58.0239 53.1073 68.1497 63.233 80.6404 63.233ZM81.0869 30.2808V25.9394M81.0869 50.4712V55.5802M86.4957 36.1196C86.4957 30.4309 77.0343 27.886 75.3824 35.9699M75.5327 47.0478C76.8844 51.6886 86.7962 52.4371 86.7962 45.4013C86.7962 43.455 86.1069 40.6107 80.9393 40.6107C75.0821 40.6107 75.2323 36.2694 75.5327 35.2214M80.5 90.5C75.8185 78.2934 78.1659 70.2676 56.3359 65.6926C55.2449 72.651 63.0726 93.4231 80.5 90.5ZM81.6134 90.719C88.0171 74.1601 80.1553 65.5398 110.017 59.3335C111.509 68.773 105.452 94.6844 81.6134 90.719ZM53 91.1288H110.231V107.026H53V91.1288ZM66.6539 142L59.3585 107.026H103.871L98.5171 142H66.6539Z" stroke="#3586FF"/>
</svg>
