<svg width="224" height="224" viewBox="0 0 224 224" fill="none" xmlns="http://www.w3.org/2000/svg">
<g clip-path="url(#clip0_2616_26461)">
<path d="M19.85 70.6L9 87.65L19.85 92.3V131.05L67.9 151.2L122.15 131.05V92.3L133 87.65L122.15 70.6L71 52L19.85 70.6Z" fill="white"/>
<path d="M18.8036 70.5311L68.3969 52M18.8036 70.5311L68.3969 89.871M18.8036 70.5311L9.10202 86.8471C8.8727 87.2322 9.04535 87.7296 9.46608 87.8944L19.8996 91.9861M68.3969 52L123.47 70.5311M68.3969 52V89.871M123.47 70.5311L132.903 86.8354C133.128 87.2263 132.945 87.7237 132.519 87.8798L121.351 91.9861M123.47 70.5311L68.3969 89.871M68.3969 89.871L80.3985 106.467C80.5923 106.735 80.9436 106.842 81.256 106.727L121.351 91.9861M68.3969 89.871L58.308 106.392C58.1216 106.697 57.7394 106.824 57.4043 106.693L19.8996 91.9861M68.3969 89.871V151.2M19.8996 91.9861V131.367C19.8996 131.665 20.0823 131.933 20.3613 132.044L68.3969 151.2M121.351 91.9861L122.09 131.339C122.096 131.65 121.901 131.932 121.605 132.038L68.3969 151.2" stroke="url(#paint0_linear_2616_26461)"/>
<mask id="path-3-inside-1_2616_26461" fill="white">
<path d="M151.411 206.651C134.765 206.189 91.3935 196.557 89.934 164.797C88.2354 127.831 121.514 125.111 155.936 127.851C190.358 130.591 215.442 133.806 214.342 169.427C213.589 193.8 186.133 207.614 151.411 206.651Z"/>
</mask>
<path d="M151.411 206.651C134.765 206.189 91.3935 196.557 89.934 164.797C88.2354 127.831 121.514 125.111 155.936 127.851C190.358 130.591 215.442 133.806 214.342 169.427C213.589 193.8 186.133 207.614 151.411 206.651Z" fill="white" stroke="url(#paint1_linear_2616_26461)" stroke-width="2" mask="url(#path-3-inside-1_2616_26461)"/>
<mask id="path-4-inside-2_2616_26461" fill="white">
<path d="M149.629 199.033C115.207 196.293 88.7051 176.452 90.4352 154.716C92.1654 132.98 121.472 117.581 155.894 120.321C190.316 123.061 216.818 142.903 215.088 164.638C213.358 186.374 184.051 201.773 149.629 199.033Z"/>
</mask>
<path d="M149.629 199.033C115.207 196.293 88.7051 176.452 90.4352 154.716C92.1654 132.98 121.472 117.581 155.894 120.321C190.316 123.061 216.818 142.903 215.088 164.638C213.358 186.374 184.051 201.773 149.629 199.033Z" fill="white" stroke="url(#paint2_linear_2616_26461)" stroke-width="2" mask="url(#path-4-inside-2_2616_26461)"/>
<mask id="path-5-inside-3_2616_26461" fill="white">
<path d="M95.5384 170.413L96.0768 171.025C98.4833 173.763 98.9158 177.716 97.1583 180.909L20.6338 191.588C17.5517 189.342 16.6787 185.123 18.6165 181.839L19.1661 180.907L95.5384 170.413Z"/>
</mask>
<path d="M95.5384 170.413L96.0768 171.025C98.4833 173.763 98.9158 177.716 97.1583 180.909L20.6338 191.588C17.5517 189.342 16.6787 185.123 18.6165 181.839L19.1661 180.907L95.5384 170.413Z" fill="white"/>
<path d="M19.2342 181.403C19.3262 181.39 19.5055 181.414 19.7728 181.548C20.0308 181.677 20.3275 181.888 20.634 182.176C21.2471 182.752 21.8575 183.597 22.2482 184.586C22.6378 185.572 22.8021 186.683 22.555 187.808C22.3092 188.927 21.6472 190.099 20.3148 191.203L20.9527 191.973C22.4363 190.744 23.2326 189.384 23.5317 188.022C23.8297 186.667 23.6257 185.351 23.1782 184.218C22.7318 183.088 22.0361 182.121 21.3187 181.447C20.96 181.11 20.5853 180.837 20.2213 180.654C19.8668 180.476 19.4735 180.36 19.098 180.412L19.2342 181.403ZM95.5384 170.413L96.2895 169.753L95.9347 169.349L95.4022 169.422L95.5384 170.413ZM19.1661 180.907L19.03 179.916L18.5507 179.982L18.3048 180.399L19.1661 180.907ZM18.6165 181.839L17.7552 181.331L18.6165 181.839ZM97.0201 179.919L20.4956 190.598L20.772 192.578L97.2965 181.9L97.0201 179.919ZM19.3022 181.898L95.6745 171.403L95.4022 169.422L19.03 179.916L19.3022 181.898ZM94.7873 171.073L95.3257 171.686L96.8279 170.365L96.2895 169.753L94.7873 171.073ZM19.4778 182.347L20.0274 181.415L18.3048 180.399L17.7552 181.331L19.4778 182.347ZM21.2227 190.78C18.5567 188.837 17.8016 185.188 19.4778 182.347L17.7552 181.331C15.5558 185.059 16.5467 189.847 20.0449 192.396L21.2227 190.78ZM95.3257 171.686C97.4541 174.107 97.8366 177.603 96.2822 180.427L98.0343 181.392C99.995 177.829 99.5126 173.42 96.8279 170.365L95.3257 171.686Z" fill="url(#paint3_linear_2616_26461)" mask="url(#path-5-inside-3_2616_26461)"/>
<path d="M127.832 160.683L113.823 162.627M183.194 153.001L195.098 151.349L183.194 153.001Z" stroke="url(#paint4_linear_2616_26461)"/>
<path d="M175.655 166.302C191.253 164.137 183.409 143.785 158.655 143.477" stroke="url(#paint5_linear_2616_26461)"/>
<path d="M128.516 148.001C117.909 152.536 131.385 173.127 150.677 170.45C156.014 169.709 162.733 167.215 154.637 156.628C145.461 144.629 157.6 143.284 160.944 143.501" stroke="url(#paint6_linear_2616_26461)"/>
</g>
<defs>
<linearGradient id="paint0_linear_2616_26461" x1="9" y1="42.2572" x2="207.354" y2="95.7287" gradientUnits="userSpaceOnUse">
<stop stop-color="#3586FF"/>
<stop offset="1" stop-color="#83E0B3"/>
</linearGradient>
<linearGradient id="paint1_linear_2616_26461" x1="229.525" y1="133.708" x2="200.872" y2="264.902" gradientUnits="userSpaceOnUse">
<stop stop-color="#3586FF"/>
<stop offset="1" stop-color="#83E0B3"/>
</linearGradient>
<linearGradient id="paint2_linear_2616_26461" x1="230.463" y1="126.257" x2="201.851" y2="257.42" gradientUnits="userSpaceOnUse">
<stop stop-color="#3586FF"/>
<stop offset="1" stop-color="#83E0B3"/>
</linearGradient>
<linearGradient id="paint3_linear_2616_26461" x1="107.647" y1="168.749" x2="109.667" y2="187.131" gradientUnits="userSpaceOnUse">
<stop stop-color="#3586FF"/>
<stop offset="1" stop-color="#83E0B3"/>
</linearGradient>
<linearGradient id="paint4_linear_2616_26461" x1="203.08" y1="150.241" x2="203.282" y2="151.719" gradientUnits="userSpaceOnUse">
<stop stop-color="#3586FF"/>
<stop offset="1" stop-color="#83E0B3"/>
</linearGradient>
<linearGradient id="paint5_linear_2616_26461" x1="174.168" y1="141.324" x2="168.853" y2="174.804" gradientUnits="userSpaceOnUse">
<stop stop-color="#3586FF"/>
<stop offset="1" stop-color="#83E0B3"/>
</linearGradient>
<linearGradient id="paint6_linear_2616_26461" x1="164.908" y1="142.689" x2="165.637" y2="183.227" gradientUnits="userSpaceOnUse">
<stop stop-color="#3586FF"/>
<stop offset="1" stop-color="#83E0B3"/>
</linearGradient>
<clipPath id="clip0_2616_26461">
<rect width="224" height="224" fill="white"/>
</clipPath>
</defs>
</svg>
