<svg width="206" height="97" viewBox="0 0 206 97" fill="none" xmlns="http://www.w3.org/2000/svg">
<rect x="-0.0781785" y="0.400792" width="105.415" height="121.102" rx="6.3233" transform="matrix(0.817763 0.575555 -0.97412 0.22603 119.345 7.78061)" fill="white" stroke="url(#paint0_linear_5222_55731)"/>
<rect x="-0.0390893" y="0.200396" width="105.307" height="0.5" rx="0.25" transform="matrix(0.817763 0.575555 -0.97412 0.22603 96.8756 12.7472)" fill="url(#paint1_linear_5222_55731)" stroke="url(#paint2_linear_5222_55731)" stroke-width="0.5"/>
<rect x="-0.0781785" y="0.400792" width="105.415" height="121.102" rx="6.3233" transform="matrix(0.817763 0.575555 -0.97412 0.22603 119.345 6.2999)" fill="white" stroke="url(#paint3_linear_5222_55731)"/>
<rect x="-0.0390893" y="0.200396" width="105.307" height="0.5" rx="0.25" transform="matrix(0.817763 0.575555 -0.97412 0.22603 96.8756 11.2665)" fill="url(#paint4_linear_5222_55731)" stroke="url(#paint5_linear_5222_55731)" stroke-width="0.5"/>
<rect x="-0.0781785" y="0.400792" width="105.415" height="121.102" rx="6.3233" transform="matrix(0.817763 0.575555 -0.97412 0.22603 119.345 4.81845)" fill="white" stroke="url(#paint6_linear_5222_55731)"/>
<rect x="-0.0390893" y="0.200396" width="105.307" height="0.5" rx="0.25" transform="matrix(0.817763 0.575555 -0.97412 0.22603 96.8756 9.78502)" fill="url(#paint7_linear_5222_55731)" stroke="url(#paint8_linear_5222_55731)" stroke-width="0.5"/>
<rect x="-0.0781785" y="0.400792" width="105.415" height="121.102" rx="6.3233" transform="matrix(0.817763 0.575555 -0.97412 0.22603 119.345 3.33676)" fill="white" stroke="url(#paint9_linear_5222_55731)"/>
<rect x="-0.0390893" y="0.200396" width="105.307" height="0.5" rx="0.25" transform="matrix(0.817763 0.575555 -0.97412 0.22603 96.8756 8.30333)" fill="url(#paint10_linear_5222_55731)" stroke="url(#paint11_linear_5222_55731)" stroke-width="0.5"/>
<mask id="path-9-inside-1_5222_55731" fill="white">
<path d="M112.326 1.56217C115.997 0.710395 121.471 1.77816 124.553 3.94708L200.415 57.3401C203.496 59.5091 203.019 61.9578 199.348 62.8096L93.6991 87.3238C90.0282 88.1756 84.5542 87.1078 81.4725 84.9389L5.61027 31.5459C2.52861 29.3769 3.00626 26.9282 6.67715 26.0764L112.326 1.56217Z"/>
</mask>
<path d="M112.326 1.56217C115.997 0.710395 121.471 1.77816 124.553 3.94708L200.415 57.3401C203.496 59.5091 203.019 61.9578 199.348 62.8096L93.6991 87.3238C90.0282 88.1756 84.5542 87.1078 81.4725 84.9389L5.61027 31.5459C2.52861 29.3769 3.00626 26.9282 6.67715 26.0764L112.326 1.56217Z" fill="white"/>
<path d="M69.4197 31.2852L99.4197 23.7852L98.5803 23.2148L68.5803 30.7148L69.4197 31.2852ZM86.9265 47.2834L119.399 38.7834L118.546 38.2166L86.0735 46.7166L86.9265 47.2834ZM111.933 64.7818L144.933 55.7818L144.067 55.2182L111.067 64.2182L111.933 64.7818ZM123.578 4.17311L199.441 57.5662L201.389 57.1141L125.527 3.72105L123.578 4.17311ZM198.53 62.234L92.8813 86.7483L94.5168 87.8994L200.166 63.3851L198.53 62.234ZM82.4466 84.7129L6.58439 31.3198L4.63615 31.7719L80.4984 85.1649L82.4466 84.7129ZM7.49491 26.6519L113.144 2.13772L111.508 0.986613L5.85938 25.5008L7.49491 26.6519ZM6.58439 31.3198C3.95437 29.4688 4.36202 27.3789 7.49491 26.6519L5.85938 25.5008C1.65051 26.4774 1.10285 29.2851 4.63615 31.7719L6.58439 31.3198ZM92.8813 86.7483C89.7484 87.4752 85.0767 86.5639 82.4466 84.7129L80.4984 85.1649C84.0317 87.6517 90.308 88.876 94.5168 87.8994L92.8813 86.7483ZM199.441 57.5662C202.071 59.4172 201.663 61.5071 198.53 62.234L200.166 63.3851C204.375 62.4085 204.922 59.6009 201.389 57.1141L199.441 57.5662ZM125.527 3.72105C121.993 1.23426 115.717 0.0100067 111.508 0.986613L113.144 2.13772C116.277 1.41078 120.948 2.32206 123.578 4.17311L125.527 3.72105Z" fill="url(#paint12_linear_5222_55731)" mask="url(#path-9-inside-1_5222_55731)"/>
<rect x="-0.0390893" y="0.200396" width="105.307" height="0.5" rx="0.25" transform="matrix(0.817763 0.575555 -0.97412 0.22603 96.8795 5.34166)" fill="url(#paint13_linear_5222_55731)" stroke="url(#paint14_linear_5222_55731)" stroke-width="0.5"/>
<rect x="-0.0781785" y="0.400792" width="17.9573" height="20.752" rx="2.5" transform="matrix(0.817763 0.575555 -0.97412 0.22603 43.5715 23.7505)" fill="white" stroke="url(#paint15_linear_5222_55731)"/>
<path d="M42 22.5C41.4702 24.9505 42 27.75 41 30.5M32.5 41.5C35.6336 39.5716 39 36 41 30.5M28 29.5C28 29.5 33.9459 30.0567 41 30.5M53 33.5C51.591 32.2923 48.1453 30.949 41 30.5" stroke="url(#paint16_linear_5222_55731)"/>
<rect x="-0.0781785" y="0.400792" width="17.9573" height="20.752" rx="2.5" transform="matrix(0.817763 0.575555 -0.97412 0.22603 64.5637 40.3552)" fill="white" stroke="url(#paint17_linear_5222_55731)"/>
<rect x="-0.0781785" y="0.400792" width="17.9573" height="20.752" rx="2.5" transform="matrix(0.817763 0.575555 -0.97412 0.22603 89.5637 58.3552)" fill="white" stroke="url(#paint18_linear_5222_55731)"/>
<ellipse cx="2.71639" cy="2.3562" rx="2.71639" ry="2.3562" transform="matrix(0.668376 0.373749 -0.557828 0.639549 124.328 7.51147)" fill="url(#paint19_linear_5222_55731)"/>
<path d="M131.957 9.91056C132.461 9.33358 132.785 8.67183 132.897 7.99267C133.009 7.31351 132.905 6.64121 132.596 6.04422C132.287 5.44723 131.783 4.94686 131.136 4.59408C130.489 4.2413 129.722 4.0487 128.913 4.03589C128.105 4.02307 127.283 4.19051 126.531 4.52114C125.78 4.85178 125.126 5.3338 124.637 5.91814C124.147 6.50248 123.839 7.16825 123.743 7.84768C123.648 8.5271 123.769 9.19591 124.094 9.786L125.359 9.2163C125.131 8.80259 125.046 8.3337 125.113 7.85735C125.18 7.38101 125.396 6.91424 125.739 6.50457C126.083 6.09489 126.541 5.75695 127.068 5.52514C127.595 5.29334 128.171 5.17595 128.738 5.18493C129.305 5.19391 129.843 5.32895 130.296 5.57628C130.75 5.82361 131.103 6.17441 131.32 6.59296C131.537 7.01151 131.61 7.48286 131.531 7.95901C131.452 8.43516 131.225 8.89912 130.872 9.30363L131.957 9.91056Z" fill="url(#paint20_linear_5222_55731)"/>
<ellipse cx="2.71639" cy="2.3562" rx="2.71639" ry="2.3562" transform="matrix(0.668376 0.373749 -0.557828 0.639549 140.52 18.9095)" fill="url(#paint21_linear_5222_55731)"/>
<path d="M148.149 21.3073C148.652 20.7303 148.976 20.0686 149.089 19.3894C149.201 18.7102 149.097 18.0379 148.787 17.4409C148.478 16.844 147.974 16.3436 147.327 15.9908C146.681 15.638 145.914 15.4454 145.105 15.4326C144.296 15.4198 143.474 15.5872 142.723 15.9179C141.971 16.2485 141.318 16.7305 140.828 17.3149C140.338 17.8992 140.03 18.565 139.935 19.2444C139.839 19.9238 139.96 20.5926 140.285 21.1827L141.551 20.613C141.323 20.1993 141.238 19.7304 141.305 19.2541C141.371 18.7777 141.587 18.311 141.931 17.9013C142.274 17.4916 142.733 17.1537 143.259 16.9219C143.786 16.6901 144.362 16.5727 144.929 16.5817C145.496 16.5906 146.034 16.7257 146.488 16.973C146.941 17.2203 147.294 17.5711 147.511 17.9897C147.728 18.4082 147.801 18.8796 147.722 19.3557C147.644 19.8319 147.416 20.2958 147.064 20.7004L148.149 21.3073Z" fill="url(#paint22_linear_5222_55731)"/>
<ellipse cx="2.71639" cy="2.3562" rx="2.71639" ry="2.3562" transform="matrix(0.668376 0.373749 -0.557828 0.639549 156.715 30.3057)" fill="url(#paint23_linear_5222_55731)"/>
<path d="M164.344 32.7047C164.847 32.1278 165.172 31.466 165.284 30.7869C165.396 30.1077 165.292 29.4354 164.983 28.8384C164.673 28.2414 164.17 27.7411 163.523 27.3883C162.876 27.0355 162.109 26.8429 161.3 26.8301C160.491 26.8173 159.669 26.9847 158.918 27.3153C158.167 27.646 157.513 28.128 157.023 28.7123C156.534 29.2967 156.225 29.9624 156.13 30.6419C156.035 31.3213 156.156 31.9901 156.481 32.5802L157.746 32.0105C157.518 31.5968 157.433 31.1279 157.5 30.6515C157.567 30.1752 157.783 29.7084 158.126 29.2988C158.47 28.8891 158.928 28.5511 159.455 28.3193C159.981 28.0875 160.558 27.9701 161.125 27.9791C161.692 27.9881 162.229 28.1231 162.683 28.3705C163.136 28.6178 163.49 28.9686 163.707 29.3872C163.923 29.8057 163.996 30.277 163.918 30.7532C163.839 31.2294 163.612 31.6933 163.259 32.0978L164.344 32.7047Z" fill="url(#paint24_linear_5222_55731)"/>
<ellipse cx="2.71639" cy="2.3562" rx="2.71639" ry="2.3562" transform="matrix(0.668376 0.373749 -0.557828 0.639549 172.906 41.7025)" fill="url(#paint25_linear_5222_55731)"/>
<path d="M180.536 44.1016C181.039 43.5246 181.363 42.8629 181.475 42.1837C181.587 41.5046 181.484 40.8323 181.174 40.2353C180.865 39.6383 180.361 39.1379 179.714 38.7851C179.067 38.4323 178.3 38.2397 177.492 38.2269C176.683 38.2141 175.861 38.3815 175.109 38.7122C174.358 39.0428 173.704 39.5248 173.215 40.1092C172.725 40.6935 172.417 41.3593 172.321 42.0387C172.226 42.7181 172.347 43.3869 172.672 43.977L173.937 43.4073C173.709 42.9936 173.625 42.5247 173.691 42.0484C173.758 41.5721 173.974 41.1053 174.318 40.6956C174.661 40.2859 175.119 39.948 175.646 39.7162C176.173 39.4844 176.749 39.367 177.316 39.376C177.883 39.385 178.421 39.52 178.874 39.7673C179.328 40.0147 179.681 40.3655 179.898 40.784C180.115 41.2026 180.188 41.6739 180.109 42.1501C180.03 42.6262 179.803 43.0902 179.45 43.4947L180.536 44.1016Z" fill="url(#paint26_linear_5222_55731)"/>
<ellipse cx="2.71639" cy="2.3562" rx="2.71639" ry="2.3562" transform="matrix(0.668376 0.373749 -0.557828 0.639549 189.098 53.1007)" fill="url(#paint27_linear_5222_55731)"/>
<path d="M196.727 55.4984C197.23 54.9215 197.554 54.2597 197.667 53.5806C197.779 52.9014 197.675 52.2291 197.366 51.6321C197.056 51.0351 196.552 50.5348 195.906 50.182C195.259 49.8292 194.492 49.6366 193.683 49.6238C192.874 49.611 192.052 49.7784 191.301 50.109C190.55 50.4397 189.896 50.9217 189.406 51.506C188.916 52.0904 188.608 52.7561 188.513 53.4356C188.418 54.115 188.539 54.7838 188.864 55.3739L190.129 54.8042C189.901 54.3905 189.816 53.9216 189.883 53.4452C189.95 52.9689 190.166 52.5021 190.509 52.0925C190.852 51.6828 191.311 51.3448 191.837 51.113C192.364 50.8812 192.94 50.7638 193.507 50.7728C194.075 50.7818 194.612 50.9168 195.066 51.1642C195.519 51.4115 195.872 51.7623 196.089 52.1809C196.306 52.5994 196.379 53.0707 196.3 53.5469C196.222 54.0231 195.994 54.487 195.642 54.8915L196.727 55.4984Z" fill="url(#paint28_linear_5222_55731)"/>
<path d="M63 39C62.4702 41.4505 63 44.25 62 47M53.5 58C56.6336 56.0716 60 52.5 62 47M49 46C49 46 54.9459 46.5567 62 47M74 50C72.591 48.7923 69.1453 47.449 62 47" stroke="url(#paint29_linear_5222_55731)"/>
<path d="M87 57C86.4702 59.4505 87 62.25 86 65M77.5 76C80.6336 74.0716 84 70.5 86 65M73 64C73 64 78.9459 64.5567 86 65M98 68C96.591 66.7923 93.1453 65.449 86 65" stroke="url(#paint30_linear_5222_55731)"/>
<defs>
<linearGradient id="paint0_linear_5222_55731" x1="-1.92088e-06" y1="-11.9922" x2="176.364" y2="21.156" gradientUnits="userSpaceOnUse">
<stop stop-color="#3586FF"/>
<stop offset="1" stop-color="#83E0B3"/>
</linearGradient>
<linearGradient id="paint1_linear_5222_55731" x1="-1.90991e-06" y1="-0.0982142" x2="0.34801" y2="7.84288" gradientUnits="userSpaceOnUse">
<stop stop-color="#3586FF"/>
<stop offset="1" stop-color="#83E0B3"/>
</linearGradient>
<linearGradient id="paint2_linear_5222_55731" x1="-1.90991e-06" y1="-0.0982142" x2="0.34801" y2="7.84288" gradientUnits="userSpaceOnUse">
<stop stop-color="#3586FF"/>
<stop offset="1" stop-color="#83E0B3"/>
</linearGradient>
<linearGradient id="paint3_linear_5222_55731" x1="-1.92088e-06" y1="-11.9922" x2="176.364" y2="21.156" gradientUnits="userSpaceOnUse">
<stop stop-color="#3586FF"/>
<stop offset="1" stop-color="#83E0B3"/>
</linearGradient>
<linearGradient id="paint4_linear_5222_55731" x1="-1.90991e-06" y1="-0.0982142" x2="0.34801" y2="7.84288" gradientUnits="userSpaceOnUse">
<stop stop-color="#3586FF"/>
<stop offset="1" stop-color="#83E0B3"/>
</linearGradient>
<linearGradient id="paint5_linear_5222_55731" x1="-1.90991e-06" y1="-0.0982142" x2="0.34801" y2="7.84288" gradientUnits="userSpaceOnUse">
<stop stop-color="#3586FF"/>
<stop offset="1" stop-color="#83E0B3"/>
</linearGradient>
<linearGradient id="paint6_linear_5222_55731" x1="-1.92088e-06" y1="-11.9922" x2="176.364" y2="21.156" gradientUnits="userSpaceOnUse">
<stop stop-color="#3586FF"/>
<stop offset="1" stop-color="#83E0B3"/>
</linearGradient>
<linearGradient id="paint7_linear_5222_55731" x1="-1.90991e-06" y1="-0.0982142" x2="0.34801" y2="7.84288" gradientUnits="userSpaceOnUse">
<stop stop-color="#3586FF"/>
<stop offset="1" stop-color="#83E0B3"/>
</linearGradient>
<linearGradient id="paint8_linear_5222_55731" x1="-1.90991e-06" y1="-0.0982142" x2="0.34801" y2="7.84288" gradientUnits="userSpaceOnUse">
<stop stop-color="#3586FF"/>
<stop offset="1" stop-color="#83E0B3"/>
</linearGradient>
<linearGradient id="paint9_linear_5222_55731" x1="-1.92088e-06" y1="-11.9922" x2="176.364" y2="21.156" gradientUnits="userSpaceOnUse">
<stop stop-color="#3586FF"/>
<stop offset="1" stop-color="#83E0B3"/>
</linearGradient>
<linearGradient id="paint10_linear_5222_55731" x1="-1.90991e-06" y1="-0.0982142" x2="0.34801" y2="7.84288" gradientUnits="userSpaceOnUse">
<stop stop-color="#3586FF"/>
<stop offset="1" stop-color="#83E0B3"/>
</linearGradient>
<linearGradient id="paint11_linear_5222_55731" x1="-1.90991e-06" y1="-0.0982142" x2="0.34801" y2="7.84288" gradientUnits="userSpaceOnUse">
<stop stop-color="#3586FF"/>
<stop offset="1" stop-color="#83E0B3"/>
</linearGradient>
<linearGradient id="paint12_linear_5222_55731" x1="130.654" y1="-2.69069" x2="143.13" y2="116.702" gradientUnits="userSpaceOnUse">
<stop stop-color="#3586FF"/>
<stop offset="1" stop-color="#83E0B3"/>
</linearGradient>
<linearGradient id="paint13_linear_5222_55731" x1="-1.90991e-06" y1="-0.0982142" x2="0.34801" y2="7.84288" gradientUnits="userSpaceOnUse">
<stop stop-color="#3586FF"/>
<stop offset="1" stop-color="#83E0B3"/>
</linearGradient>
<linearGradient id="paint14_linear_5222_55731" x1="-1.90991e-06" y1="-0.0982142" x2="0.34801" y2="7.84288" gradientUnits="userSpaceOnUse">
<stop stop-color="#3586FF"/>
<stop offset="1" stop-color="#83E0B3"/>
</linearGradient>
<linearGradient id="paint15_linear_5222_55731" x1="-3.42197e-07" y1="-2.13636" x2="31.4185" y2="3.76885" gradientUnits="userSpaceOnUse">
<stop stop-color="#3586FF"/>
<stop offset="1" stop-color="#83E0B3"/>
</linearGradient>
<linearGradient id="paint16_linear_5222_55731" x1="28" y1="20.6339" x2="67.7001" y2="31.8994" gradientUnits="userSpaceOnUse">
<stop stop-color="#3586FF"/>
<stop offset="1" stop-color="#83E0B3"/>
</linearGradient>
<linearGradient id="paint17_linear_5222_55731" x1="-3.42197e-07" y1="-2.13636" x2="31.4185" y2="3.76885" gradientUnits="userSpaceOnUse">
<stop stop-color="#3586FF"/>
<stop offset="1" stop-color="#83E0B3"/>
</linearGradient>
<linearGradient id="paint18_linear_5222_55731" x1="-3.42197e-07" y1="-2.13636" x2="31.4185" y2="3.76885" gradientUnits="userSpaceOnUse">
<stop stop-color="#3586FF"/>
<stop offset="1" stop-color="#83E0B3"/>
</linearGradient>
<linearGradient id="paint19_linear_5222_55731" x1="-9.80668e-08" y1="-0.462825" x2="8.77928" y2="1.71996" gradientUnits="userSpaceOnUse">
<stop stop-color="#3586FF"/>
<stop offset="1" stop-color="#83E0B3"/>
</linearGradient>
<linearGradient id="paint20_linear_5222_55731" x1="128.102" y1="1.94326" x2="136.183" y2="12.3219" gradientUnits="userSpaceOnUse">
<stop stop-color="#3586FF"/>
<stop offset="1" stop-color="#83E0B3"/>
</linearGradient>
<linearGradient id="paint21_linear_5222_55731" x1="-9.80668e-08" y1="-0.462825" x2="8.77928" y2="1.71996" gradientUnits="userSpaceOnUse">
<stop stop-color="#3586FF"/>
<stop offset="1" stop-color="#83E0B3"/>
</linearGradient>
<linearGradient id="paint22_linear_5222_55731" x1="144.294" y1="13.34" x2="152.375" y2="23.7186" gradientUnits="userSpaceOnUse">
<stop stop-color="#3586FF"/>
<stop offset="1" stop-color="#83E0B3"/>
</linearGradient>
<linearGradient id="paint23_linear_5222_55731" x1="-9.80668e-08" y1="-0.462825" x2="8.77928" y2="1.71996" gradientUnits="userSpaceOnUse">
<stop stop-color="#3586FF"/>
<stop offset="1" stop-color="#83E0B3"/>
</linearGradient>
<linearGradient id="paint24_linear_5222_55731" x1="160.489" y1="24.7375" x2="168.57" y2="35.1161" gradientUnits="userSpaceOnUse">
<stop stop-color="#3586FF"/>
<stop offset="1" stop-color="#83E0B3"/>
</linearGradient>
<linearGradient id="paint25_linear_5222_55731" x1="-9.80668e-08" y1="-0.462825" x2="8.77928" y2="1.71996" gradientUnits="userSpaceOnUse">
<stop stop-color="#3586FF"/>
<stop offset="1" stop-color="#83E0B3"/>
</linearGradient>
<linearGradient id="paint26_linear_5222_55731" x1="176.68" y1="36.1343" x2="184.761" y2="46.513" gradientUnits="userSpaceOnUse">
<stop stop-color="#3586FF"/>
<stop offset="1" stop-color="#83E0B3"/>
</linearGradient>
<linearGradient id="paint27_linear_5222_55731" x1="-9.80668e-08" y1="-0.462825" x2="8.77928" y2="1.71996" gradientUnits="userSpaceOnUse">
<stop stop-color="#3586FF"/>
<stop offset="1" stop-color="#83E0B3"/>
</linearGradient>
<linearGradient id="paint28_linear_5222_55731" x1="192.872" y1="47.5312" x2="200.953" y2="57.9098" gradientUnits="userSpaceOnUse">
<stop stop-color="#3586FF"/>
<stop offset="1" stop-color="#83E0B3"/>
</linearGradient>
<linearGradient id="paint29_linear_5222_55731" x1="49" y1="37.1339" x2="88.7001" y2="48.3994" gradientUnits="userSpaceOnUse">
<stop stop-color="#3586FF"/>
<stop offset="1" stop-color="#83E0B3"/>
</linearGradient>
<linearGradient id="paint30_linear_5222_55731" x1="73" y1="55.1339" x2="112.7" y2="66.3994" gradientUnits="userSpaceOnUse">
<stop stop-color="#3586FF"/>
<stop offset="1" stop-color="#83E0B3"/>
</linearGradient>
</defs>
</svg>
