<svg width="154" height="155" viewBox="0 0 154 155" fill="none" xmlns="http://www.w3.org/2000/svg">
<path d="M1.63569 50.7011L55.023 150.121C56.7921 153.449 61.0634 155.014 64.5634 153.617L146.845 120.779C150.345 119.382 151.748 115.552 149.979 112.225M1.63569 50.7011L57.2538 145.856C59.1321 149.123 63.453 150.546 66.9048 149.034L148.053 113.486C151.504 111.974 151.785 107.797 149.906 104.53M1.63569 50.7011L61.0466 141.896C63.1036 145.054 67.4969 146.234 70.8593 144.532L149.906 104.53M1.63569 50.7011C-0.374573 47.6153 0.585494 43.7668 3.80496 42.0053L23 31.5M149.906 104.53C153.269 102.828 154.327 98.8894 152.27 95.7319L92.814 4.46791C90.8218 1.40993 86.6199 0.190148 83.2776 1.69958L66.5 9.50006M23 31.5L20.8233 27.6877C19.7948 25.8884 20.4172 23.7466 22.2532 22.7674L26.5019 20.5015L24.5145 17.0929C23.6807 15.6629 24.2502 13.9515 25.7836 13.2791L49.0211 3.08933C50.4324 2.47044 52.1885 2.94552 53.0946 4.19134L55.5019 7.50146L59.4571 5.77109C61.4818 4.88529 63.9684 5.69658 65.0719 7.52128C65.2316 7.7853 65.3838 8.05519 65.5724 8.29936L66.5 9.50006M23 31.5L25.994 36.8198C26.8188 38.2866 28.7788 38.9065 30.3205 38.1882L68.8265 20.2479C70.3126 19.5556 70.8506 17.8765 70.0368 16.4707L66.5 9.50006M29.997 18.9988L51.997 9.50006M55.5019 60.5L98.4074 39.2517M72.3167 85.4988L112.5 64.5M85.5 110L125 89M40.5356 49.4049C40.3086 52.8723 39.7807 58.6283 38.9468 64.3505M38.9468 64.3505C38.1803 69.6099 37.1553 74.8408 35.8675 78.2399M38.9468 64.3505C33.487 62.5633 27.9499 60.6304 24.1247 59.2503M38.9468 64.3505C46.8627 66.9416 54.6162 69.2263 56.7546 69.0758M54.6149 72.4922C54.3878 75.9596 53.86 81.7156 53.0261 87.4378M53.0261 87.4378C52.2596 92.6972 51.2345 97.9281 49.9468 101.327M53.0261 87.4378C47.5662 85.6506 42.0292 83.7177 38.204 82.3376M53.0261 87.4378C60.942 90.0289 68.6955 92.3136 70.8339 92.1631M68.6336 97.0783C68.4066 100.546 67.8787 106.302 67.0448 112.024M67.0448 112.024C66.2783 117.283 65.2532 122.514 63.9655 125.913M67.0448 112.024C61.585 110.237 56.0479 108.304 52.2227 106.924M67.0448 112.024C74.9607 114.615 82.7142 116.9 84.8526 116.749M39.3113 74.182L47.4457 69.793C49.3899 68.744 50.1155 66.3175 49.0665 64.3733L44.2124 55.3769C43.1634 53.4327 40.7369 52.707 38.7927 53.756L30.6583 58.1451C28.7141 59.1941 27.9884 61.6205 29.0375 63.5647L33.8916 72.5612C34.9406 74.5054 37.3671 75.231 39.3113 74.182ZM53.3225 97.8892L61.4569 93.5002C63.4011 92.4511 64.1268 90.0247 63.0778 88.0805L58.2236 79.084C57.1746 77.1398 54.7481 76.4142 52.8039 77.4632L44.6695 81.8522C42.7254 82.9012 41.9997 85.3277 43.0487 87.2719L47.9028 96.2683C48.9519 98.2125 51.3783 98.9382 53.3225 97.8892ZM67.3412 122.475L75.4756 118.086C77.4198 117.037 78.1455 114.611 77.0965 112.667L72.2423 103.67C71.1933 101.726 68.7668 101 66.8226 102.049L58.6883 106.438C56.7441 107.487 56.0184 109.914 57.0674 111.858L61.9215 120.854C62.9706 122.799 65.397 123.524 67.3412 122.475Z" stroke="url(#paint0_linear_5222_54484)"/>
<defs>
<linearGradient id="paint0_linear_5222_54484" x1="0.585935" y1="-13.9809" x2="251.06" y2="39.9164" gradientUnits="userSpaceOnUse">
<stop stop-color="#3586FF"/>
<stop offset="1" stop-color="#83E0B3"/>
</linearGradient>
</defs>
</svg>
