<svg width="21" height="20" viewBox="0 0 21 20" fill="none" xmlns="http://www.w3.org/2000/svg">
<rect width="21" height="20" fill="#E5E5E5"/>
<path d="M-2799 -2251C-2799 -2252.1 -2798.1 -2253 -2797 -2253H2036C2037.1 -2253 2038 -2252.1 2038 -2251V5592C2038 5593.1 2037.1 5594 2036 5594H-2797C-2798.1 5594 -2799 5593.1 -2799 5592V-2251Z" fill="white"/>
<g filter="url(#filter0_b_1410_20411)">
<rect x="-252" y="-44" width="282" height="74" rx="6" fill="url(#paint0_linear_1410_20411)"/>
<circle cx="10" cy="10" r="9.5" stroke="url(#paint1_linear_1410_20411)"/>
<path d="M6.08691 10.4726L10.0621 13.913L20 2.60869" stroke="url(#paint2_linear_1410_20411)"/>
<rect x="-251.5" y="-43.5" width="281" height="73" rx="5.5" stroke="#5E97EC" stroke-opacity="0.27"/>
</g>
<rect x="-1101.5" y="-961.5" width="2968" height="2115" rx="4.5" stroke="#7B61FF" stroke-dasharray="10 5"/>
<path d="M-2797 -2252H2036V-2254H-2797V-2252ZM2037 -2251V5592H2039V-2251H2037ZM2036 5593H-2797V5595H2036V5593ZM-2798 5592V-2251H-2800V5592H-2798ZM-2797 5593C-2797.55 5593 -2798 5592.55 -2798 5592H-2800C-2800 5593.66 -2798.66 5595 -2797 5595V5593ZM2037 5592C2037 5592.55 2036.55 5593 2036 5593V5595C2037.66 5595 2039 5593.66 2039 5592H2037ZM2036 -2252C2036.55 -2252 2037 -2251.55 2037 -2251H2039C2039 -2252.66 2037.66 -2254 2036 -2254V-2252ZM-2797 -2254C-2798.66 -2254 -2800 -2252.66 -2800 -2251H-2798C-2798 -2251.55 -2797.55 -2252 -2797 -2252V-2254Z" fill="black" fill-opacity="0.1"/>
<defs>
<filter id="filter0_b_1410_20411" x="-292" y="-84" width="362" height="154" filterUnits="userSpaceOnUse" color-interpolation-filters="sRGB">
<feFlood flood-opacity="0" result="BackgroundImageFix"/>
<feGaussianBlur in="BackgroundImageFix" stdDeviation="20"/>
<feComposite in2="SourceAlpha" operator="in" result="effect1_backgroundBlur_1410_20411"/>
<feBlend mode="normal" in="SourceGraphic" in2="effect1_backgroundBlur_1410_20411" result="shape"/>
</filter>
<linearGradient id="paint0_linear_1410_20411" x1="-237.312" y1="-41.3742" x2="-106.741" y2="130.41" gradientUnits="userSpaceOnUse">
<stop offset="0.115141" stop-color="white" stop-opacity="0.13"/>
<stop offset="1" stop-color="white" stop-opacity="0.04"/>
</linearGradient>
<linearGradient id="paint1_linear_1410_20411" x1="-3.61018e-07" y1="-1.96428" x2="32.7923" y2="5.10775" gradientUnits="userSpaceOnUse">
<stop stop-color="#3586FF"/>
<stop offset="1" stop-color="#83E0B3"/>
</linearGradient>
<linearGradient id="paint2_linear_1410_20411" x1="6.08691" y1="1.49844" x2="28.3887" y2="7.41799" gradientUnits="userSpaceOnUse">
<stop stop-color="#3586FF"/>
<stop offset="1" stop-color="#83E0B3"/>
</linearGradient>
</defs>
</svg>
