<svg width="23" height="44" viewBox="0 0 23 44" fill="none" xmlns="http://www.w3.org/2000/svg">
<mask id="path-1-inside-1_3464_3309" fill="white">
<path d="M11 14.2106V23.6779C11 24.2371 11.2239 24.6904 11.5 24.6904C11.7761 24.6904 12 24.2371 12 23.6779V14.2106C12 13.6514 11.7761 13.198 11.5 13.198C11.2239 13.198 11 13.6514 11 14.2106Z"/>
</mask>
<path d="M11 14.2106V23.6779C11 24.2371 11.2239 24.6904 11.5 24.6904C11.7761 24.6904 12 24.2371 12 23.6779V14.2106C12 13.6514 11.7761 13.198 11.5 13.198C11.2239 13.198 11 13.6514 11 14.2106Z" fill="#3586FF"/>
<path d="M12 23.6779V14.2106H10V23.6779H12ZM12 14.2106C12 14.0508 12.0341 13.9556 12.0431 13.9374C12.0475 13.9284 12.0269 13.9763 11.9559 14.0371C11.8785 14.1034 11.7217 14.198 11.5 14.198V12.198C10.7725 12.198 10.3905 12.767 10.2498 13.0518C10.0778 13.4001 10 13.8111 10 14.2106H12ZM11.5 14.198C11.2783 14.198 11.1215 14.1034 11.0441 14.0371C10.9731 13.9763 10.9525 13.9284 10.9569 13.9374C10.9659 13.9556 11 14.0508 11 14.2106H13C13 13.8111 12.9222 13.4001 12.7502 13.0518C12.6095 12.767 12.2275 12.198 11.5 12.198V14.198ZM11 14.2106V23.6779H13V14.2106H11ZM11 23.6779C11 23.8376 10.9659 23.9329 10.9569 23.9511C10.9525 23.96 10.9731 23.9121 11.0441 23.8513C11.1215 23.785 11.2783 23.6904 11.5 23.6904V25.6904C12.2275 25.6904 12.6095 25.1214 12.7502 24.8366C12.9222 24.4883 13 24.0773 13 23.6779H11ZM11.5 23.6904C11.7217 23.6904 11.8785 23.785 11.9559 23.8513C12.0269 23.9121 12.0475 23.96 12.0431 23.9511C12.0341 23.9329 12 23.8376 12 23.6779H10C10 24.0773 10.0778 24.4883 10.2498 24.8366C10.3905 25.1214 10.7725 25.6904 11.5 25.6904V23.6904Z" fill="#3586FF" mask="url(#path-1-inside-1_3464_3309)"/>
<path d="M10.6827 13.3008C9.07533 9.56002 11.0487 7.61262 3.55328 6.21057C3.1787 8.34302 4.69894 14.1966 10.6827 13.3008Z" stroke="#3586FF"/>
<path d="M11.9922 12.8324C14.3438 6.70075 11.4567 3.5087 22.4225 1.21057C22.9705 4.70593 20.7464 14.3007 11.9922 12.8324Z" stroke="#3586FF"/>
<path d="M22.0482 24.1954H0.5V29.9416H22.0482V24.1954Z" stroke="#3586FF"/>
<path d="M5.96288 42.8703L3.37305 29.9414H19.1751L17.2743 42.8703H5.96288Z" stroke="#3586FF"/>
</svg>
