<svg width="53" height="52" viewBox="0 0 53 52" fill="none" xmlns="http://www.w3.org/2000/svg">
<mask id="path-1-inside-1_3464_3308" fill="white">
<path d="M26 18.2106V27.6779C26 28.2371 26.2239 28.6904 26.5 28.6904C26.7761 28.6904 27 28.2371 27 27.6779V18.2106C27 17.6514 26.7761 17.198 26.5 17.198C26.2239 17.198 26 17.6514 26 18.2106Z"/>
</mask>
<path d="M26 18.2106V27.6779C26 28.2371 26.2239 28.6904 26.5 28.6904C26.7761 28.6904 27 28.2371 27 27.6779V18.2106C27 17.6514 26.7761 17.198 26.5 17.198C26.2239 17.198 26 17.6514 26 18.2106Z" fill="#3586FF"/>
<path d="M27 27.6779V18.2106H25V27.6779H27ZM27 18.2106C27 18.0508 27.0341 17.9556 27.0431 17.9374C27.0475 17.9284 27.0269 17.9763 26.9559 18.0371C26.8785 18.1034 26.7217 18.198 26.5 18.198V16.198C25.7725 16.198 25.3905 16.767 25.2498 17.0518C25.0778 17.4001 25 17.8111 25 18.2106H27ZM26.5 18.198C26.2783 18.198 26.1215 18.1034 26.0441 18.0371C25.9731 17.9763 25.9525 17.9284 25.9569 17.9374C25.9659 17.9556 26 18.0508 26 18.2106H28C28 17.8111 27.9222 17.4001 27.7502 17.0518C27.6095 16.767 27.2275 16.198 26.5 16.198V18.198ZM26 18.2106V27.6779H28V18.2106H26ZM26 27.6779C26 27.8376 25.9659 27.9329 25.9569 27.9511C25.9525 27.96 25.9731 27.9121 26.0441 27.8513C26.1215 27.785 26.2783 27.6904 26.5 27.6904V29.6904C27.2275 29.6904 27.6095 29.1214 27.7502 28.8366C27.9222 28.4883 28 28.0773 28 27.6779H26ZM26.5 27.6904C26.7217 27.6904 26.8785 27.785 26.9559 27.8513C27.0269 27.9121 27.0475 27.96 27.0431 27.9511C27.0341 27.9329 27 27.8376 27 27.6779H25C25 28.0773 25.0778 28.4883 25.2498 28.8366C25.3905 29.1214 25.7725 29.6904 26.5 29.6904V27.6904Z" fill="#3586FF" mask="url(#path-1-inside-1_3464_3308)"/>
<path d="M25.6827 17.3008C24.0753 13.56 26.0487 11.6126 18.5533 10.2106C18.1787 12.343 19.6989 18.1966 25.6827 17.3008Z" stroke="#3586FF"/>
<path d="M26.9922 16.8324C29.3438 10.7007 26.4567 7.5087 37.4225 5.21057C37.9705 8.70593 35.7464 18.3007 26.9922 16.8324Z" stroke="#3586FF"/>
<path d="M37.0482 28.1954H15.5V33.9416H37.0482V28.1954Z" stroke="#3586FF"/>
<path d="M20.9629 46.8703L18.373 33.9414H34.1751L32.2743 46.8703H20.9629Z" stroke="#3586FF"/>
</svg>
