<svg width="58" height="71" viewBox="0 0 58 71" fill="none" xmlns="http://www.w3.org/2000/svg">
<path d="M42.5 16.2186C42.5 9.32832 38.2886 1 28.8943 1C19.5 1 15.5 9.10969 15.5 16M16 57.25C16 50.3597 22.1023 43 29.3566 43C37.75 43 43 50.3597 43 57.25M13.7226 24.584L19.7227 20.584M44.2774 24.584L38.2774 20.584M1 16.2186H56.7877V70.0001H1V16.2186ZM47 33.5C47 34.3284 46.3284 35 45.5 35C44.6716 35 44 34.3284 44 33.5C44 32.6716 44.6716 28 45.5 28C46.3284 28 47 32.6716 47 33.5Z" stroke="#FF9797"/>
</svg>
