<svg width="24" height="24" viewBox="0 0 24 24" fill="none" xmlns="http://www.w3.org/2000/svg">
<path d="M10.4913 3.49485C12.0488 3.20421 13.6572 3.37048 15.1223 3.97359C16.5875 4.5767 17.8468 5.5909 18.7484 6.8938C19.65 8.19671 20.1553 9.73267 20.2033 11.3164C20.2514 12.9001 19.8402 14.4638 19.0193 15.819L17.8208 15.0931C18.5016 13.9692 18.8427 12.6723 18.8028 11.3589C18.763 10.0455 18.3439 8.77164 17.5962 7.6911C16.8485 6.61055 15.8041 5.76945 14.589 5.26927C13.3739 4.76909 12.04 4.6312 10.7483 4.87224L10.4913 3.49485Z" fill="#3586FF"/>
<path d="M17 13.5L18.5967 16.0339L21.0461 14.6963" stroke="#3586FF" stroke-width="1.3"/>
<path d="M14.8755 19.2554C13.1522 19.8997 11.2625 19.9465 9.50941 19.3883C7.75637 18.8301 6.24162 17.6992 5.20817 16.1771C4.17472 14.655 3.68247 12.8299 3.81039 10.9946C3.9383 9.15928 4.67897 7.42011 5.91358 6.0561L7.04358 7.07889C6.03817 8.18968 5.43501 9.60598 5.33084 11.1006C5.22667 12.5952 5.62753 14.0815 6.46912 15.321C7.31072 16.5605 8.54426 17.4814 9.97186 17.936C11.3995 18.3906 12.9384 18.3525 14.3417 17.8278L14.8755 19.2554Z" fill="#3586FF"/>
<path d="M7.5 8.49994L6.37983 5.91744L3.71984 6.76192" stroke="#3586FF" stroke-width="1.3"/>
</svg>
