<svg width="160" height="160" viewBox="0 0 160 160" fill="none" xmlns="http://www.w3.org/2000/svg">
<path d="M78.9744 56.8137L79.3697 57.1198L79.3697 57.1198L78.9744 56.8137ZM114.66 46.6343L114.581 46.1407L114.581 46.1407L114.66 46.6343ZM124.596 48.2239L124.744 47.7461V47.7461L124.596 48.2239ZM138.98 47.4944L138.9 47.0009L138.9 47.0009L138.98 47.4944ZM143.428 45.1755L143.348 44.6819L143.428 45.1755ZM146.549 63.858L146.06 63.7567V63.7567L146.549 63.858ZM140.004 72.9126L140.294 72.5053L140.004 72.9126ZM123.522 80.3776L123.844 80.7603L123.522 80.3776ZM107.128 89.5551L107.208 90.0487C107.236 90.0441 107.264 90.037 107.292 90.0275L107.128 89.5551ZM99.4737 89.6559L99.3649 89.1679H99.3649L99.4737 89.6559ZM89.194 90.8472L89.2739 91.3408L89.194 90.8472ZM81.3386 91.3905L81.3789 91.8889L81.3386 91.3905ZM79.3083 90.4224L79.7244 90.1451L79.3083 90.4224ZM76.4102 87.0168L76.6285 86.5669L76.4102 87.0168ZM68.2853 80.6974L68.0372 80.2633C68.0319 80.2663 68.0267 80.2695 68.0215 80.2727L68.2853 80.6974ZM82.7518 82.7485L82.306 82.9749C82.4041 83.168 82.6153 83.276 82.8292 83.2425L82.7518 82.7485ZM90.5078 81.233L90.3871 80.7477L90.5078 81.233ZM82.2646 72.0808L82.5618 71.6787C82.4091 71.5659 82.2058 71.5492 82.0368 71.6357L82.2646 72.0808ZM61.03 77.6307L60.5406 77.5285L61.03 77.6307ZM62.9516 72.0808L62.6003 71.725L62.9516 72.0808ZM68.1971 66.2699L68.2219 66.7693C68.3587 66.7625 68.4867 66.6999 68.5761 66.5961L68.1971 66.2699ZM73.5903 61.2776L73.3591 60.8342L73.3591 60.8342L73.5903 61.2776ZM86.9335 54.3207L87.1696 54.7614L87.1696 54.7614L86.9335 54.3207ZM86.1157 59.2059L86.3295 59.6578C86.3755 59.6361 86.418 59.6074 86.4554 59.5728L86.1157 59.2059ZM100.242 47.3274L100.321 46.8337L100.321 46.8337L100.242 47.3274ZM92.1391 47.0413L91.8756 46.6164L91.8756 46.6164L92.1391 47.0413ZM60.6486 125.826L61.1286 125.966L60.6486 125.826ZM47.1485 121.885L47.6284 122.025L47.1485 121.885ZM47.6216 120.264L48.1016 120.404L48.226 119.978L47.8173 119.804L47.6216 120.264ZM34.5903 114.721L34.786 114.261L34.7588 114.249L34.7304 114.241L34.5903 114.721ZM32.1441 110.509L31.6632 110.372L31.6632 110.372L32.1441 110.509ZM33.691 108.587L33.4452 108.152L33.4451 108.152L33.691 108.587ZM44.0811 94.7555L43.6012 94.6154L44.0811 94.7555ZM62.1438 83.0685L62.2478 82.5794L62.2182 82.5731L62.1879 82.5704L62.1438 83.0685ZM68.8929 85.0388L69.1237 84.5952L69.1237 84.5952L68.8929 85.0388ZM77.8305 104.608L77.3506 104.468L77.8305 104.608ZM79.1468 121.858L78.7053 122.092L78.7054 122.093L79.1468 121.858ZM79.4169 124.31L78.9379 124.166L78.9378 124.166L79.4169 124.31ZM75.0887 126.544L75.2289 126.064L75.2005 126.056L75.1713 126.051L75.0887 126.544ZM61.1218 124.206L61.2043 123.712L60.7663 123.639L60.6418 124.065L61.1218 124.206ZM69.875 136.377L70.2705 136.683L70.5954 136.263L70.1567 135.964L69.875 136.377ZM60.5505 142.904L60.3923 142.43L60.5505 142.904ZM48.7713 143.415L48.8854 142.928L48.7713 143.415ZM38.5079 137.738L38.1534 138.09L38.5079 137.738ZM33.2195 127.786L33.152 127.29L32.6333 127.361L32.7277 127.876L33.2195 127.786ZM67.7595 151.184L68.0889 151.56L68.5451 151.161L68.0661 150.789L67.7595 151.184ZM56.3106 156.118L56.3779 156.613L56.3106 156.118ZM42.5564 154.605L42.7241 154.134L42.5564 154.605ZM31.133 147.156L30.7631 147.492L31.133 147.156ZM25.8906 136.281L25.9057 135.781L25.3262 135.764L25.3941 136.34L25.8906 136.281ZM85.7571 74.0817L85.5683 74.5447L85.7571 74.0817ZM80.3938 54.8311C79.7276 55.1798 79.1088 55.8234 78.5791 56.5076L79.3697 57.1198C79.8734 56.4693 80.3853 55.9642 80.8575 55.7171L80.3938 54.8311ZM78.5791 56.5075C77.9186 57.3605 77.6323 57.9434 77.5283 58.3509C77.4752 58.5588 77.4666 58.7326 77.4891 58.8777C77.5004 58.9503 77.5192 59.0135 77.5423 59.0677C77.5538 59.0946 77.5662 59.1188 77.5788 59.1403C77.5851 59.1511 77.5914 59.1611 77.5977 59.1704C77.6008 59.1751 77.6039 59.1796 77.607 59.1839C77.6086 59.186 77.6101 59.1881 77.6116 59.1902C77.6124 59.1912 77.6131 59.1923 77.6139 59.1933C77.6143 59.1938 77.6148 59.1945 77.615 59.1948C77.6156 59.1955 77.6162 59.1963 78.0135 58.8928C78.4109 58.5893 78.4114 58.59 78.412 58.5908C78.4122 58.591 78.4128 58.5917 78.4131 58.5922C78.4139 58.5932 78.4146 58.5942 78.4153 58.5952C78.4168 58.5971 78.4182 58.5991 78.4196 58.601C78.4224 58.6049 78.425 58.6088 78.4276 58.6126C78.4327 58.6202 78.4374 58.6277 78.4417 58.6349C78.4502 58.6494 78.4568 58.6629 78.462 58.6751C78.4726 58.6998 78.4762 58.7171 78.4773 58.7242C78.4795 58.7384 78.4705 58.7031 78.4972 58.5983C78.5528 58.3806 78.747 57.9239 79.3697 57.1198L78.5791 56.5075ZM108.463 48.144L114.74 47.1279L114.581 46.1407L108.303 47.1568L108.463 48.144ZM114.66 46.6343C114.74 47.1279 114.74 47.1279 114.74 47.1279C114.74 47.1279 114.74 47.128 114.739 47.128C114.739 47.128 114.739 47.1281 114.739 47.1281C114.739 47.1281 114.739 47.1281 114.739 47.1281C114.739 47.1281 114.74 47.1279 114.742 47.1276C114.745 47.1271 114.752 47.1262 114.762 47.1249C114.781 47.1224 114.813 47.1185 114.858 47.1141C114.947 47.1053 115.086 47.0944 115.276 47.0873C115.656 47.0732 116.24 47.0748 117.038 47.1408C118.634 47.2727 121.082 47.6626 124.449 48.7016L124.744 47.7461C121.313 46.6875 118.794 46.2826 117.121 46.1442C116.284 46.075 115.659 46.0724 115.238 46.088C115.028 46.0958 114.869 46.1082 114.759 46.119C114.705 46.1244 114.663 46.1294 114.633 46.1333C114.618 46.1352 114.606 46.1369 114.597 46.1381C114.593 46.1388 114.589 46.1393 114.587 46.1397C114.585 46.14 114.584 46.1401 114.583 46.1403C114.582 46.1404 114.582 46.1405 114.582 46.1405C114.581 46.1406 114.581 46.1406 114.581 46.1406C114.581 46.1407 114.581 46.1407 114.66 46.6343ZM124.449 48.7016C125.282 48.9589 126.458 49.0567 127.751 49.0658C129.057 49.0749 130.529 48.9933 131.98 48.8695C134.883 48.6218 137.733 48.2029 139.06 47.988L138.9 47.0009C137.587 47.2135 134.764 47.6284 131.895 47.8731C130.461 47.9955 129.022 48.0746 127.758 48.0658C126.483 48.0569 125.43 47.9579 124.744 47.7461L124.449 48.7016ZM139.06 47.988C139.885 47.8545 140.474 47.6541 140.927 47.4072C141.384 47.1578 141.676 46.8747 141.913 46.6213C142.159 46.3597 142.304 46.1832 142.526 46.0265C142.73 45.8824 143.016 45.7487 143.508 45.669L143.348 44.6819C142.73 44.7819 142.297 44.9643 141.95 45.2093C141.62 45.4417 141.381 45.7273 141.184 45.9371C140.98 46.155 140.772 46.3525 140.448 46.5294C140.119 46.7087 139.645 46.8804 138.9 47.0009L139.06 47.988ZM143.508 45.669C143.719 45.6348 143.941 45.6943 144.195 45.9161C144.459 46.1477 144.732 46.5366 144.996 47.0911C145.52 48.1968 145.941 49.8234 146.225 51.724C146.79 55.5205 146.784 60.2576 146.06 63.7567L147.039 63.9593C147.791 60.3226 147.793 55.4644 147.214 51.5766C146.924 49.635 146.485 47.8972 145.899 46.6625C145.607 46.0468 145.263 45.5215 144.853 45.1632C144.432 44.7952 143.921 44.5892 143.348 44.6819L143.508 45.669ZM146.06 63.7567C145.779 65.1149 145.067 67.9798 143.988 70.1685C143.443 71.2729 142.838 72.1334 142.206 72.5712C141.899 72.7832 141.604 72.8841 141.312 72.884C141.022 72.8839 140.684 72.7836 140.294 72.5053L139.714 73.3199C140.237 73.693 140.773 73.8839 141.312 73.884C141.85 73.8841 142.34 73.6941 142.775 73.3935C143.624 72.8059 144.321 71.7534 144.884 70.6109C146.021 68.3058 146.753 65.3405 147.039 63.9593L146.06 63.7567ZM140.294 72.5053C138.012 70.88 135.423 71.3663 132.639 72.886C129.859 74.4031 126.719 77.0365 123.2 79.9949L123.844 80.7603C127.391 77.7779 130.446 75.2222 133.118 73.7637C135.786 72.3077 137.905 72.0319 139.714 73.3199L140.294 72.5053ZM123.2 79.9949C119.711 82.9281 115.654 85.2015 112.458 86.7439C110.862 87.5141 109.486 88.0999 108.509 88.4927C108.021 88.6891 107.633 88.8372 107.368 88.9359C107.235 88.9852 107.134 89.0222 107.065 89.0468C107.031 89.059 107.005 89.0682 106.988 89.0742C106.98 89.0772 106.974 89.0794 106.97 89.0808C106.967 89.0815 106.966 89.0821 106.965 89.0824C106.965 89.0825 106.964 89.0826 106.964 89.0827C106.964 89.0827 106.964 89.0828 106.964 89.0828C106.964 89.0828 106.964 89.0828 107.128 89.5551C107.292 90.0275 107.292 90.0275 107.292 90.0274C107.292 90.0274 107.292 90.0273 107.293 90.0272C107.293 90.0271 107.293 90.0269 107.294 90.0267C107.295 90.0262 107.297 90.0256 107.3 90.0247C107.305 90.023 107.312 90.0205 107.321 90.0172C107.34 90.0105 107.367 90.0008 107.403 89.9879C107.475 89.9621 107.581 89.9238 107.717 89.873C107.99 89.7715 108.386 89.6203 108.882 89.4204C109.876 89.0207 111.273 88.426 112.892 87.6445C116.127 86.0833 120.266 83.7679 123.844 80.7603L123.2 79.9949ZM107.048 89.0615C106.771 89.1063 106.286 89.116 105.642 89.1039C105.009 89.0919 104.272 89.0604 103.503 89.0344C102.003 88.9835 100.344 88.9496 99.3649 89.1679L99.5825 90.1439C100.409 89.9596 101.922 89.9813 103.469 90.0338C104.225 90.0594 104.98 90.0915 105.623 90.1037C106.256 90.1156 106.829 90.11 107.208 90.0487L107.048 89.0615ZM99.3649 89.1679C95.9676 89.9254 94.0485 90.1178 92.6793 90.1733C91.3433 90.2274 90.3931 90.1466 89.1141 90.3536L89.2739 91.3408C90.4781 91.1458 91.247 91.2321 92.7198 91.1725C94.1593 91.1142 96.1385 90.9119 99.5825 90.1439L99.3649 89.1679ZM89.1141 90.3536C88.248 90.4938 86.9276 90.5789 85.49 90.6538C84.0669 90.728 82.5386 90.7917 81.2983 90.8921L81.3789 91.8889C82.6002 91.79 84.1017 91.7275 85.542 91.6525C86.9678 91.5782 88.3444 91.4912 89.2739 91.3408L89.1141 90.3536ZM79.7244 90.1451C79.3181 89.5357 78.7819 88.7662 78.2434 88.097C77.9743 87.7626 77.6992 87.4463 77.4349 87.1852C77.1781 86.9315 76.9014 86.6994 76.6285 86.5669L76.1919 87.4666C76.3145 87.5261 76.4972 87.6646 76.7321 87.8966C76.9595 88.1213 77.2084 88.4059 77.4643 88.7239C77.9757 89.3595 78.493 90.1009 78.8923 90.6998L79.7244 90.1451ZM76.6285 86.5669C71.4918 84.0744 69.5582 82.5364 68.8895 81.68C68.563 81.2619 68.5996 81.0862 68.6003 81.0825C68.6018 81.0753 68.6026 81.0781 68.5966 81.0853C68.5941 81.0883 68.59 81.0925 68.5833 81.0981C68.5798 81.101 68.5754 81.1044 68.5699 81.1084C68.5672 81.1103 68.5641 81.1125 68.5606 81.1148C68.5589 81.1159 68.5571 81.1171 68.5552 81.1183C68.5542 81.1189 68.5532 81.1196 68.5522 81.1202C68.5517 81.1205 68.551 81.121 68.5507 81.1211C68.5499 81.1216 68.5492 81.1221 68.2853 80.6974C68.0215 80.2727 68.0206 80.2732 68.0198 80.2737C68.0196 80.2739 68.0187 80.2744 68.0182 80.2747C68.017 80.2755 68.0159 80.2762 68.0146 80.277C68.0122 80.2785 68.0097 80.2802 68.0069 80.282C68.0015 80.2856 67.9955 80.2898 67.989 80.2944C67.976 80.3037 67.9608 80.3152 67.9441 80.3291C67.9109 80.3567 67.8707 80.3945 67.8296 80.4437C67.7462 80.5433 67.6594 80.6893 67.62 80.8851C67.539 81.2875 67.6807 81.7569 68.1013 82.2955C68.9267 83.3525 71.0557 84.9743 76.1919 87.4666L76.6285 86.5669ZM68.5334 81.1315C74.6983 77.6087 80.5195 79.4573 82.306 82.9749L83.1976 82.5221C81.064 78.321 74.5111 76.5639 68.0372 80.2633L68.5334 81.1315ZM82.8292 83.2425C86.0217 82.7423 88.5799 82.2276 90.6284 81.7182L90.3871 80.7477C88.3735 81.2485 85.8451 81.7577 82.6744 82.2546L82.8292 83.2425ZM85.9459 73.6187C84.994 73.2305 83.8417 72.6248 82.5618 71.6787L81.9674 72.4829C83.3147 73.4788 84.5399 74.1253 85.5683 74.5447L85.9459 73.6187ZM82.0368 71.6357C79.6587 72.8527 77.9301 73.2375 76.4057 73.4135C75.6268 73.5034 74.9176 73.5377 74.1567 73.5999C73.4066 73.6612 72.6364 73.7481 71.8015 73.9429L72.0288 74.9168C72.7944 74.7381 73.509 74.6562 74.2382 74.5966C74.9567 74.5379 75.7212 74.4992 76.5204 74.4069C78.1524 74.2185 79.9981 73.8024 82.4924 72.5259L82.0368 71.6357ZM61.5194 77.733C61.6824 76.9534 61.7846 76.3111 61.8704 75.7692C61.9571 75.2214 62.0245 74.7948 62.1187 74.4167C62.2965 73.7023 62.5684 73.1618 63.3029 72.4366L62.6003 71.725C61.741 72.5734 61.3725 73.2745 61.1483 74.175C61.0414 74.6043 60.9673 75.0784 60.8827 75.6129C60.7971 76.1533 60.6981 76.7747 60.5406 77.5285L61.5194 77.733ZM63.3029 72.4366C63.8185 71.9274 64.2312 71.2957 64.5974 70.6646C64.7811 70.348 64.9582 70.0224 65.1306 69.7085C65.3045 69.3918 65.4745 69.0853 65.6503 68.7938C66.3662 67.6071 67.0897 66.8256 68.2219 66.7693L68.1722 65.7705C66.496 65.854 65.5315 67.0549 64.7941 68.2772C64.6067 68.5879 64.428 68.9103 64.2541 69.2272C64.0786 69.5466 63.9087 69.859 63.7325 70.1628C63.3787 70.7724 63.0193 71.3112 62.6003 71.725L63.3029 72.4366ZM68.1971 66.2699C68.5761 66.5961 68.576 66.5961 68.576 66.5961C68.5761 66.5961 68.5761 66.5961 68.5761 66.596C68.5762 66.5959 68.5763 66.5958 68.5765 66.5956C68.5768 66.5952 68.5774 66.5946 68.5781 66.5937C68.5796 66.5919 68.5819 66.5893 68.585 66.5857C68.5913 66.5785 68.6006 66.5676 68.6131 66.5534C68.6379 66.5249 68.6748 66.4826 68.7226 66.4283C68.8182 66.3196 68.9574 66.1628 69.1308 65.9712C69.4778 65.5878 69.9606 65.0662 70.5043 64.5132C71.6109 63.3878 72.9073 62.1976 73.8214 61.721L73.3591 60.8342C72.2841 61.3948 70.884 62.7007 69.7912 63.8121C69.2353 64.3776 68.7428 64.9097 68.3893 65.3002C68.2125 65.4956 68.0702 65.6559 67.9719 65.7676C67.9227 65.8235 67.8846 65.8672 67.8585 65.8971C67.8455 65.9121 67.8356 65.9236 67.8288 65.9314C67.8254 65.9353 67.8228 65.9383 67.821 65.9404C67.8201 65.9414 67.8194 65.9422 67.8189 65.9428C67.8187 65.9431 67.8185 65.9433 67.8184 65.9434C67.8183 65.9435 67.8182 65.9436 67.8182 65.9436C67.8182 65.9437 67.8181 65.9437 68.1971 66.2699ZM73.8214 61.721C79.3115 58.8585 78.6745 59.3128 87.1696 54.7614L86.6973 53.8799C78.2028 58.4311 78.8799 57.9558 73.3591 60.8342L73.8214 61.721ZM87.1696 54.7614C87.655 54.5013 88.0891 54.1115 88.4904 53.7866C88.9098 53.4472 89.3509 53.1247 89.9281 52.8884C91.0681 52.4215 92.8613 52.2434 96.2018 53.2742L96.4966 52.3187C93.0396 51.2519 90.9867 51.3742 89.5491 51.963C88.8374 52.2545 88.3068 52.6487 87.8613 53.0093C87.3977 53.3846 87.0736 53.6783 86.6973 53.8799L87.1696 54.7614ZM60.5406 77.5285C60.3849 78.2733 60.2091 78.8204 60.0743 79.3011C59.9468 79.7558 59.8353 80.2115 59.9137 80.6579C59.998 81.1382 60.281 81.522 60.7263 81.8979C61.1632 82.2667 61.8078 82.6707 62.7037 83.1826L63.1998 82.3144C62.3031 81.802 61.7311 81.4374 61.3714 81.1338C61.0202 80.8373 60.9266 80.6446 60.8986 80.4849C60.8646 80.2913 60.9048 80.0434 61.0372 79.5711C61.1623 79.1248 61.3546 78.5216 61.5194 77.733L60.5406 77.5285ZM90.6284 81.7182C91.9042 81.4009 92.8881 80.9812 93.5809 80.4804C94.2748 79.9788 94.7136 79.3661 94.7976 78.6705C94.8819 77.9729 94.595 77.3111 94.0888 76.744C93.5844 76.1788 92.8367 75.6745 91.9044 75.256L91.4949 76.1683C92.3463 76.5505 92.9613 76.9824 93.3427 77.4098C93.7224 77.8353 93.8445 78.2223 93.8049 78.5506C93.765 78.8809 93.547 79.271 92.995 79.67C92.442 80.0698 91.5912 80.4483 90.3871 80.7477L90.6284 81.7182ZM81.2983 90.8921C80.6715 90.9428 80.0637 90.6541 79.7244 90.1451L78.8923 90.6998C79.4399 91.5211 80.4027 91.9679 81.3789 91.8889L81.2983 90.8921ZM68.2564 66.7228C72.4259 66.0474 76.0031 64.5417 86.3295 59.6578L85.9019 58.7539C75.5434 63.6529 72.0996 65.0873 68.0965 65.7357L68.2564 66.7228ZM86.4554 59.5728C88.963 57.2514 90.9647 56.7213 92.6489 56.7674C93.5086 56.7909 94.3089 56.965 95.0937 57.1637C95.8601 57.3577 96.6498 57.5871 97.404 57.6779L97.5236 56.6851C96.8527 56.6043 96.1586 56.4018 95.3391 56.1943C94.5379 55.9914 93.6502 55.7944 92.6763 55.7678C90.6934 55.7135 88.4462 56.3672 85.776 58.8389L86.4554 59.5728ZM111.481 47.1053C111.401 46.6118 111.401 46.6117 111.401 46.6117C111.401 46.6118 111.401 46.6118 111.401 46.6118C111.401 46.6118 111.401 46.6118 111.401 46.6119C111.4 46.612 111.399 46.6121 111.398 46.6123C111.395 46.6128 111.391 46.6134 111.385 46.6143C111.374 46.6161 111.357 46.6188 111.334 46.6223C111.288 46.6294 111.22 46.6397 111.13 46.6526C110.952 46.6784 110.691 46.7145 110.362 46.7555C109.703 46.8375 108.772 46.9388 107.688 47.0154C105.513 47.1692 102.748 47.2218 100.321 46.8337L100.163 47.8211C102.701 48.2271 105.555 48.1687 107.759 48.0129C108.864 47.9348 109.812 47.8316 110.485 47.7479C110.822 47.706 111.089 47.6689 111.274 47.6423C111.366 47.6289 111.437 47.6182 111.486 47.6107C111.51 47.607 111.528 47.6041 111.541 47.6021C111.548 47.6011 111.552 47.6003 111.556 47.5998C111.557 47.5995 111.559 47.5993 111.56 47.5992C111.56 47.5991 111.56 47.599 111.561 47.599C111.561 47.599 111.561 47.5989 111.561 47.5989C111.561 47.5989 111.561 47.5989 111.481 47.1053ZM100.321 46.8337C99.6547 46.7272 97.8186 46.5261 96.0484 46.4157C95.1622 46.3604 94.2807 46.327 93.5633 46.3408C93.2054 46.3476 92.8779 46.3663 92.6063 46.4022C92.3584 46.4351 92.0783 46.4907 91.8756 46.6164L92.4027 47.4663C92.3948 47.4712 92.4133 47.4589 92.4806 47.441C92.543 47.4244 92.628 47.4081 92.7375 47.3936C92.9567 47.3646 93.2426 47.3471 93.5824 47.3406C94.2604 47.3276 95.1111 47.3592 95.9861 47.4138C97.7381 47.5231 99.5397 47.7215 100.163 47.8211L100.321 46.8337ZM91.8756 46.6164C90.3211 47.5805 89.1284 48.7886 87.5458 50.1265C85.9439 51.4807 83.8537 53.0542 80.3992 54.8557L80.8616 55.7424C84.3901 53.9022 86.5412 52.2852 88.1914 50.8902C89.8609 49.4788 90.9311 48.3789 92.4027 47.4663L91.8756 46.6164ZM60.1687 125.686C59.2126 128.961 55.6397 130.839 52.1567 129.822L51.8765 130.782C55.8474 131.941 60.0057 129.813 61.1286 125.966L60.1687 125.686ZM52.1567 129.822C48.6737 128.805 46.6724 125.3 47.6284 122.025L46.6685 121.745C45.5456 125.591 47.9056 129.623 51.8765 130.782L52.1567 129.822ZM47.6284 122.025L48.1016 120.404L47.1416 120.124L46.6685 121.745L47.6284 122.025ZM47.8173 119.804L34.786 114.261L34.3946 115.181L47.4259 120.724L47.8173 119.804ZM34.7304 114.241C32.9844 113.731 32.2273 112.044 32.625 110.646L31.6632 110.372C31.1196 112.284 32.1611 114.533 34.4502 115.201L34.7304 114.241ZM32.625 110.646C32.806 110.009 33.2294 109.422 33.937 109.023L33.4451 108.152C32.507 108.682 31.9157 109.484 31.6632 110.372L32.625 110.646ZM33.9369 109.023C35.2406 108.287 37.1608 107.368 39.1133 105.319C41.0692 103.268 43.0392 100.109 44.5611 94.8956L43.6012 94.6154C42.1149 99.7064 40.2144 102.715 38.3895 104.629C36.5613 106.547 34.7906 107.392 33.4452 108.152L33.9369 109.023ZM44.5611 94.8956C46.771 87.3258 54.1077 82.859 62.0998 83.5665L62.1879 82.5704C53.7796 81.8261 45.9608 86.5327 43.6012 94.6154L44.5611 94.8956ZM62.1438 83.0685C62.0399 83.5575 62.0399 83.5575 62.0399 83.5575C62.0399 83.5576 62.0399 83.5576 62.04 83.5576C62.0401 83.5576 62.0403 83.5576 62.0406 83.5577C62.0411 83.5578 62.042 83.558 62.0431 83.5582C62.0454 83.5587 62.0489 83.5595 62.0535 83.5605C62.0627 83.5624 62.0766 83.5654 62.0949 83.5694C62.1314 83.5773 62.1855 83.589 62.255 83.6043C62.3941 83.6349 62.5951 83.6798 62.8419 83.7364C63.3357 83.8497 64.0117 84.01 64.741 84.1983C66.2217 84.5806 67.8517 85.0607 68.6621 85.4823L69.1237 84.5952C68.1944 84.1117 66.45 83.6067 64.991 83.2301C64.2505 83.0389 63.5654 82.8764 63.0656 82.7617C62.8156 82.7043 62.6116 82.6589 62.47 82.6277C62.3991 82.6121 62.3439 82.6001 62.3062 82.5919C62.2873 82.5879 62.2729 82.5848 62.2631 82.5827C62.2582 82.5816 62.2544 82.5808 62.2519 82.5803C62.2506 82.58 62.2496 82.5798 62.2489 82.5796C62.2486 82.5796 62.2483 82.5795 62.2482 82.5795C62.2481 82.5795 62.248 82.5794 62.2479 82.5794C62.2479 82.5794 62.2478 82.5794 62.1438 83.0685ZM68.6621 85.4823C75.7794 89.1859 79.5605 96.8984 77.3506 104.468L78.3105 104.748C80.6701 96.6658 76.6118 88.4917 69.1237 84.5952L68.6621 85.4823ZM77.3506 104.468C75.8287 109.681 75.7895 113.404 76.3343 116.186C76.8782 118.963 78.0024 120.771 78.7053 122.092L79.5882 121.623C78.8629 120.259 77.8249 118.594 77.3157 115.994C76.8074 113.398 76.8242 109.839 78.3105 104.748L77.3506 104.468ZM78.7054 122.093C79.0867 122.809 79.1278 123.532 78.9379 124.166L79.8959 124.453C80.1606 123.569 80.0943 122.574 79.5881 121.623L78.7054 122.093ZM78.9378 124.166C78.5215 125.559 76.9751 126.574 75.2289 126.064L74.9486 127.024C77.2374 127.692 79.3267 126.358 79.896 124.453L78.9378 124.166ZM75.1713 126.051L61.2043 123.712L61.0392 124.699L75.0062 127.037L75.1713 126.051ZM60.6418 124.065L60.1687 125.686L61.1286 125.966L61.6017 124.346L60.6418 124.065ZM63.4499 83.3732C63.2919 79.2631 63.9282 76.4823 64.8797 74.7393C65.8265 73.0051 67.0648 72.322 68.1671 72.2886C70.3484 72.2225 72.6519 74.8098 71.4357 78.764L72.3915 79.058C73.7351 74.6897 71.237 71.1951 68.1368 71.2891C66.5984 71.3357 65.0759 72.2931 64.002 74.2601C62.933 76.2182 62.2887 79.1992 62.4506 83.4116L63.4499 83.3732ZM69.1597 85.5366L70.4401 82.9758L69.5457 82.5286L68.2653 85.0894L69.1597 85.5366ZM50.6281 120.358L58.3104 122.919L58.6267 121.97L50.9443 119.409L50.6281 120.358ZM69.4796 136.071C67.2198 138.992 64.059 141.207 60.3923 142.43L60.7087 143.378C64.5549 142.096 67.884 139.768 70.2705 136.683L69.4796 136.071ZM60.3923 142.43C56.7254 143.653 52.7205 143.827 48.8854 142.928L48.6573 143.902C52.6693 144.842 56.8628 144.661 60.7087 143.378L60.3923 142.43ZM48.8854 142.928C45.0504 142.029 41.5627 140.099 38.8623 137.385L38.1534 138.09C40.9895 140.941 44.6452 142.962 48.6573 143.902L48.8854 142.928ZM38.8623 137.385C36.1622 134.671 34.3721 131.299 33.7113 127.695L32.7277 127.876C33.4265 131.686 35.3171 135.24 38.1534 138.09L38.8623 137.385ZM33.287 128.281L34.1542 128.163L34.0192 127.172L33.152 127.29L33.287 128.281ZM68.875 136.3L69.5934 136.79L70.1567 135.964L69.4383 135.474L68.875 136.3ZM67.4302 150.808C64.5356 153.342 60.6467 155.024 56.2434 155.622L56.3779 156.613C60.9468 155.993 65.0264 154.241 68.0889 151.56L67.4302 150.808ZM56.2434 155.622C51.8404 156.22 47.1344 155.704 42.7241 154.134L42.3888 155.076C46.9417 156.697 51.8086 157.233 56.3779 156.613L56.2434 155.622ZM42.7241 154.134C38.3137 152.564 34.4097 150.016 31.5029 146.82L30.7631 147.492C33.7892 150.82 37.836 153.456 42.3888 155.076L42.7241 154.134ZM31.5029 146.82C28.5961 143.624 26.8248 139.933 26.3872 136.223L25.3941 136.34C25.8595 140.286 27.7369 144.165 30.7631 147.492L31.5029 146.82ZM25.8755 136.781L26.8955 136.812L26.9257 135.812L25.9057 135.781L25.8755 136.781ZM66.6619 150.965L67.453 151.579L68.0661 150.789L67.275 150.175L66.6619 150.965ZM85.5683 74.5447C86.5726 74.9541 87.6389 75.1595 88.6397 75.3623C89.6581 75.5687 90.6148 75.7732 91.4949 76.1683L91.9044 75.256C90.9082 74.8088 89.8458 74.5864 88.8382 74.3822C87.8129 74.1744 86.8461 73.9857 85.9459 73.6187L85.5683 74.5447Z" fill="url(#paint0_linear_4474_39306)"/>
<defs>
<linearGradient id="paint0_linear_4474_39306" x1="25.8906" y1="34.2381" x2="223.021" y2="80.5873" gradientUnits="userSpaceOnUse">
<stop stop-color="#3586FF"/>
<stop offset="1" stop-color="#83E0B3"/>
</linearGradient>
</defs>
</svg>
