<svg width="39" height="38" viewBox="0 0 39 38" fill="none" xmlns="http://www.w3.org/2000/svg">
<rect x="0.578125" width="38" height="38" rx="4" fill="url(#paint0_linear_1998_25001)"/>
<g clip-path="url(#clip0_1998_25001)">
<mask id="path-2-outside-1_1998_25001" maskUnits="userSpaceOnUse" x="8.07812" y="6.5" width="24" height="24" fill="black">
<rect fill="white" x="8.07812" y="6.5" width="24" height="24"/>
<path d="M29.3906 16.0938H22.3594V9.0625C22.3594 8.19971 21.6597 7.5 20.7969 7.5H19.2344C18.3716 7.5 17.6719 8.19971 17.6719 9.0625V16.0938H10.6406C9.77783 16.0938 9.07812 16.7935 9.07812 17.6562V19.2188C9.07812 20.0815 9.77783 20.7812 10.6406 20.7812H17.6719V27.8125C17.6719 28.6753 18.3716 29.375 19.2344 29.375H20.7969C21.6597 29.375 22.3594 28.6753 22.3594 27.8125V20.7812H29.3906C30.2534 20.7812 30.9531 20.0815 30.9531 19.2188V17.6562C30.9531 16.7935 30.2534 16.0938 29.3906 16.0938Z"/>
</mask>
<path d="M29.3906 16.0938H22.3594V9.0625C22.3594 8.19971 21.6597 7.5 20.7969 7.5H19.2344C18.3716 7.5 17.6719 8.19971 17.6719 9.0625V16.0938H10.6406C9.77783 16.0938 9.07812 16.7935 9.07812 17.6562V19.2188C9.07812 20.0815 9.77783 20.7812 10.6406 20.7812H17.6719V27.8125C17.6719 28.6753 18.3716 29.375 19.2344 29.375H20.7969C21.6597 29.375 22.3594 28.6753 22.3594 27.8125V20.7812H29.3906C30.2534 20.7812 30.9531 20.0815 30.9531 19.2188V17.6562C30.9531 16.7935 30.2534 16.0938 29.3906 16.0938Z" stroke="white" stroke-width="2" mask="url(#path-2-outside-1_1998_25001)"/>
</g>
<defs>
<linearGradient id="paint0_linear_1998_25001" x1="0.578124" y1="-3.73214" x2="62.8836" y2="9.70472" gradientUnits="userSpaceOnUse">
<stop stop-color="#3586FF"/>
<stop offset="1" stop-color="#83E0B3"/>
</linearGradient>
<clipPath id="clip0_1998_25001">
<rect width="25" height="25" fill="white" transform="translate(7.07812 6.5)"/>
</clipPath>
</defs>
</svg>
