<svg width="24" height="24" viewBox="0 0 24 24" fill="none" xmlns="http://www.w3.org/2000/svg">
<g clip-path="url(#clip0_3694_8093)">
<path d="M23.2664 9.97129L21.2068 9.79922C21.0441 9.7873 20.9061 9.67578 20.8604 9.51914C20.6623 8.81094 20.3793 8.1291 20.018 7.48848C19.94 7.34512 19.9588 7.16855 20.0652 7.04473L21.4012 5.46641C21.6682 5.14824 21.6488 4.67891 21.3564 4.38398L19.6145 2.64355C19.3186 2.35234 18.85 2.33359 18.5316 2.6L16.9527 3.93594C16.8293 4.04238 16.6529 4.06133 16.5096 3.98359C15.8693 3.62207 15.1879 3.33867 14.4801 3.14004C14.3232 3.09414 14.2117 2.95566 14.2 2.79277L14.0283 0.733594C13.9918 0.320312 13.6469 0.00273437 13.232 0H10.768C10.3527 0.00234375 10.0076 0.320117 9.9707 0.733594L9.8 2.79277C9.78828 2.95566 9.67676 3.09414 9.51992 3.14004C8.81172 3.33809 8.12988 3.6209 7.48926 3.98203C7.3459 4.05957 7.16953 4.04063 7.04609 3.93438L5.46836 2.6C5.1498 2.33398 4.68125 2.35352 4.38594 2.64512L2.64355 4.38555C2.35156 4.68086 2.33262 5.1502 2.6 5.46797L3.93555 7.04688C4.04238 7.17031 4.06133 7.34707 3.9832 7.49043C3.62148 8.13066 3.33828 8.81211 3.13965 9.51992C3.09316 9.67559 2.95508 9.78613 2.79316 9.79766L0.733594 9.96914C0.319336 10.0061 0.0015625 10.3521 0 10.768V13.232C0.00234375 13.6471 0.320117 13.9922 0.733594 14.0287L2.79316 14.2008C2.95586 14.2127 3.09395 14.3242 3.13965 14.4809C3.3377 15.1891 3.6207 15.8709 3.98203 16.5115C4.05996 16.6549 4.04121 16.8314 3.93477 16.9553L2.6 18.5316C2.33301 18.8498 2.35234 19.3189 2.64473 19.6141L4.38672 21.3564C4.68223 21.648 5.15098 21.6676 5.46953 21.4016L7.04844 20.0656C7.17207 19.9596 7.34824 19.9408 7.4916 20.018C8.13242 20.3785 8.81426 20.6605 9.52246 20.858C9.6791 20.9039 9.79082 21.0424 9.80234 21.2053L9.97402 23.2645C10.0096 23.6775 10.3533 23.9959 10.768 24H13.232C13.6473 23.9977 13.9924 23.6799 14.0293 23.2664L14.2008 21.2072C14.2125 21.0443 14.324 20.9059 14.4809 20.86C15.1891 20.6625 15.8709 20.3805 16.5115 20.0199C16.6549 19.9422 16.8313 19.9611 16.9549 20.0676L18.5336 21.4035C18.852 21.6703 19.3211 21.6508 19.616 21.3584L21.3584 19.6164C21.6512 19.3203 21.6691 18.8496 21.4 18.532L20.0645 16.9531C19.9576 16.8297 19.9387 16.6529 20.0168 16.5096C20.3785 15.8693 20.6617 15.1879 20.8604 14.4801C20.9068 14.3244 21.0449 14.2139 21.2068 14.2023L23.2664 14.0309C23.6807 13.9939 23.9984 13.6479 24 13.232V10.768C23.9977 10.3529 23.6799 10.0078 23.2664 9.97129ZM23.2 13.232L21.1404 13.4039C20.6455 13.4439 20.2271 13.7861 20.09 14.2633C19.9086 14.9098 19.65 15.532 19.3199 16.1168C19.0787 16.5516 19.1318 17.0904 19.4535 17.4695L20.7896 19.0484L19.0473 20.7908L17.4684 19.4549C17.0891 19.1334 16.5504 19.0801 16.1156 19.3213C15.5309 19.651 14.9084 19.909 14.2619 20.09C13.7848 20.2275 13.4426 20.6459 13.4023 21.1408L13.232 23.2H10.768L10.5965 21.1408C10.5563 20.6457 10.2137 20.2273 9.73633 20.09C9.09004 19.9086 8.46777 19.65 7.8832 19.3199C7.70723 19.2211 7.50859 19.1693 7.30684 19.1695C7.02266 19.1695 6.74746 19.2701 6.53047 19.4535L4.95156 20.7896L3.20918 19.0473L4.54551 17.4684C4.86699 17.0891 4.91992 16.5504 4.67871 16.1156C4.34922 15.5309 4.09121 14.9088 3.90996 14.2623C3.77246 13.7855 3.3541 13.4438 2.85957 13.4039L0.8 13.232V10.768L2.85957 10.5961C3.35449 10.5561 3.77285 10.2139 3.90996 9.73672C4.09141 9.09023 4.35 8.46797 4.68008 7.8832C4.92129 7.44844 4.86816 6.90957 4.54648 6.53047L3.21035 4.95156L4.95273 3.20918L6.53164 4.54512C6.91074 4.86699 7.44961 4.92012 7.88438 4.67871C8.46914 4.34902 9.0916 4.09102 9.73809 3.90996C10.2152 3.77246 10.5574 3.3541 10.5977 2.85918L10.768 0.8H13.232L13.4035 2.85918C13.4438 3.3543 13.7863 3.77266 14.2637 3.90996C14.91 4.09141 15.5322 4.35 16.1168 4.68008C16.5516 4.92129 17.0904 4.86816 17.4695 4.54648L19.0484 3.21035L20.7908 4.95273L19.4545 6.53164C19.133 6.91094 19.0801 7.44961 19.3213 7.88438C19.6508 8.46914 19.9088 9.09121 20.09 9.7377C20.2271 10.2148 20.6455 10.5572 21.1404 10.5973L23.2 10.768V13.232Z" fill="#3586FF"/>
<path d="M12 6C8.68633 6 6 8.68633 6 12C6 15.3137 8.68633 18 12 18C15.3137 18 18 15.3137 18 12C17.9963 8.68789 15.3121 6.00371 12 6ZM12 17.2C9.12812 17.2 6.8 14.8719 6.8 12C6.8 9.12812 9.12812 6.8 12 6.8C14.8719 6.8 17.2 9.12812 17.2 12C17.1967 14.8705 14.8705 17.1967 12 17.2Z" fill="#3586FF"/>
</g>
<defs>
<clipPath id="clip0_3694_8093">
<rect width="24" height="24" fill="white"/>
</clipPath>
</defs>
</svg>
