<svg width="224" height="224" viewBox="0 0 224 224" fill="none" xmlns="http://www.w3.org/2000/svg">
<path d="M157.358 112.765C197.992 113.02 190.943 151.537 151.957 126.249M57.8993 116.869L53.3952 133.743M133.19 74.5917C140.289 76.9705 153.848 86.4111 151.289 105.143M89.9533 111.601C88.5847 113.654 87.0976 120.564 92.0981 131.771M111.96 107.681C109.668 105.883 105.932 100.635 109.319 94.0279M117.96 134.682C115.669 132.883 111.932 127.636 115.32 121.028M12 148.5H190.5M46 160H178M77.9975 172.5H178.003M50.8748 137.644C42.2809 137.389 35.8723 134.221 37.7585 121.271C39.1998 111.376 48.3254 106.079 58.0323 112.371L84.102 40.2375C85.7573 35.3849 90.6508 33.4077 94.6334 34.7351C96.4668 35.3463 98.1043 36.6586 99.1474 38.7144C102.504 45.3333 106.94 57.0889 131.724 65.5429C150.547 71.964 160.899 90.9309 158.236 110.836C158.236 110.836 155.095 122.928 152.699 127.069C142.642 144.451 122.857 153.138 104.034 146.717C79.2504 138.263 68.5549 144.857 61.8529 148.045C59.7733 149.035 57.6728 149.072 55.848 148.436C51.8836 147.055 49.2195 142.497 50.8748 137.644ZM162.156 46.434C162.156 65 184.138 65 172.703 65C161.269 65 152 55.8218 152 44.5C152 33.1782 161.269 24 172.703 24C184.138 24 162.156 24 162.156 46.434Z" stroke="url(#paint0_linear_1410_26739)"/>
<defs>
<linearGradient id="paint0_linear_1410_26739" x1="12" y1="9.41519" x2="298.998" y2="83.8133" gradientUnits="userSpaceOnUse">
<stop stop-color="#3586FF"/>
<stop offset="1" stop-color="#83E0B3"/>
</linearGradient>
</defs>
</svg>
