<svg width="32" height="34" viewBox="0 0 32 34" fill="none" xmlns="http://www.w3.org/2000/svg">
<path d="M19.8329 18.2439C19.838 19.9131 19.8535 25.0307 19.8616 29.1433L19.8329 18.2439Z" fill="#D9D9D9"/>
<path d="M13.7015 3.99337L17.1979 3.99337M13.7015 3.99337H14.0655C14.1407 5.91277 13.8893 9.01701 13.6532 9.96779C12.9985 12.6041 11.5026 12.8019 11.1375 17.6897C11.1375 17.8745 11.1375 18.0586 11.1375 18.2439L11.1375 33.1335H19.8666C19.8666 32.1069 19.8647 30.6968 19.8616 29.1433M13.7015 3.99337L13.5598 1.13354L17.1165 1.13417L17.1979 3.99337M17.1979 3.99337L16.9254 3.99337C16.8305 5.91057 17.0614 9.0138 17.3081 9.96779C17.9785 12.5607 19.5219 12.841 19.8245 17.5818C19.829 17.6521 19.8313 17.7248 19.8315 17.7953C19.8318 17.8882 19.8323 18.0404 19.8329 18.2439M19.8329 18.2439C19.838 19.9131 19.8535 25.0307 19.8616 29.1433M19.8329 18.2439L19.8616 29.1433M19.6463 15.932L18.092 17.3217C17.4458 17.8994 16.8897 18.5705 16.4422 19.3128L15.2898 21.2244C14.4138 22.6774 12.834 23.5581 11.1375 23.5393V23.5393" stroke="white" stroke-width="1.6"/>
</svg>
