<svg width="36" height="34" viewBox="0 0 36 34" fill="none" xmlns="http://www.w3.org/2000/svg">
<path d="M15.7954 8.73154L4.8022 12.5839L2 16.9027L4.8022 18.0805V27.896L17.2119 33L31.2229 27.896V18.0805M18.8611 8.73154L31.2229 12.5839M4.93426 12.5973L17.3403 17.4653M17.3403 17.4653L20.4399 21.669C20.4899 21.737 20.5807 21.764 20.6614 21.7348L31.0165 18.001L34 16.6963L31.3427 12.5973L17.3403 17.4653ZM17.3403 17.4653L14.7346 21.6502C14.6865 21.7274 14.5878 21.7596 14.5012 21.7263L4.81501 18.0984M17.3403 17.4653V33M15.8829 3.82979H18.6896M15.8829 3.82979H16.1751C16.2355 5.34093 16.0336 7.78489 15.8441 8.53344C15.3186 10.609 14.1178 10.7648 13.8247 14.6129C13.8247 14.7584 13.8247 16.0336 13.8247 16.0336L17.3283 17.5369L20.8319 16.2483C20.8314 16.0882 20.8039 14.7692 20.8037 14.696C20.8035 14.6405 20.8017 14.5833 20.798 14.528C20.5552 10.7955 19.3162 10.5748 18.7781 8.53344C18.58 7.78237 18.3947 5.33919 18.4709 3.82979H18.6896M15.8829 3.82979L15.3575 1L19.0801 1L18.6896 3.82979" stroke="white" stroke-width="1.6"/>
</svg>
