<svg width="32" height="32" viewBox="0 0 32 32" fill="none" xmlns="http://www.w3.org/2000/svg">
<path d="M20.5129 7.31956C20.3413 4.23078 18.7969 2 15.9163 2C13.4267 2 11.2466 4.40238 11.2466 7.14796" stroke="white" stroke-width="1.6"/>
<path d="M24.5327 7.22284H7.37279L6 31H25.7338L24.5327 7.22284Z" stroke="white" stroke-width="1.6"/>
<path d="M20.8817 10.9408C20.8817 11.4605 20.4605 11.8817 19.9409 11.8817C19.4213 11.8817 19.0001 11.4605 19.0001 10.9408C19.0001 10.4212 19.4213 10 19.9409 10C20.4605 10 20.8817 10.4212 20.8817 10.9408Z" fill="white"/>
<path d="M12.8817 10.9408C12.8817 11.4605 12.4605 11.8817 11.9409 11.8817C11.4213 11.8817 11.0001 11.4605 11.0001 10.9408C11.0001 10.4212 11.4213 10 11.9409 10C12.4605 10 12.8817 10.4212 12.8817 10.9408Z" fill="white"/>
</svg>
