<svg width="32" height="32" viewBox="0 0 32 32" fill="none" xmlns="http://www.w3.org/2000/svg">
<path d="M13.7554 21.0234H10.7554V2.02344C10.7554 1.75822 10.6501 1.50387 10.4625 1.31633C10.275 1.12879 10.0206 1.02344 9.75542 1.02344H7.75542C7.4902 1.02344 7.23585 1.12879 7.04831 1.31633C6.86078 1.50387 6.75542 1.75822 6.75542 2.02344V21.0234H3.75542C2.86854 21.0234 2.41979 22.1009 3.04979 22.7303L8.04979 28.7303C8.23731 28.9177 8.49157 29.023 8.75667 29.023C9.02177 29.023 9.27603 28.9177 9.46354 28.7303L14.4635 22.7303C15.0898 22.1022 14.6442 21.0234 13.7554 21.0234Z" stroke="#9D9D9D"/>
<path d="M13.8237 3.42188H29.1837M13.8237 10.4619H25.3437M13.8237 17.5019H20.8637" stroke="#9D9D9D"/>
</svg>
