<svg width="38" height="38" viewBox="0 0 38 38" fill="none" xmlns="http://www.w3.org/2000/svg">
<rect width="38" height="38" rx="4" fill="#212131"/>
<mask id="path-2-outside-1_1998_24966" maskUnits="userSpaceOnUse" x="9.25" y="8" width="20" height="22" fill="black">
<rect fill="white" x="9.25" y="8" width="20" height="22"/>
<path d="M27.125 10.25H22.4375L22.0703 9.51954C21.9925 9.36337 21.8727 9.23201 21.7243 9.14022C21.576 9.04844 21.4049 8.99988 21.2305 9.00001H16.7656C16.5916 8.99934 16.4208 9.04772 16.273 9.1396C16.1251 9.23149 16.0062 9.36316 15.9297 9.51954L15.5625 10.25H10.875C10.7092 10.25 10.5503 10.3159 10.4331 10.4331C10.3158 10.5503 10.25 10.7092 10.25 10.875V12.125C10.25 12.2908 10.3158 12.4497 10.4331 12.5669C10.5503 12.6842 10.7092 12.75 10.875 12.75H27.125C27.2908 12.75 27.4497 12.6842 27.5669 12.5669C27.6841 12.4497 27.75 12.2908 27.75 12.125V10.875C27.75 10.7092 27.6841 10.5503 27.5669 10.4331C27.4497 10.3159 27.2908 10.25 27.125 10.25ZM12.3281 27.2422C12.3579 27.7182 12.568 28.165 12.9156 28.4915C13.2633 28.8181 13.7223 28.9999 14.1992 29H23.8008C24.2777 28.9999 24.7367 28.8181 25.0843 28.4915C25.432 28.165 25.6421 27.7182 25.6719 27.2422L26.5 13.5833H19H11.5L12.3281 27.2422Z"/>
</mask>
<path d="M27.125 10.25H22.4375L22.0703 9.51954C21.9925 9.36337 21.8727 9.23201 21.7243 9.14022C21.576 9.04844 21.4049 8.99988 21.2305 9.00001H16.7656C16.5916 8.99934 16.4208 9.04772 16.273 9.1396C16.1251 9.23149 16.0062 9.36316 15.9297 9.51954L15.5625 10.25H10.875C10.7092 10.25 10.5503 10.3159 10.4331 10.4331C10.3158 10.5503 10.25 10.7092 10.25 10.875V12.125C10.25 12.2908 10.3158 12.4497 10.4331 12.5669C10.5503 12.6842 10.7092 12.75 10.875 12.75H27.125C27.2908 12.75 27.4497 12.6842 27.5669 12.5669C27.6841 12.4497 27.75 12.2908 27.75 12.125V10.875C27.75 10.7092 27.6841 10.5503 27.5669 10.4331C27.4497 10.3159 27.2908 10.25 27.125 10.25ZM12.3281 27.2422C12.3579 27.7182 12.568 28.165 12.9156 28.4915C13.2633 28.8181 13.7223 28.9999 14.1992 29H23.8008C24.2777 28.9999 24.7367 28.8181 25.0843 28.4915C25.432 28.165 25.6421 27.7182 25.6719 27.2422L26.5 13.5833H19H11.5L12.3281 27.2422Z" stroke="white" stroke-width="2" mask="url(#path-2-outside-1_1998_24966)"/>
</svg>
