<svg width="38" height="38" viewBox="0 0 38 38" fill="none" xmlns="http://www.w3.org/2000/svg">
<rect width="38" height="38" rx="4" fill="#212131"/>
<path d="M11.8291 27.2734L11.829 27.2724L11.0009 13.6136L10.9789 13.25H10.875C10.5766 13.25 10.2905 13.1315 10.0795 12.9205C9.86853 12.7095 9.75 12.4234 9.75 12.125V10.875C9.75 10.5766 9.86853 10.2905 10.0795 10.0795C10.2905 9.86853 10.5766 9.75001 10.875 9.75001H15.2542L15.4819 9.29716C15.5996 9.05759 15.7823 8.85587 16.009 8.71494C16.2364 8.57365 16.4988 8.49918 16.7665 8.50001M11.8291 27.2734L16.7656 9.00001M11.8291 27.2734C11.8669 27.8764 12.133 28.4423 12.5733 28.856C13.0136 29.2696 13.595 29.4999 14.1992 29.5H14.1992H23.8008H23.8008C24.405 29.4999 24.9864 29.2696 25.4267 28.856C25.867 28.4423 26.1331 27.8764 26.1709 27.2734L26.171 27.2724L26.9991 13.6136L27.0211 13.25L11.8291 27.2734ZM16.7665 8.50001C16.7668 8.50001 16.7672 8.50001 16.7675 8.50001L16.7656 9.00001M16.7665 8.50001H16.7656V9.00001M16.7665 8.50001H21.2303C21.2302 8.50001 21.2302 8.50001 21.2301 8.50001L21.2305 9.00001M16.7656 9.00001H21.2305M21.2305 9.00001V8.50001M21.2305 9.00001V8.50001M21.2305 8.50001C21.4979 8.49988 21.76 8.57434 21.9874 8.71501C22.2146 8.85557 22.3981 9.05666 22.5174 9.29572L22.517 9.29498L22.0703 9.51954L22.5179 9.29662L21.2305 8.50001ZM22.7458 9.75001H22.4375V10.25L22.8842 10.0254L22.7458 9.75001Z" stroke="white"/>
</svg>
