<svg width="38" height="38" viewBox="-1 -1 40 40" fill="none" xmlns="http://www.w3.org/2000/svg">
<rect width="38" height="38" fill="#E5E5E5"/>
<path d="M-1687 -2055C-1687 -2056.1 -1686.1 -2057 -1685 -2057H6437C6438.1 -2057 6439 -2056.1 6439 -2055V3973C6439 3974.1 6438.1 3975 6437 3975H-1685C-1686.1 3975 -1687 3974.1 -1687 3973V-2055Z" fill="#5E97EC" fill-opacity="0.4"/>
<path d="M-1521 -722C-1521 -723.105 -1520.1 -724 -1519 -724H6096C6097.1 -724 6098 -723.105 6098 -722V1387C6098 1388.1 6097.1 1389 6096 1389H-1519C-1520.1 1389 -1521 1388.1 -1521 1387V-722Z" fill="#E5E5E5"/>
<rect width="1366" height="785" transform="translate(-1243 -289)" fill="white"/>
<g filter="url(#filter0_d_1410_20411)">
<rect x="-1228" y="-87" width="1336" height="576" rx="14" fill="white"/>
<rect x="-1216" y="-19" width="1312" height="76" rx="8" fill="white"/>
<mask id="path-9-outside-1_1410_20411" maskUnits="userSpaceOnUse" x="9.25" y="8" width="20" height="22" fill="black">
<rect fill="white" x="9.25" y="8" width="20" height="22"/>
<path d="M27.125 10.25H22.4375L22.0703 9.51954C21.9925 9.36337 21.8727 9.23201 21.7243 9.14022C21.576 9.04844 21.4049 8.99988 21.2305 9.00001H16.7656C16.5916 8.99934 16.4208 9.04772 16.273 9.1396C16.1251 9.23149 16.0062 9.36316 15.9297 9.51954L15.5625 10.25H10.875C10.7092 10.25 10.5503 10.3159 10.4331 10.4331C10.3158 10.5503 10.25 10.7092 10.25 10.875V12.125C10.25 12.2908 10.3158 12.4497 10.4331 12.5669C10.5503 12.6842 10.7092 12.75 10.875 12.75H27.125C27.2908 12.75 27.4497 12.6842 27.5669 12.5669C27.6841 12.4497 27.75 12.2908 27.75 12.125V10.875C27.75 10.7092 27.6841 10.5503 27.5669 10.4331C27.4497 10.3159 27.2908 10.25 27.125 10.25ZM12.3281 27.2422C12.3579 27.7182 12.568 28.165 12.9156 28.4915C13.2633 28.8181 13.7223 28.9999 14.1992 29H23.8008C24.2777 28.9999 24.7367 28.8181 25.0843 28.4915C25.432 28.165 25.6421 27.7182 25.6719 27.2422L26.5 13.5833H19H11.5L12.3281 27.2422Z"/>
</mask>
<path d="M27.125 10.25H22.4375L22.0703 9.51954C21.9925 9.36337 21.8727 9.23201 21.7243 9.14022C21.576 9.04844 21.4049 8.99988 21.2305 9.00001H16.7656C16.5916 8.99934 16.4208 9.04772 16.273 9.1396C16.1251 9.23149 16.0062 9.36316 15.9297 9.51954L15.5625 10.25H10.875C10.7092 10.25 10.5503 10.3159 10.4331 10.4331C10.3158 10.5503 10.25 10.7092 10.25 10.875V12.125C10.25 12.2908 10.3158 12.4497 10.4331 12.5669C10.5503 12.6842 10.7092 12.75 10.875 12.75H27.125C27.2908 12.75 27.4497 12.6842 27.5669 12.5669C27.6841 12.4497 27.75 12.2908 27.75 12.125V10.875C27.75 10.7092 27.6841 10.5503 27.5669 10.4331C27.4497 10.3159 27.2908 10.25 27.125 10.25ZM12.3281 27.2422C12.3579 27.7182 12.568 28.165 12.9156 28.4915C13.2633 28.8181 13.7223 28.9999 14.1992 29H23.8008C24.2777 28.9999 24.7367 28.8181 25.0843 28.4915C25.432 28.165 25.6421 27.7182 25.6719 27.2422L26.5 13.5833H19H11.5L12.3281 27.2422Z" stroke="#FF9797" stroke-width="2" mask="url(#path-9-outside-1_1410_20411)"/>
<rect x="0.5" y="0.5" width="37" height="37" rx="3.5" stroke="#FF9797"/>
<rect x="-1227.5" y="-86.5" width="1335" height="575" rx="13.5" stroke="#5E97EC" stroke-opacity="0.27"/>
</g>
<path d="M-1519 -723H6096V-725H-1519V-723ZM6097 -722V1387H6099V-722H6097ZM6096 1388H-1519V1390H6096V1388ZM-1520 1387V-722H-1522V1387H-1520ZM-1519 1388C-1519.55 1388 -1520 1387.55 -1520 1387H-1522C-1522 1388.66 -1520.66 1390 -1519 1390V1388ZM6097 1387C6097 1387.55 6096.55 1388 6096 1388V1390C6097.66 1390 6099 1388.66 6099 1387H6097ZM6096 -723C6096.55 -723 6097 -722.552 6097 -722H6099C6099 -723.657 6097.66 -725 6096 -725V-723ZM-1519 -725C-1520.66 -725 -1522 -723.657 -1522 -722H-1520C-1520 -722.552 -1519.55 -723 -1519 -723V-725Z" fill="black" fill-opacity="0.1"/>
<path d="M-1685 -2056H6437V-2058H-1685V-2056ZM6438 -2055V3973H6440V-2055H6438ZM6437 3974H-1685V3976H6437V3974ZM-1686 3973V-2055H-1688V3973H-1686ZM-1685 3974C-1685.55 3974 -1686 3973.55 -1686 3973H-1688C-1688 3974.66 -1686.66 3976 -1685 3976V3974ZM6438 3973C6438 3973.55 6437.55 3974 6437 3974V3976C6438.66 3976 6440 3974.66 6440 3973H6438ZM6437 -2056C6437.55 -2056 6438 -2055.55 6438 -2055H6440C6440 -2056.66 6438.66 -2058 6437 -2058V-2056ZM-1685 -2058C-1686.66 -2058 -1688 -2056.66 -1688 -2055H-1686C-1686 -2055.55 -1685.55 -2056 -1685 -2056V-2058Z" fill="black" fill-opacity="0.1"/>
<defs>
<filter id="filter0_d_1410_20411" x="-1235" y="-94" width="1350" height="590" filterUnits="userSpaceOnUse" color-interpolation-filters="sRGB">
<feFlood flood-opacity="0" result="BackgroundImageFix"/>
<feColorMatrix in="SourceAlpha" type="matrix" values="0 0 0 0 0 0 0 0 0 0 0 0 0 0 0 0 0 0 127 0" result="hardAlpha"/>
<feOffset/>
<feGaussianBlur stdDeviation="3.5"/>
<feComposite in2="hardAlpha" operator="out"/>
<feColorMatrix type="matrix" values="0 0 0 0 0 0 0 0 0 0 0 0 0 0 0 0 0 0 0.07 0"/>
<feBlend mode="normal" in2="BackgroundImageFix" result="effect1_dropShadow_1410_20411"/>
<feBlend mode="normal" in="SourceGraphic" in2="effect1_dropShadow_1410_20411" result="shape"/>
</filter>
</defs>
</svg>
