<svg width="279" height="338" viewBox="0 0 279 338" fill="none" xmlns="http://www.w3.org/2000/svg">
<path d="M277.738 1.35121H278.538V0.551212H277.738V1.35121ZM67.0475 1.35121V0.551212H66.2475V1.35121H67.0475ZM277.738 302.115V302.915H278.538V302.115H277.738ZM246.801 302.115L246.129 302.549L246.365 302.915H246.801V302.115ZM219.382 259.684L220.054 259.25L219.817 258.884H219.382V259.684ZM123.832 259.684V258.884H123.353L123.127 259.307L123.832 259.684ZM101.118 302.115V302.915H101.597L101.824 302.492L101.118 302.115ZM264.142 67.8195L264.772 68.3125L265.158 67.8195L264.772 67.3265L264.142 67.8195ZM220.264 11.7412L220.894 11.2482L220.264 10.443L219.634 11.2482L220.264 11.7412ZM176.387 67.8195L175.757 67.3265L175.371 67.8195L175.757 68.3125L176.387 67.8195ZM220.264 123.898L219.634 124.391L220.264 125.196L220.894 124.391L220.264 123.898ZM168.113 67.8195L168.743 68.3125L169.129 67.8195L168.743 67.3265L168.113 67.8195ZM124.235 11.7412L124.865 11.2482L124.235 10.443L123.605 11.2482L124.235 11.7412ZM80.3578 67.8195L79.7278 67.3265L79.342 67.8195L79.7278 68.3125L80.3578 67.8195ZM124.235 123.898L123.605 124.391L124.235 125.196L124.866 124.391L124.235 123.898ZM264.142 190.551L264.772 191.044L265.158 190.551L264.772 190.058L264.142 190.551ZM220.264 134.472L220.894 133.979L220.264 133.174L219.634 133.979L220.264 134.472ZM176.387 190.551L175.757 190.058L175.371 190.55L175.756 191.043L176.387 190.551ZM220.264 246.629L219.671 247.166L220.309 247.87L220.894 247.122L220.264 246.629ZM168.113 190.551L168.743 191.044L169.129 190.551L168.743 190.058L168.113 190.551ZM124.235 134.472L124.865 133.979L124.235 133.174L123.605 133.979L124.235 134.472ZM80.3578 190.551L79.7278 190.058L79.342 190.551L79.7278 191.044L80.3578 190.551ZM124.235 246.629L123.605 247.122L124.235 247.927L124.865 247.122L124.235 246.629ZM215.879 7.89894L216.509 8.39192C216.698 8.15095 216.732 7.82354 216.598 7.5485C216.464 7.27345 216.185 7.09894 215.879 7.09894V7.89894ZM128.124 7.89894V7.09894C127.818 7.09894 127.539 7.27345 127.405 7.5485C127.271 7.82354 127.305 8.15095 127.494 8.39192L128.124 7.89894ZM172.001 63.9773L171.371 64.4702C171.523 64.664 171.755 64.7773 172.001 64.7773C172.247 64.7773 172.48 64.664 172.631 64.4702L172.001 63.9773ZM128.124 251.987L127.502 251.484C127.308 251.724 127.269 252.054 127.402 252.332C127.535 252.61 127.815 252.787 128.124 252.787V251.987ZM215.879 251.987V252.787C216.185 252.787 216.464 252.613 216.598 252.338C216.732 252.063 216.697 251.735 216.509 251.494L215.879 251.987ZM172.001 195.909L172.631 195.416C172.479 195.222 172.246 195.108 171.999 195.109C171.752 195.11 171.519 195.224 171.368 195.42L172.001 195.909ZM269.906 183.818L269.276 184.311C269.486 184.58 269.844 184.686 270.167 184.575C270.49 184.464 270.706 184.16 270.706 183.818H269.906ZM269.906 71.6619H270.706C270.706 71.3205 270.49 71.0168 270.167 70.9055C269.844 70.7943 269.486 70.9001 269.276 71.1689L269.906 71.6619ZM226.028 127.74L225.398 127.247C225.172 127.537 225.172 127.944 225.398 128.233L226.028 127.74ZM74.0966 183.818H73.2966C73.2966 184.16 73.5132 184.464 73.8359 184.575C74.1586 184.686 74.5163 184.58 74.7266 184.311L74.0966 183.818ZM74.0966 71.6619L74.7266 71.1689C74.5163 70.9001 74.1586 70.7943 73.8359 70.9055C73.5132 71.0168 73.2966 71.3205 73.2966 71.6619H74.0966ZM117.974 127.74L118.604 128.233C118.831 127.944 118.831 127.537 118.604 127.247L117.974 127.74ZM74.0966 63.9772H73.2966C73.2966 64.3185 73.5132 64.6222 73.8359 64.7335C74.1586 64.8447 74.5163 64.739 74.7266 64.4701L74.0966 63.9772ZM74.0966 7.89884V7.09884C73.6548 7.09884 73.2966 7.45701 73.2966 7.89884H74.0966ZM117.974 7.89884L118.604 8.39182C118.793 8.15085 118.827 7.82344 118.693 7.5484C118.559 7.27335 118.28 7.09884 117.974 7.09884V7.89884ZM269.782 63.6954L269.152 64.1884C269.362 64.4573 269.72 64.563 270.043 64.4518C270.365 64.3405 270.582 64.0368 270.582 63.6954H269.782ZM269.782 7.61714H270.582C270.582 7.17531 270.224 6.81714 269.782 6.81714V7.61714ZM225.904 7.61714V6.81714C225.598 6.81714 225.319 6.99165 225.185 7.2667C225.051 7.54175 225.086 7.86915 225.274 8.11012L225.904 7.61714ZM269.906 195.909L270.706 195.911C270.707 195.57 270.492 195.266 270.17 195.154C269.848 195.041 269.49 195.145 269.279 195.413L269.906 195.909ZM269.782 251.987V252.787C270.223 252.787 270.581 252.43 270.582 251.989L269.782 251.987ZM225.904 251.987L225.274 251.494C225.086 251.735 225.051 252.063 225.185 252.338C225.319 252.613 225.598 252.787 225.904 252.787V251.987ZM213.121 129.019L213.761 129.499L214.121 129.019L213.761 128.539L213.121 129.019ZM172.001 74.1924L172.641 73.7124L172.009 72.8691L171.367 73.7051L172.001 74.1924ZM130.881 127.74L130.247 127.253L129.881 127.729L130.236 128.213L130.881 127.74ZM172.001 183.818L171.371 184.311L172.015 185.134L172.641 184.299L172.001 183.818ZM219.266 245.527L218.635 246.019L218.653 246.042L218.673 246.064L219.266 245.527ZM258.653 210.133L258.025 209.637L258.023 209.64L258.653 210.133ZM258.653 49.4717L258.023 49.9647V49.9647L258.653 49.4717ZM211.843 22.5041L211.213 22.0111L211.843 22.5041ZM211.843 113.135L211.213 113.628L211.843 113.135ZM204.451 22.5041L205.081 22.997L204.451 22.5041ZM133.458 146.26L134.088 145.767L133.458 146.26ZM90.1874 203.113L89.5573 203.606L90.1874 203.113ZM84.7873 85.3253L85.4174 84.8323L84.7873 85.3253ZM74.0966 195.909L74.7266 195.416C74.5163 195.147 74.1586 195.041 73.8358 195.153C73.5131 195.264 73.2966 195.568 73.2966 195.909H74.0966ZM117.974 251.987V252.787C118.28 252.787 118.559 252.613 118.693 252.338C118.827 252.063 118.793 251.735 118.604 251.494L117.974 251.987ZM85.7969 238.58L84.997 238.596L86.542 238.871L85.7969 238.58ZM1 256.717L0.60177 256.024C0.33136 256.179 0.175754 256.477 0.203078 256.788L1 256.717ZM5.83136 311.633L5.03444 311.703C5.06114 312.007 5.25787 312.269 5.54187 312.379L5.83136 311.633ZM54.8758 331.903L54.9832 332.696C55.1273 332.677 55.2634 332.618 55.3768 332.527L54.8758 331.903ZM91.9621 248.94H92.7621C92.7621 248.895 92.7583 248.85 92.7508 248.806L91.9621 248.94ZM18.9215 279.213L18.8225 278.419C18.4004 278.472 18.0932 278.845 18.1235 279.27L18.9215 279.213ZM22.9931 336.219L22.1951 336.276C22.2108 336.497 22.317 336.701 22.4885 336.84C22.66 336.98 22.8814 337.042 23.1004 337.012L22.9931 336.219ZM34.8994 244.807L34.5011 244.113C34.3155 244.22 34.1803 244.396 34.1258 244.603C34.0712 244.81 34.1019 245.03 34.2109 245.215L34.8994 244.807ZM75.6006 221.447L76.288 221.037C76.0646 220.662 75.5813 220.535 75.2023 220.753L75.6006 221.447ZM88.8691 230.719L89.6579 230.586C89.5977 230.231 89.3084 229.96 88.9508 229.924C88.5931 229.887 88.2549 230.093 88.124 230.428L88.8691 230.719ZM41.7012 233.357L41.9332 232.591C41.7222 232.527 41.4942 232.553 41.303 232.663L41.7012 233.357ZM53.8883 305.234L53.0888 305.263L53.8883 305.234ZM67.0475 226.356L67.4457 227.049L67.0475 226.356ZM277.738 0.551212H67.0475V2.15121H277.738V0.551212ZM278.538 302.115V1.35121H276.939V302.115H278.538ZM246.801 302.915H277.738V301.315H246.801V302.915ZM218.71 260.118L246.129 302.549L247.473 301.68L220.054 259.25L218.71 260.118ZM123.127 259.307L100.413 301.737L101.824 302.492L124.538 260.062L123.127 259.307ZM264.772 67.3265L220.894 11.2482L219.634 12.2342L263.512 68.3125L264.772 67.3265ZM220.894 124.391L264.772 68.3125L263.512 67.3265L219.634 123.405L220.894 124.391ZM123.605 11.2482L79.7278 67.3265L80.9879 68.3125L124.865 12.2342L123.605 11.2482ZM79.7278 68.3125L123.605 124.391L124.865 123.405L80.9879 67.3265L79.7278 68.3125ZM264.772 190.058L220.894 133.979L219.634 134.965L263.512 191.044L264.772 190.058ZM220.894 247.122L264.772 191.044L263.512 190.058L219.634 246.136L220.894 247.122ZM123.605 133.979L79.7278 190.058L80.9879 191.044L124.865 134.965L123.605 133.979ZM124.865 247.122L168.743 191.044L167.483 190.058L123.605 246.136L124.865 247.122ZM215.879 7.09894H128.124V8.69894H215.879V7.09894ZM127.494 8.39192L171.371 64.4702L172.631 63.4843L128.754 7.40596L127.494 8.39192ZM128.124 252.787H215.879V251.187H128.124V252.787ZM216.509 251.494L172.631 195.416L171.371 196.402L215.249 252.48L216.509 251.494ZM270.706 183.818V71.6619H269.106V183.818H270.706ZM74.8966 183.818V71.6619H73.2966V183.818H74.8966ZM74.8966 63.9772V7.89884H73.2966V63.9772H74.8966ZM74.0966 8.69884H117.974V7.09884H74.0966V8.69884ZM270.582 63.6954V7.61714H268.982V63.6954H270.582ZM269.106 195.907L268.982 251.986L270.582 251.989L270.706 195.911L269.106 195.907ZM269.782 251.187H225.904V252.787H269.782V251.187ZM213.761 128.539L172.641 73.7124L171.361 74.6724L212.481 129.499L213.761 128.539ZM130.236 128.213L171.356 184.291L172.646 183.345L131.526 127.267L130.236 128.213ZM172.641 184.299L213.761 129.499L212.481 128.539L171.361 183.338L172.641 184.299ZM218.673 246.064L219.671 247.166L220.857 246.092L219.858 244.99L218.673 246.064ZM175.756 191.043L218.635 246.019L219.896 245.035L177.017 190.059L175.756 191.043ZM171.368 195.42L139.296 236.892L140.562 237.871L172.634 196.398L171.368 195.42ZM139.307 236.879L127.502 251.484L128.746 252.49L140.551 237.884L139.307 236.879ZM270.232 251.326L259.103 243.742L258.202 245.065L269.331 252.649L270.232 251.326ZM226.534 252.48L232.468 244.897L231.208 243.911L225.274 251.494L226.534 252.48ZM258.653 243.604H231.838V245.204H258.653V243.604ZM232.468 244.897L259.283 210.626L258.023 209.64L231.208 243.911L232.468 244.897ZM259.28 210.629L270.533 196.405L269.279 195.413L258.025 209.637L259.28 210.629ZM259.453 244.404V210.133H257.853V244.404H259.453ZM225.398 128.233L258.023 169.929L259.283 168.943L226.659 127.247L225.398 128.233ZM258.023 169.929L269.276 184.311L270.536 183.326L259.283 168.943L258.023 169.929ZM269.276 71.1689L258.023 85.5515L259.283 86.5374L270.536 72.1548L269.276 71.1689ZM258.023 85.5515L225.398 127.247L226.659 128.233L259.283 86.5374L258.023 85.5515ZM259.453 169.436V86.0444H257.853V169.436H259.453ZM258.023 49.9647L269.152 64.1884L270.412 63.2025L259.283 48.9787L258.023 49.9647ZM219.634 11.2482L211.213 22.0111L212.473 22.997L220.894 12.2342L219.634 11.2482ZM211.213 22.0111L175.757 67.3265L177.017 68.3125L212.473 22.997L211.213 22.0111ZM211.221 23.0074L247.903 68.3228L249.146 67.3162L212.465 22.0007L211.221 23.0074ZM175.757 68.3125L211.213 113.628L212.473 112.642L177.017 67.3265L175.757 68.3125ZM211.213 113.628L219.634 124.391L220.894 123.405L212.473 112.642L211.213 113.628ZM247.903 67.3162L211.221 112.632L212.465 113.638L249.146 68.3228L247.903 67.3162ZM219.634 133.979L211.213 144.742L212.473 145.728L220.894 134.965L219.634 133.979ZM211.213 144.742L175.757 190.058L177.017 191.044L212.473 145.728L211.213 144.742ZM211.221 145.738L247.903 191.054L249.146 190.047L212.465 144.732L211.221 145.738ZM247.905 190.044L210.979 235.19L212.217 236.203L249.144 191.057L247.905 190.044ZM264.142 189.751H248.525V191.351H264.142V189.751ZM264.142 67.0195H248.525V68.6195H264.142V67.0195ZM259.453 49.4717V17.1672H257.853V49.4717H259.453ZM259.174 17.7744L270.303 8.22426L269.261 7.01003L258.132 16.5601L259.174 17.7744ZM225.274 8.11012L232.747 17.6602L234.007 16.6743L226.534 7.12416L225.274 8.11012ZM232.747 17.6602L258.023 49.9647L259.283 48.9787L234.007 16.6743L232.747 17.6602ZM258.653 16.3672H233.377V17.9672H258.653V16.3672ZM172.631 64.4702L205.081 22.997L203.821 22.0111L171.371 63.4843L172.631 64.4702ZM205.081 22.997L216.509 8.39192L215.249 7.40596L203.821 22.0111L205.081 22.997ZM204.451 21.7041H141.054V23.3041H204.451V21.7041ZM171.367 73.7051L130.247 127.253L131.516 128.227L172.636 74.6796L171.367 73.7051ZM164.051 174.956L171.371 184.311L172.631 183.325L165.311 173.97L164.051 174.956ZM168.743 67.3265L135.924 25.3817L134.664 26.3677L167.483 68.3125L168.743 67.3265ZM135.924 25.3817L124.865 11.2482L123.605 12.2342L134.664 26.3677L135.924 25.3817ZM134.68 25.3619L99.6468 67.3067L100.875 68.3323L135.908 26.3875L134.68 25.3619ZM124.866 124.391L134.089 112.599L132.828 111.614L123.605 123.405L124.866 124.391ZM134.088 112.6L168.743 68.3125L167.483 67.3265L132.828 111.614L134.088 112.6ZM99.6207 68.2993L132.818 112.586L134.098 111.627L100.901 67.3397L99.6207 68.2993ZM100.261 67.0195H80.3578V68.6195H100.261V67.0195ZM168.743 190.058L134.088 145.767L132.828 146.753L167.483 191.044L168.743 190.058ZM134.088 145.767L124.865 133.979L123.605 134.965L132.828 146.753L134.088 145.767ZM79.7278 191.044L89.5573 203.606L90.8175 202.62L80.9879 190.058L79.7278 191.044ZM89.5573 203.606L123.605 247.122L124.865 246.136L90.8175 202.62L89.5573 203.606ZM132.822 145.775L89.5508 202.629L90.824 203.598L134.095 146.744L132.822 145.775ZM204.451 236.581H139.929V238.181H204.451V236.581ZM117.344 7.40586L110.092 16.6743L111.352 17.6602L118.604 8.39182L117.344 7.40586ZM110.722 16.3672H84.7873V17.9672H110.722V16.3672ZM110.092 16.6743L84.1573 49.8207L85.4174 50.8067L111.352 17.6602L110.092 16.6743ZM84.1573 49.8207L73.4665 63.4842L74.7266 64.4701L85.4174 50.8067L84.1573 49.8207ZM83.9873 17.1672V50.3137H85.5873V17.1672H83.9873ZM85.3114 16.5628L74.6206 7.29437L73.5725 8.5033L84.2633 17.7717L85.3114 16.5628ZM73.4665 72.1548L84.1573 85.8183L85.4174 84.8323L74.7266 71.1689L73.4665 72.1548ZM84.1573 85.8183L117.344 128.233L118.604 127.247L85.4174 84.8323L84.1573 85.8183ZM117.344 127.247L84.1573 169.662L85.4174 170.648L118.604 128.233L117.344 127.247ZM84.1573 169.662L73.4665 183.326L74.7266 184.311L85.4174 170.648L84.1573 169.662ZM83.9873 85.3253V170.155H85.5873V85.3253H83.9873ZM91.9621 252.787H117.974V251.187H91.9621V252.787ZM118.604 251.494L112.67 243.91L111.41 244.896L117.344 252.48L118.604 251.494ZM112.67 243.91L85.8558 209.64L84.5957 210.626L111.41 244.896L112.67 243.91ZM85.8558 209.64L74.7266 195.416L73.4665 196.402L84.5957 210.626L85.8558 209.64ZM86.5967 238.564L86.0256 210.117L84.4259 210.149L84.997 238.596L86.5967 238.564ZM53.0349 274.24L1.26633 255.963L0.733675 257.472L52.5022 275.748L53.0349 274.24ZM0.203078 256.788L5.03444 311.703L6.62828 311.563L1.79692 256.647L0.203078 256.788ZM55.3768 332.527L92.4631 302.738L91.4611 301.491L54.3749 331.28L55.3768 332.527ZM91.5192 248.273L52.3256 274.328L53.2114 275.66L92.405 249.606L91.5192 248.273ZM52.6696 274.2L18.8225 278.419L19.0204 280.007L52.8675 275.788L52.6696 274.2ZM18.1235 279.27L22.1951 336.276L23.791 336.162L19.7195 279.156L18.1235 279.27ZM23.1004 337.012L54.9832 332.696L54.7685 331.111L22.8858 335.427L23.1004 337.012ZM53.457 274.586L35.5878 244.4L34.2109 245.215L52.0801 275.401L53.457 274.586ZM74.9131 221.856L91.2746 249.349L92.6496 248.53L76.288 221.037L74.9131 221.856ZM1.39823 257.411L42.0994 234.051L41.303 232.663L0.60177 256.024L1.39823 257.411ZM5.54187 312.379L21.3869 318.53L21.9658 317.038L6.12085 310.888L5.54187 312.379ZM68.293 295.279L91.7153 302.876L92.2089 301.354L68.7866 293.757L68.293 295.279ZM54.3605 305.88L69.012 295.164L68.0675 293.873L53.416 304.588L54.3605 305.88ZM52.9849 289.368L68.2515 295.265L68.828 293.772L53.5614 287.875L52.9849 289.368ZM41.4692 234.122L50.0739 236.73L50.5379 235.199L41.9332 232.591L41.4692 234.122ZM88.124 230.428L85.0518 238.289L86.542 238.871L89.6143 231.011L88.124 230.428ZM53.0227 303.478L54.0764 331.933L55.6753 331.874L54.6216 303.419L53.0227 303.478ZM51.9691 275.024L52.4959 289.251L54.0948 289.192L53.568 274.964L51.9691 275.024ZM52.4959 289.251L53.0227 303.478L54.6216 303.419L54.0948 289.192L52.4959 289.251ZM18.1235 279.27L20.8784 317.841L22.4743 317.727L19.7195 279.156L18.1235 279.27ZM20.8784 317.841L22.1951 336.276L23.791 336.162L22.4743 317.727L20.8784 317.841ZM53.0227 303.478L53.0888 305.263L54.6877 305.204L54.6216 303.419L53.0227 303.478ZM53.0888 305.263L54.0764 331.933L55.6753 331.874L54.6877 305.204L53.0888 305.263ZM51.9691 275.024L52.4737 288.651L54.0726 288.592L53.568 274.964L51.9691 275.024ZM52.4737 288.651L52.4959 289.251L54.0948 289.192L54.0726 288.592L52.4737 288.651ZM88.0804 230.853L91.1734 249.073L92.7508 248.806L89.6579 230.586L88.0804 230.853ZM123.832 260.484H219.382V258.884H123.832V260.484ZM269.782 6.81714H225.904V8.41714H269.782V6.81714ZM73.2966 195.909L73.2966 222.31H74.8966L74.8966 195.909H73.2966ZM91.9621 302.915H101.118V301.315H91.9621V302.915ZM90.868 245.203H112.04V243.603H90.868V245.203ZM35.2976 245.501L67.4457 227.049L66.6492 225.662L34.5011 244.113L35.2976 245.501ZM67.4457 227.049L75.9988 222.14L75.2023 220.753L66.6492 225.662L67.4457 227.049ZM66.2475 1.35121V226.356H67.8475V1.35121H66.2475ZM185.968 0.374534L159.605 0.200018L159.594 1.79998L185.958 1.9745L185.968 0.374534ZM92.7621 302.115V248.94H91.1621V302.115H92.7621Z" fill="#3586FF"/>
</svg>
