<svg width="300" height="302" viewBox="0 0 300 302" fill="none" xmlns="http://www.w3.org/2000/svg">
<path d="M257.663 1.31431H258.463V0.514312H257.663V1.31431ZM69.1083 1.31431V0.514312H68.3083V1.31431H69.1083ZM257.663 270.478V271.278H258.463V270.478H257.663ZM229.976 270.478L229.304 270.913L229.54 271.278H229.976V270.478ZM205.438 232.506L206.11 232.072L205.873 231.706H205.438V232.506ZM119.927 232.506V231.706H119.448L119.222 232.128L119.927 232.506ZM99.5995 270.478V271.278H100.079L100.305 270.856L99.5995 270.478ZM245.495 60.7992L246.125 61.2922L246.511 60.7992L246.125 60.3062L245.495 60.7992ZM206.227 10.6127L206.858 10.1197L206.227 9.31446L205.597 10.1197L206.227 10.6127ZM166.96 60.7992L166.33 60.3062L165.944 60.7992L166.33 61.2922L166.96 60.7992ZM206.227 110.986L205.597 111.479L206.227 112.284L206.858 111.479L206.227 110.986ZM159.555 60.7992L160.185 61.2922L160.571 60.7992L160.185 60.3062L159.555 60.7992ZM120.288 10.6127L120.918 10.1197L120.288 9.31446L119.658 10.1197L120.288 10.6127ZM81.0202 60.7992L80.3901 60.3062L80.0044 60.7992L80.3901 61.2922L81.0202 60.7992ZM120.288 110.986L119.658 111.479L120.288 112.284L120.918 111.479L120.288 110.986ZM245.495 170.636L246.125 171.129L246.511 170.636L246.125 170.143L245.495 170.636ZM206.227 120.449L206.858 119.956L206.227 119.151L205.597 119.956L206.227 120.449ZM166.96 170.636L166.33 170.143L165.945 170.635L166.329 171.128L166.96 170.636ZM206.227 220.822L205.635 221.359L206.272 222.063L206.858 221.315L206.227 220.822ZM159.555 170.636L160.185 171.129L160.571 170.636L160.185 170.143L159.555 170.636ZM120.288 120.449L120.918 119.956L120.288 119.151L119.658 119.956L120.288 120.449ZM81.0202 170.636L80.3901 170.143L80.0044 170.636L80.3901 171.129L81.0202 170.636ZM120.288 220.822L119.658 221.315L120.288 222.12L120.918 221.315L120.288 220.822ZM202.303 7.17411L202.933 7.66709C203.122 7.42612 203.156 7.09871 203.022 6.82367C202.888 6.54862 202.609 6.37411 202.303 6.37411V7.17411ZM123.768 7.17411V6.37411C123.462 6.37411 123.183 6.54862 123.048 6.82367C122.914 7.09871 122.949 7.42612 123.138 7.66709L123.768 7.17411ZM163.035 57.3606L162.405 57.8536C162.557 58.0474 162.789 58.1606 163.035 58.1606C163.281 58.1606 163.514 58.0474 163.665 57.8536L163.035 57.3606ZM123.768 225.618L123.145 225.115C122.952 225.354 122.913 225.684 123.046 225.962C123.179 226.241 123.459 226.418 123.768 226.418V225.618ZM202.303 225.618V226.418C202.609 226.418 202.888 226.243 203.022 225.968C203.156 225.693 203.121 225.366 202.933 225.125L202.303 225.618ZM163.035 175.431L163.665 174.938C163.513 174.744 163.28 174.63 163.033 174.631C162.786 174.632 162.553 174.746 162.402 174.942L163.035 175.431ZM250.654 164.611L250.024 165.104C250.234 165.373 250.592 165.478 250.914 165.367C251.237 165.256 251.454 164.952 251.454 164.611H250.654ZM250.654 64.2379H251.454C251.454 63.8965 251.237 63.5928 250.914 63.4815C250.592 63.3703 250.234 63.4761 250.024 63.7449L250.654 64.2379ZM211.386 114.424L210.756 113.931C210.529 114.221 210.529 114.628 210.756 114.917L211.386 114.424ZM75.4168 164.611H74.6168C74.6168 164.952 74.8334 165.256 75.1561 165.367C75.4788 165.478 75.8365 165.373 76.0468 165.104L75.4168 164.611ZM75.4168 64.2379L76.0468 63.7449C75.8365 63.4761 75.4788 63.3703 75.1561 63.4815C74.8334 63.5928 74.6168 63.8965 74.6168 64.2379H75.4168ZM114.684 114.424L115.314 114.917C115.541 114.628 115.541 114.221 115.314 113.931L114.684 114.424ZM75.4168 57.3605H74.6168C74.6168 57.7019 74.8334 58.0056 75.1561 58.1169C75.4788 58.2281 75.8365 58.1223 76.0468 57.8535L75.4168 57.3605ZM75.4168 7.17402V6.37402C74.9749 6.37402 74.6168 6.73219 74.6168 7.17402H75.4168ZM114.684 7.17402L115.314 7.667C115.503 7.42603 115.538 7.09863 115.404 6.82358C115.27 6.54853 114.99 6.37402 114.684 6.37402V7.17402ZM250.543 57.1084L249.913 57.6014C250.123 57.8702 250.481 57.976 250.803 57.8647C251.126 57.7535 251.343 57.4498 251.343 57.1084H250.543ZM250.543 6.92192H251.343C251.343 6.48009 250.984 6.12192 250.543 6.12192V6.92192ZM211.275 6.92192V6.12192C210.969 6.12192 210.69 6.29643 210.556 6.57148C210.422 6.84653 210.456 7.17393 210.645 7.4149L211.275 6.92192ZM250.654 175.431L251.454 175.433C251.454 175.092 251.239 174.788 250.917 174.676C250.596 174.564 250.238 174.667 250.026 174.935L250.654 175.431ZM250.543 225.618V226.418C250.984 226.418 251.342 226.061 251.343 225.619L250.543 225.618ZM211.275 225.618L210.645 225.125C210.456 225.366 210.422 225.693 210.556 225.968C210.69 226.243 210.969 226.418 211.275 226.418V225.618ZM199.835 115.569L200.475 116.049L200.835 115.569L200.475 115.089L199.835 115.569ZM163.035 66.5025L163.675 66.0225L163.043 65.1792L162.401 66.0153L163.035 66.5025ZM126.236 114.424L125.601 113.937L125.235 114.413L125.59 114.897L126.236 114.424ZM163.035 164.611L162.405 165.104L163.049 165.926L163.675 165.091L163.035 164.611ZM205.334 219.836L204.703 220.328L204.721 220.351L204.741 220.373L205.334 219.836ZM240.583 188.161L239.955 187.664L239.953 187.668L240.583 188.161ZM240.583 44.3791L239.953 44.872L240.583 44.3791ZM198.691 20.2448L198.061 19.7518L198.691 20.2448ZM198.691 101.354L198.061 101.847L198.691 101.354ZM192.076 20.2448L192.706 20.7377L192.076 20.2448ZM128.542 130.998L129.172 130.505L128.542 130.998ZM89.817 181.879L89.187 182.372L89.817 181.879ZM84.9843 76.4658L85.6144 75.9728L84.9843 76.4658ZM75.4168 175.431L76.0468 174.938C75.8365 174.669 75.4787 174.564 75.156 174.675C74.8333 174.786 74.6168 175.09 74.6168 175.431H75.4168ZM114.684 225.618V226.418C114.99 226.418 115.27 226.243 115.404 225.968C115.538 225.693 115.503 225.366 115.314 225.125L114.684 225.618ZM85.8878 213.619L85.088 213.635L86.6329 213.91L85.8878 213.619ZM10 229.851L9.60177 229.157C9.33136 229.312 9.17575 229.61 9.20308 229.921L10 229.851ZM14.3238 278.997L13.5268 279.067C13.5535 279.371 13.7503 279.633 14.0343 279.743L14.3238 278.997ZM58.2154 297.137L58.3228 297.93C58.4669 297.911 58.603 297.852 58.7164 297.761L58.2154 297.137ZM91.4053 222.89H92.2053C92.2053 222.845 92.2015 222.8 92.194 222.756L91.4053 222.89ZM26.0386 249.983L25.9396 249.189C25.5175 249.241 25.2103 249.615 25.2406 250.04L26.0386 249.983ZM29.6824 301L28.8844 301.057C28.9002 301.277 29.0064 301.481 29.1778 301.621C29.3493 301.76 29.5708 301.822 29.7897 301.793L29.6824 301ZM40.3378 219.192L39.9395 218.498C39.7539 218.604 39.6187 218.781 39.5642 218.988C39.5096 219.195 39.5403 219.415 39.6493 219.599L40.3378 219.192ZM76.7627 198.286L77.4502 197.876C77.2268 197.501 76.7434 197.374 76.3645 197.592L76.7627 198.286ZM88.6373 206.584L89.426 206.45C89.3658 206.096 89.0766 205.825 88.7189 205.788C88.3612 205.752 88.023 205.958 87.8922 206.293L88.6373 206.584ZM46.425 208.945L46.657 208.179C46.446 208.115 46.218 208.141 46.0268 208.251L46.425 208.945ZM57.3316 273.27L56.5322 273.299L57.3316 273.27ZM69.1083 202.679L69.5065 203.373L69.1083 202.679ZM257.663 0.514312H69.1083V2.11431H257.663V0.514312ZM258.463 270.478V1.31431H256.863V270.478H258.463ZM229.976 271.278H257.663V269.678H229.976V271.278ZM204.766 232.94L229.304 270.913L230.648 270.044L206.11 232.072L204.766 232.94ZM119.222 232.128L98.8942 270.101L100.305 270.856L120.632 232.883L119.222 232.128ZM246.125 60.3062L206.858 10.1197L205.597 11.1057L244.865 61.2922L246.125 60.3062ZM206.858 111.479L246.125 61.2922L244.865 60.3062L205.597 110.493L206.858 111.479ZM119.658 10.1197L80.3901 60.3062L81.6502 61.2922L120.918 11.1057L119.658 10.1197ZM80.3901 61.2922L119.658 111.479L120.918 110.493L81.6502 60.3062L80.3901 61.2922ZM246.125 170.143L206.858 119.956L205.597 120.942L244.865 171.129L246.125 170.143ZM206.858 221.315L246.125 171.129L244.865 170.143L205.597 220.329L206.858 221.315ZM119.658 119.956L80.3901 170.143L81.6502 171.129L120.918 120.942L119.658 119.956ZM120.918 221.315L160.185 171.129L158.925 170.143L119.658 220.329L120.918 221.315ZM202.303 6.37411H123.768V7.97411H202.303V6.37411ZM123.138 7.66709L162.405 57.8536L163.665 56.8676L124.398 6.68113L123.138 7.66709ZM123.768 226.418H202.303V224.818H123.768V226.418ZM202.933 225.125L163.665 174.938L162.405 175.924L201.673 226.111L202.933 225.125ZM251.454 164.611V64.2379H249.854V164.611H251.454ZM76.2168 164.611V64.2379H74.6168V164.611H76.2168ZM76.2168 57.3605V7.17402H74.6168V57.3605H76.2168ZM75.4168 7.97402H114.684V6.37402H75.4168V7.97402ZM251.343 57.1084V6.92192H249.743V57.1084H251.343ZM249.854 175.429L249.743 225.616L251.343 225.619L251.454 175.433L249.854 175.429ZM250.543 224.818H211.275V226.418H250.543V224.818ZM200.475 115.089L163.675 66.0225L162.395 66.9825L199.195 116.049L200.475 115.089ZM125.59 114.897L162.39 165.084L163.68 164.138L126.881 113.951L125.59 114.897ZM163.675 165.091L200.475 116.049L199.195 115.089L162.395 164.131L163.675 165.091ZM204.741 220.373L205.635 221.359L206.82 220.285L205.927 219.299L204.741 220.373ZM166.329 171.128L204.703 220.328L205.965 219.344L167.591 170.144L166.329 171.128ZM162.402 174.942L133.7 212.057L134.965 213.036L163.668 175.921L162.402 174.942ZM133.71 212.043L123.145 225.115L124.39 226.121L134.955 213.049L133.71 212.043ZM250.993 224.957L241.033 218.17L240.132 219.492L250.092 226.279L250.993 224.957ZM211.905 226.111L217.215 219.324L215.955 218.338L210.645 225.125L211.905 226.111ZM240.583 218.031H216.585V219.631H240.583V218.031ZM217.215 219.324L241.213 188.654L239.953 187.668L215.955 218.338L217.215 219.324ZM241.21 188.657L251.281 175.928L250.026 174.935L239.955 187.664L241.21 188.657ZM241.383 218.831V188.161H239.783V218.831H241.383ZM210.756 114.917L239.953 152.232L241.213 151.246L212.016 113.931L210.756 114.917ZM239.953 152.232L250.024 165.104L251.284 164.118L241.213 151.246L239.953 152.232ZM250.024 63.7449L239.953 76.6164L241.213 77.6023L251.284 64.7308L250.024 63.7449ZM239.953 76.6164L210.756 113.931L212.016 114.917L241.213 77.6023L239.953 76.6164ZM241.383 151.739V77.1093H239.783V151.739H241.383ZM239.953 44.872L249.913 57.6014L251.173 56.6154L241.213 43.8861L239.953 44.872ZM205.597 10.1197L198.061 19.7518L199.321 20.7377L206.858 11.1057L205.597 10.1197ZM198.061 19.7518L166.33 60.3062L167.59 61.2922L199.321 20.7377L198.061 19.7518ZM198.069 20.7481L230.897 61.3025L232.14 60.2958L199.313 19.7414L198.069 20.7481ZM166.33 61.2922L198.061 101.847L199.321 100.861L167.59 60.3062L166.33 61.2922ZM198.061 101.847L205.597 111.479L206.858 110.493L199.321 100.861L198.061 101.847ZM230.897 60.2958L198.069 100.85L199.313 101.857L232.14 61.3025L230.897 60.2958ZM205.597 119.956L198.061 129.588L199.321 130.574L206.858 120.942L205.597 119.956ZM198.061 129.588L166.33 170.143L167.59 171.129L199.321 130.574L198.061 129.588ZM198.069 130.585L230.897 171.139L232.14 170.132L199.313 129.578L198.069 130.585ZM230.899 170.129L197.853 210.532L199.091 211.545L232.138 171.142L230.899 170.129ZM245.495 169.836H231.519V171.436H245.495V169.836ZM245.495 59.9992H231.519V61.5992H245.495V59.9992ZM241.383 44.3791V15.4687H239.783V44.3791H241.383ZM241.104 16.0758L251.064 7.52903L250.022 6.31481L240.062 14.8615L241.104 16.0758ZM210.645 7.4149L217.332 15.9616L218.592 14.9757L211.905 6.42894L210.645 7.4149ZM217.332 15.9616L239.953 44.872L241.213 43.8861L218.592 14.9757L217.332 15.9616ZM240.583 14.6687H217.962V16.2687H240.583V14.6687ZM163.665 57.8536L192.706 20.7377L191.446 19.7518L162.405 56.8676L163.665 57.8536ZM192.706 20.7377L202.933 7.66709L201.673 6.68113L191.446 19.7518L192.706 20.7377ZM192.076 19.4448H135.34V21.0448H192.076V19.4448ZM162.401 66.0153L125.601 113.937L126.87 114.912L163.67 66.9898L162.401 66.0153ZM155.854 156.731L162.405 165.104L163.665 164.118L157.114 155.745L155.854 156.731ZM160.185 60.3062L130.815 22.7683L129.554 23.7542L158.925 61.2922L160.185 60.3062ZM130.815 22.7683L120.918 10.1197L119.658 11.1057L129.554 23.7542L130.815 22.7683ZM129.57 22.7484L98.2181 60.2864L99.4461 61.312L130.798 23.7741L129.57 22.7484ZM120.918 111.479L129.172 100.926L127.912 99.9404L119.658 110.493L120.918 111.479ZM129.172 100.926L160.185 61.2922L158.925 60.3062L127.912 99.9402L129.172 100.926ZM98.1919 61.279L127.902 100.913L129.182 99.9534L99.4722 60.3194L98.1919 61.279ZM98.8321 59.9992H81.0202V61.5992H98.8321V59.9992ZM160.185 170.143L129.172 130.505L127.912 131.491L158.925 171.129L160.185 170.143ZM129.172 130.505L120.918 119.956L119.658 120.942L127.912 131.491L129.172 130.505ZM80.3901 171.129L89.187 182.372L90.4471 181.386L81.6502 170.143L80.3901 171.129ZM89.187 182.372L119.658 221.315L120.918 220.329L90.4471 181.386L89.187 182.372ZM127.905 130.514L89.1804 181.394L90.4536 182.363L129.178 131.483L127.905 130.514ZM192.075 211.746H134.333V213.346H192.075V211.746ZM114.054 6.68104L107.564 14.9757L108.824 15.9616L115.314 7.667L114.054 6.68104ZM108.194 14.6687H84.9843V16.2687H108.194V14.6687ZM107.564 14.9757L84.3542 44.6396L85.6144 45.6256L108.824 15.9616L107.564 14.9757ZM84.3542 44.6396L74.7867 56.8676L76.0468 57.8535L85.6144 45.6256L84.3542 44.6396ZM84.1843 15.4687V45.1326H85.7843V15.4687H84.1843ZM85.5083 14.8642L75.9408 6.56955L74.8927 7.77848L84.4603 16.0731L85.5083 14.8642ZM74.7867 64.7308L84.3542 76.9587L85.6144 75.9728L76.0468 63.7449L74.7867 64.7308ZM84.3542 76.9587L114.054 114.917L115.314 113.931L85.6144 75.9728L84.3542 76.9587ZM114.054 113.931L84.3542 151.89L85.6144 152.876L115.314 114.917L114.054 113.931ZM84.3542 151.89L74.7867 164.118L76.0468 165.104L85.6144 152.876L84.3542 151.89ZM84.1843 76.4658V152.383H85.7843V76.4658H84.1843ZM91.4053 226.418H114.684V224.818H91.4053V226.418ZM115.314 225.125L110.004 218.338L108.744 219.324L114.054 226.111L115.314 225.125ZM110.004 218.338L86.0067 187.668L84.7466 188.653L108.744 219.324L110.004 218.338ZM86.0067 187.668L76.0468 174.938L74.7867 175.924L84.7466 188.653L86.0067 187.668ZM86.6876 213.603L86.1765 188.144L84.5768 188.177L85.088 213.635L86.6876 213.603ZM56.5958 245.453L10.2663 229.096L9.73367 230.605L56.0632 246.961L56.5958 245.453ZM9.20308 229.921L13.5268 279.067L15.1207 278.927L10.7969 229.781L9.20308 229.921ZM58.7164 297.761L91.9063 271.102L90.9043 269.855L57.7145 296.514L58.7164 297.761ZM90.9624 222.224L55.8866 245.541L56.7724 246.873L91.8482 223.556L90.9624 222.224ZM56.2306 245.413L25.9396 249.189L26.1375 250.777L56.4285 247.001L56.2306 245.413ZM25.2406 250.04L28.8844 301.057L30.4804 300.943L26.8366 249.926L25.2406 250.04ZM29.7897 301.793L58.3228 297.93L58.1081 296.345L29.5751 300.207L29.7897 301.793ZM57.018 245.8L41.0262 218.784L39.6493 219.599L55.6411 246.615L57.018 245.8ZM76.0753 198.695L90.7178 223.299L92.0928 222.481L77.4502 197.876L76.0753 198.695ZM10.3982 230.545L46.8232 209.638L46.0268 208.251L9.60177 229.157L10.3982 230.545ZM14.0343 279.743L28.2145 285.247L28.7935 283.756L14.6132 278.251L14.0343 279.743ZM70.197 264.441L91.1585 271.239L91.6521 269.717L70.6906 262.919L70.197 264.441ZM57.8039 273.916L70.916 264.326L69.9715 263.034L56.8594 272.624L57.8039 273.916ZM56.4929 259.149L70.1555 264.426L70.732 262.934L57.0694 257.656L56.4929 259.149ZM46.193 209.71L53.8936 212.044L54.3576 210.513L46.657 208.179L46.193 209.71ZM87.8922 206.293L85.1427 213.328L86.6329 213.91L89.3824 206.875L87.8922 206.293ZM56.473 271.702L57.416 297.167L59.0149 297.108L58.0719 271.643L56.473 271.702ZM55.5301 246.237L56.0015 258.969L57.6005 258.91L57.129 246.177L55.5301 246.237ZM56.0015 258.969L56.473 271.702L58.0719 271.643L57.6005 258.91L56.0015 258.969ZM25.2406 250.04L27.706 284.558L29.302 284.444L26.8366 249.926L25.2406 250.04ZM27.706 284.558L28.8844 301.057L30.4804 300.943L29.302 284.444L27.706 284.558ZM56.473 271.702L56.5322 273.299L58.1311 273.24L58.0719 271.643L56.473 271.702ZM56.5322 273.299L57.416 297.167L59.0149 297.108L58.1311 273.24L56.5322 273.299ZM55.5301 246.237L55.9817 258.432L57.5806 258.373L57.129 246.177L55.5301 246.237ZM55.9817 258.432L56.0015 258.969L57.6005 258.91L57.5806 258.373L55.9817 258.432ZM87.8485 206.718L90.6166 223.024L92.194 222.756L89.426 206.45L87.8485 206.718ZM119.927 233.306H205.438V231.706H119.927V233.306ZM250.543 6.12192H211.275V7.72192H250.543V6.12192ZM74.6168 175.431L74.6168 199.058H76.2168L76.2168 175.431H74.6168ZM91.4053 271.278H99.5995V269.678H91.4053V271.278ZM90.4261 219.631H109.374V218.031H90.4261V219.631ZM40.736 219.886L69.5065 203.373L68.71 201.985L39.9395 218.498L40.736 219.886ZM69.5065 203.373L77.161 198.979L76.3645 197.592L68.71 201.985L69.5065 203.373ZM68.3083 1.31431V202.679H69.9083V1.31431H68.3083ZM175.535 0.356199L151.942 0.200018L151.931 1.79998L175.525 1.95616L175.535 0.356199ZM92.2053 270.478V222.89H90.6053V270.478H92.2053Z" fill="#3586FF"/>
</svg>
