<svg width="25" height="26" viewBox="0 0 25 26" fill="none" xmlns="http://www.w3.org/2000/svg">
<path d="M9.18619 1.0437C4.17048 2.5359 0.5 7.3304 0.5 13.0144C0.5 18.7174 4.195 23.5249 9.2364 25M15.6632 1C20.7559 2.44025 24.5 7.27365 24.5 13.0144C24.5 18.7174 20.805 23.5249 15.7636 25M16.8683 10.0969C16.7679 8.91602 15.9645 6.50211 13.5545 6.29372V4.05347H11.3453V6.29372C10.1403 6.29372 7.78043 7.49198 7.78043 10.0969C7.78043 15.6715 14.7092 12.4935 14.91 16.0362C14.7092 18.9016 9.83891 18.2764 9.73849 15.7757H7.42887C7.52929 16.9566 8.83473 19.3705 11.2448 19.5789V21.8191H13.454V19.5789C14.659 19.5789 17.2197 18.3806 17.2197 15.7757C17.2197 10.2011 10.09 13.3791 10.09 10.0448C10.09 7.90877 13.8556 7.33569 14.7092 10.0969H16.8683Z" stroke="#3586FF"/>
</svg>
