<svg width="20" height="19" viewBox="0 0 20 19" fill="none" xmlns="http://www.w3.org/2000/svg">
<path d="M7.51464 1.03159C3.75286 2.11015 1 5.57561 1 9.68403C1 13.8062 3.77125 17.281 7.5523 18.3472M12.3724 1C16.1919 2.04101 19 5.53459 19 9.68403C19 13.8062 16.2288 17.281 12.4477 18.3472M13.2762 7.57525C13.2009 6.72169 12.5984 4.97692 10.7909 4.82629V3.20705H9.13396V4.82629C8.2302 4.82629 6.46033 5.6924 6.46032 7.57525C6.46032 11.6045 11.6569 9.30747 11.8075 11.8681C11.6569 13.9393 8.00418 13.4874 7.92887 11.6799H6.19665C6.27197 12.5334 7.25105 14.2782 9.05858 14.4288V16.0481H10.7155V14.4288C11.6192 14.4288 13.5397 13.5627 13.5397 11.6799C13.5398 7.65056 8.19247 9.94763 8.19247 7.53759C8.19247 5.99366 11.0167 5.57943 11.6569 7.57525H13.2762Z" stroke="#3586FF"/>
</svg>
