<svg width="576" height="483" viewBox="0 0 576 483" fill="none" xmlns="http://www.w3.org/2000/svg">
<path opacity="0.4" d="M273.5 231C332.641 231 380.583 183.99 380.583 126C380.583 68.0101 332.641 21 273.5 21C214.36 21 166.417 68.0101 166.417 126C166.417 183.99 214.36 231 273.5 231Z" fill="url(#paint0_linear_1919_24238)"/>
<mask id="path-2-inside-1_1919_24238" fill="white">
<path d="M158.803 92.8423C163.803 74.1674 173.747 57.1864 187.587 43.688C201.427 30.1895 218.651 20.6731 237.445 16.1411L262.645 120.646L158.803 92.8423Z"/>
</mask>
<path d="M158.803 92.8423C163.803 74.1674 173.747 57.1864 187.587 43.688C201.427 30.1895 218.651 20.6731 237.445 16.1411L262.645 120.646L158.803 92.8423Z" stroke="url(#paint1_linear_1919_24238)" stroke-width="3.2" mask="url(#path-2-inside-1_1919_24238)"/>
<path fill-rule="evenodd" clip-rule="evenodd" d="M328.776 154.808C327.819 155.953 327.114 157.687 326.597 159.579C325.312 164.276 326.378 164.896 326.378 164.896" fill="white"/>
<path fill-rule="evenodd" clip-rule="evenodd" d="M381.603 113.811L394.176 106.061C394.176 106.061 400.463 102.185 416.915 100.66C424.272 99.9782 441.855 89.5947 447.145 86.3338C453.432 82.4584 450.191 80.1482 454.636 77.408C460.923 73.5326 474.745 98.1267 477.904 114.761C479.116 121.147 482.046 142.363 471.881 140.013C460.517 137.386 453.02 151.639 443.12 170.666C433.219 189.693 416.066 204.919 416.066 204.919C413.44 206.537 403.244 209.458 399.724 211.925C386.391 221.27 383.687 220.537 378.714 223.603C374.954 225.92 364.391 229.228 358.705 231.837C357.316 232.474 355.712 232.575 354.323 231.954C351.585 230.729 347.145 228.747 346.031 228.274C327.355 220.345 327.355 211.925 327.355 211.925C334.248 205.082 350.073 205.376 357.703 211.925C364.091 208.032 369.096 204.676 373.009 201.79C384.746 193.13 377.816 186.67 363.535 189.568C363.535 189.568 357.703 192.073 347.198 189.448C338.95 199.125 328.57 207.197 321.165 208.956C314.731 212.922 315.097 238.79 303.083 248.16C294.502 254.852 286.504 251.473 285.356 249.267C282.276 243.349 284.792 243.01 291.333 229.196C300.138 214.291 296.884 212.732 302.474 199.504C304.85 193.882 305.942 192.239 311.847 189.448C311.847 189.448 315.647 177.934 318.998 173.942C328.271 162.894 329.851 163.81 344.051 146.5C346.931 142.988 344.548 131.025 361 129.5" fill="white"/>
<path fill-rule="evenodd" clip-rule="evenodd" d="M387.772 109.892C387.772 109.892 375.205 117.64 363.841 120.339C360.892 121.04 347.515 125.078 346.194 126.913C341.362 133.628 340.572 140.841 328.811 154.856" fill="white"/>
<path d="M326.597 159.579L327.369 159.79V159.79L326.597 159.579ZM394.176 106.061L393.757 105.38L393.757 105.38L394.176 106.061ZM416.915 100.66L416.841 99.8636V99.8636L416.915 100.66ZM447.145 86.3338L447.565 87.0148L447.145 86.3338ZM454.636 77.408L455.056 78.089L454.636 77.408ZM477.904 114.761L477.118 114.91V114.91L477.904 114.761ZM471.881 140.013L471.701 140.793L471.881 140.013ZM416.066 204.919L416.485 205.6C416.525 205.575 416.562 205.548 416.597 205.517L416.066 204.919ZM399.724 211.925L399.265 211.27V211.27L399.724 211.925ZM378.714 223.603L379.133 224.284L378.714 223.603ZM346.031 228.274L345.718 229.01L346.031 228.274ZM327.355 211.925L326.791 211.357C326.64 211.508 326.555 211.712 326.555 211.925H327.355ZM357.703 211.925L357.182 212.532C357.445 212.758 357.823 212.789 358.119 212.608L357.703 211.925ZM363.535 189.568L363.376 188.784C363.322 188.795 363.269 188.811 363.219 188.833L363.535 189.568ZM347.198 189.448L347.392 188.672C347.097 188.598 346.786 188.697 346.589 188.929L347.198 189.448ZM321.165 208.956L320.98 208.177C320.897 208.197 320.818 208.23 320.745 208.275L321.165 208.956ZM303.083 248.16L302.591 247.529L303.083 248.16ZM285.356 249.267L284.646 249.636L285.356 249.267ZM291.333 229.196L290.645 228.789C290.632 228.81 290.621 228.831 290.61 228.854L291.333 229.196ZM302.474 199.504L303.211 199.816L302.474 199.504ZM311.847 189.448L312.189 190.171C312.387 190.077 312.538 189.906 312.607 189.698L311.847 189.448ZM318.998 173.942L318.385 173.428L318.385 173.428L318.998 173.942ZM344.051 146.5L344.669 147.007L344.669 147.007L344.051 146.5ZM373.009 201.79L373.483 202.434L373.009 201.79ZM358.705 231.837L359.038 232.564L358.705 231.837ZM354.323 231.954L354.65 231.224L354.323 231.954ZM344.051 158.381L344.643 158.918C344.698 158.858 344.743 158.79 344.777 158.716L344.051 158.381ZM363.841 120.339L363.656 119.561L363.656 119.561L363.841 120.339ZM346.194 126.913L345.545 126.446L345.545 126.446L346.194 126.913ZM208.795 236V235.2H208.353L208.118 235.574L208.795 236ZM254.295 236L255.002 236.374L255.622 235.2H254.295V236ZM189.295 359V359.8H189.777L190.002 359.374L189.295 359ZM131.295 359L130.618 358.574L129.845 359.8H131.295V359ZM96.7949 365.5L97.4636 365.939L96.7949 365.5ZM480.295 394.428H481.095V394.33L481.072 394.236L480.295 394.428ZM185.918 236.66L185.273 236.188L185.918 236.66ZM443.934 247.443L443.158 247.635L443.934 247.443ZM480.295 396H479.495V396.061L479.504 396.122L480.295 396ZM474.718 401.7H121.036V403.3H474.718V401.7ZM328.163 154.294C327.093 155.573 326.352 157.443 325.825 159.368L327.369 159.79C327.877 157.931 328.545 156.332 329.39 155.321L328.163 154.294ZM325.825 159.368C325.17 161.764 325.085 163.215 325.213 164.112C325.278 164.567 325.401 164.9 325.548 165.141C325.621 165.262 325.699 165.357 325.774 165.432C325.812 165.469 325.848 165.5 325.882 165.525C325.899 165.538 325.916 165.55 325.931 165.56C325.939 165.566 325.947 165.57 325.954 165.575C325.958 165.577 325.961 165.58 325.965 165.582C325.967 165.583 325.969 165.584 325.97 165.585C325.971 165.585 325.972 165.586 325.973 165.586C325.974 165.587 325.975 165.588 326.378 164.896C326.78 164.205 326.781 164.206 326.783 164.206C326.783 164.207 326.784 164.207 326.785 164.208C326.787 164.209 326.789 164.21 326.79 164.211C326.794 164.213 326.797 164.215 326.8 164.217C326.806 164.221 326.812 164.225 326.818 164.229C326.83 164.236 326.84 164.244 326.85 164.251C326.869 164.266 326.884 164.279 326.895 164.29C326.917 164.311 326.922 164.322 326.915 164.311C326.902 164.29 326.838 164.173 326.797 163.886C326.714 163.299 326.739 162.091 327.369 159.79L325.825 159.368ZM382.022 114.492L394.596 106.742L393.757 105.38L381.183 113.13L382.022 114.492ZM394.176 106.061C394.596 106.742 394.596 106.742 394.595 106.742C394.595 106.742 394.595 106.742 394.595 106.742C394.595 106.743 394.595 106.743 394.595 106.743C394.594 106.743 394.595 106.743 394.595 106.742C394.597 106.741 394.6 106.74 394.604 106.737C394.613 106.732 394.628 106.723 394.649 106.711C394.692 106.686 394.761 106.648 394.855 106.597C395.045 106.496 395.34 106.346 395.748 106.159C396.565 105.785 397.835 105.265 399.62 104.694C403.188 103.554 408.816 102.214 416.989 101.457L416.841 99.8636C408.562 100.631 402.82 101.992 399.133 103.17C397.289 103.76 395.959 104.303 395.083 104.704C394.645 104.904 394.32 105.069 394.102 105.185C393.992 105.244 393.91 105.29 393.852 105.323C393.824 105.34 393.802 105.353 393.786 105.362C393.778 105.367 393.771 105.371 393.766 105.374C393.764 105.375 393.762 105.376 393.76 105.377C393.759 105.378 393.759 105.378 393.758 105.379C393.758 105.379 393.757 105.379 393.757 105.379C393.757 105.379 393.757 105.38 394.176 106.061ZM416.989 101.457C418.951 101.275 421.52 100.46 424.299 99.334C427.096 98.201 430.173 96.7252 433.172 95.1748C439.173 92.0735 444.91 88.6512 447.565 87.0148L446.725 85.6528C444.09 87.2772 438.39 90.6771 432.438 93.7534C429.461 95.2917 426.432 96.7434 423.698 97.851C420.946 98.966 418.558 99.7045 416.841 99.8636L416.989 101.457ZM447.565 87.0148C449.192 86.0117 450.244 85.0844 450.965 84.1922C451.691 83.2936 452.05 82.4669 452.329 81.7283C452.615 80.9729 452.787 80.4155 453.15 79.8417C453.495 79.2975 454.031 78.7207 455.056 78.089L454.217 76.7269C453.019 77.4653 452.293 78.2049 451.799 78.9857C451.323 79.7369 451.078 80.513 450.833 81.1622C450.581 81.828 450.294 82.4768 449.72 83.1869C449.141 83.9035 448.241 84.7182 446.725 85.6528L447.565 87.0148ZM455.056 78.089C455.593 77.7582 456.237 77.6987 457.055 77.9757C457.895 78.2604 458.868 78.889 459.943 79.863C462.087 81.8069 464.456 84.961 466.757 88.8043C471.355 96.4843 475.559 106.703 477.118 114.91L478.69 114.612C477.089 106.184 472.804 95.7891 468.13 87.9824C465.794 84.0823 463.331 80.7748 461.017 78.6775C459.863 77.6308 458.7 76.8439 457.568 76.4604C456.414 76.0692 455.252 76.0889 454.217 76.7269L455.056 78.089ZM477.118 114.91C477.72 118.085 478.74 124.905 478.361 130.61C478.169 133.48 477.63 135.941 476.609 137.523C476.108 138.298 475.511 138.833 474.803 139.125C474.096 139.417 473.204 139.498 472.061 139.234L471.701 140.793C473.099 141.116 474.339 141.048 475.413 140.604C476.486 140.161 477.317 139.375 477.953 138.391C479.203 136.456 479.761 133.654 479.957 130.716C480.35 124.804 479.299 117.823 478.69 114.612L477.118 114.91ZM472.061 139.234C465.926 137.815 460.928 141.021 456.329 146.717C451.735 152.406 447.347 160.81 442.41 170.297L443.829 171.035C448.793 161.496 453.103 153.259 457.574 147.722C462.039 142.191 466.472 139.584 471.701 140.793L472.061 139.234ZM442.41 170.297C437.503 179.728 430.786 188.235 425.283 194.394C422.534 197.471 420.093 199.956 418.341 201.67C417.465 202.528 416.761 203.192 416.278 203.641C416.036 203.866 415.849 204.036 415.723 204.15C415.66 204.208 415.613 204.25 415.581 204.279C415.565 204.293 415.553 204.304 415.545 204.311C415.542 204.314 415.539 204.317 415.537 204.318C415.536 204.319 415.535 204.32 415.535 204.32C415.535 204.32 415.535 204.32 415.535 204.32C415.534 204.32 415.535 204.32 416.066 204.919C416.597 205.517 416.597 205.517 416.597 205.517C416.597 205.516 416.598 205.516 416.598 205.516C416.598 205.515 416.599 205.515 416.601 205.513C416.603 205.511 416.606 205.508 416.611 205.504C416.62 205.497 416.632 205.485 416.649 205.47C416.683 205.44 416.733 205.395 416.798 205.336C416.928 205.217 417.12 205.042 417.366 204.813C417.859 204.356 418.573 203.682 419.46 202.814C421.233 201.079 423.7 198.568 426.477 195.46C432.026 189.25 438.837 180.631 443.829 171.035L442.41 170.297ZM415.646 204.238C415.06 204.599 413.996 205.061 412.608 205.604C411.235 206.142 409.618 206.73 407.95 207.355C404.668 208.582 401.127 209.965 399.265 211.27L400.183 212.58C401.841 211.419 405.157 210.108 408.51 208.853C410.159 208.236 411.803 207.637 413.191 207.094C414.562 206.558 415.758 206.048 416.485 205.6L415.646 204.238ZM399.265 211.27C392.63 215.921 388.662 218.048 385.749 219.392C382.884 220.714 380.832 221.357 378.294 222.922L379.133 224.284C381.569 222.783 383.356 222.259 386.419 220.845C389.435 219.453 393.485 217.275 400.183 212.58L399.265 211.27ZM378.294 222.922C376.495 224.031 372.999 225.409 369.149 226.862C365.349 228.297 361.247 229.79 358.371 231.11L359.038 232.564C361.849 231.275 365.872 229.81 369.714 228.359C373.508 226.927 377.173 225.492 379.133 224.284L378.294 222.922ZM354.65 231.224C351.916 230.001 347.467 228.014 346.343 227.537L345.718 229.01C346.823 229.479 351.253 231.457 353.996 232.684L354.65 231.224ZM346.343 227.537C337.096 223.612 332.556 219.599 330.328 216.645C329.214 215.168 328.673 213.948 328.408 213.121C328.276 212.707 328.213 212.39 328.182 212.185C328.167 212.083 328.16 212.008 328.157 211.964C328.155 211.942 328.155 211.928 328.155 211.921C328.154 211.918 328.154 211.917 328.154 211.917C328.154 211.918 328.155 211.918 328.155 211.92C328.155 211.92 328.155 211.921 328.155 211.922C328.155 211.923 328.155 211.923 328.155 211.924C328.155 211.924 328.155 211.925 327.355 211.925C326.555 211.925 326.555 211.926 326.555 211.927C326.555 211.927 326.555 211.928 326.555 211.929C326.555 211.93 326.555 211.932 326.555 211.934C326.555 211.937 326.555 211.941 326.555 211.945C326.555 211.954 326.555 211.965 326.556 211.978C326.557 212.003 326.558 212.037 326.561 212.079C326.567 212.162 326.578 212.277 326.6 212.42C326.642 212.707 326.725 213.109 326.884 213.608C327.204 214.608 327.829 215.989 329.05 217.608C331.491 220.846 336.289 225.008 345.718 229.01L346.343 227.537ZM327.918 212.493C331.158 209.277 336.595 207.667 342.247 207.703C347.893 207.739 353.552 209.416 357.182 212.532L358.224 211.318C354.224 207.884 348.156 206.14 342.258 206.103C336.367 206.066 330.444 207.731 326.791 211.357L327.918 212.493ZM358.119 212.608C364.522 208.706 369.548 205.337 373.483 202.434L372.534 201.146C368.645 204.016 363.659 207.358 357.287 211.242L358.119 212.608ZM363.535 189.568C363.219 188.833 363.219 188.833 363.22 188.833C363.22 188.833 363.22 188.833 363.22 188.832C363.22 188.832 363.221 188.832 363.221 188.832C363.221 188.832 363.221 188.832 363.221 188.832C363.22 188.833 363.217 188.834 363.214 188.835C363.207 188.838 363.194 188.843 363.175 188.851C363.138 188.865 363.079 188.887 362.998 188.916C362.835 188.973 362.585 189.055 362.249 189.147C361.577 189.33 360.561 189.553 359.22 189.697C356.54 189.985 352.55 189.961 347.392 188.672L347.004 190.224C352.35 191.56 356.529 191.596 359.391 191.288C360.821 191.134 361.92 190.895 362.67 190.69C363.044 190.588 363.332 190.495 363.529 190.425C363.628 190.39 363.704 190.362 363.758 190.341C363.785 190.33 363.806 190.322 363.821 190.315C363.829 190.312 363.835 190.309 363.84 190.307C363.843 190.306 363.845 190.306 363.846 190.305C363.847 190.304 363.848 190.304 363.849 190.304C363.849 190.304 363.849 190.304 363.85 190.303C363.85 190.303 363.85 190.303 363.535 189.568ZM346.589 188.929C342.499 193.728 337.883 198.124 333.382 201.533C328.867 204.954 324.525 207.336 320.98 208.177L321.35 209.734C325.21 208.817 329.761 206.284 334.348 202.809C338.95 199.323 343.649 194.845 347.807 189.967L346.589 188.929ZM320.745 208.275C319.78 208.87 319.001 209.836 318.339 210.999C317.673 212.168 317.094 213.594 316.557 215.181C315.489 218.34 314.542 222.292 313.445 226.321C312.34 230.38 311.072 234.562 309.346 238.304C307.619 242.047 305.456 245.295 302.591 247.529L303.575 248.79C306.718 246.339 309.015 242.84 310.799 238.974C312.584 235.106 313.879 230.817 314.989 226.741C316.106 222.637 317.025 218.792 318.073 215.693C318.595 214.15 319.136 212.832 319.729 211.791C320.325 210.743 320.942 210.033 321.585 209.637L320.745 208.275ZM302.591 247.529C298.458 250.753 294.513 251.519 291.503 251.253C289.99 251.12 288.713 250.726 287.761 250.25C286.779 249.759 286.239 249.231 286.065 248.897L284.646 249.636C285.046 250.405 285.937 251.127 287.046 251.681C288.185 252.251 289.659 252.697 291.362 252.847C294.783 253.149 299.128 252.259 303.575 248.79L302.591 247.529ZM286.065 248.897C285.312 247.449 284.949 246.43 284.867 245.507C284.788 244.602 284.972 243.708 285.475 242.5C285.987 241.27 286.793 239.792 287.912 237.706C289.022 235.634 290.413 233.01 292.056 229.538L290.61 228.854C288.983 232.289 287.607 234.887 286.501 236.95C285.404 238.997 284.548 240.564 283.998 241.885C283.439 243.228 283.163 244.392 283.273 245.647C283.382 246.883 283.86 248.125 284.646 249.636L286.065 248.897ZM292.022 229.603C296.461 222.089 297.879 217.902 298.885 213.917C299.88 209.975 300.446 206.358 303.211 199.816L301.737 199.193C298.911 205.879 298.31 209.656 297.333 213.526C296.367 217.353 295.01 221.398 290.645 228.789L292.022 229.603ZM303.211 199.816C304.402 196.996 305.225 195.298 306.433 193.948C307.632 192.608 309.263 191.554 312.189 190.171L311.505 188.724C308.527 190.133 306.659 191.296 305.241 192.881C303.833 194.455 302.922 196.39 301.737 199.193L303.211 199.816ZM311.847 189.448C312.607 189.698 312.607 189.698 312.607 189.698C312.607 189.698 312.607 189.698 312.607 189.698C312.607 189.698 312.607 189.697 312.607 189.697C312.608 189.696 312.608 189.694 312.609 189.691C312.611 189.686 312.614 189.678 312.617 189.667C312.624 189.646 312.635 189.614 312.649 189.572C312.677 189.488 312.719 189.364 312.774 189.204C312.883 188.885 313.044 188.423 313.246 187.856C313.653 186.721 314.228 185.168 314.907 183.492C316.282 180.1 318.029 176.341 319.61 174.456L318.385 173.428C316.616 175.535 314.788 179.528 313.425 182.891C312.735 184.593 312.151 186.168 311.74 187.317C311.534 187.891 311.372 188.36 311.26 188.686C311.204 188.849 311.161 188.976 311.132 189.063C311.118 189.106 311.107 189.139 311.099 189.162C311.095 189.173 311.092 189.182 311.091 189.188C311.09 189.191 311.089 189.193 311.088 189.194C311.088 189.195 311.088 189.196 311.088 189.196C311.088 189.196 311.088 189.197 311.088 189.197C311.087 189.197 311.087 189.197 311.847 189.448ZM319.61 174.456C324.22 168.965 326.906 166.457 330.241 163.136C333.589 159.801 337.552 155.683 344.669 147.007L343.432 145.993C336.349 154.627 332.422 158.705 329.112 162.002C325.789 165.312 323.049 167.871 318.385 173.428L319.61 174.456ZM344.669 147.007C345.112 146.468 345.427 145.8 345.683 145.098C345.94 144.393 346.156 143.598 346.373 142.784C346.816 141.13 347.284 139.339 348.151 137.614C349.01 135.907 350.257 134.276 352.253 132.976C354.255 131.672 357.058 130.669 361.074 130.297L360.926 128.703C356.716 129.094 353.648 130.158 351.38 131.636C349.105 133.117 347.683 134.983 346.721 136.896C345.768 138.791 345.263 140.745 344.828 142.37C344.607 143.195 344.408 143.922 344.179 144.55C343.95 145.18 343.71 145.654 343.432 145.993L344.669 147.007ZM373.483 202.434C376.469 200.231 378.363 198.102 379.221 196.14C380.101 194.128 379.894 192.257 378.63 190.817C377.422 189.441 375.36 188.59 372.797 188.244C370.213 187.896 367.009 188.047 363.376 188.784L363.694 190.352C367.201 189.64 370.219 189.512 372.584 189.83C374.971 190.152 376.585 190.913 377.428 191.873C378.214 192.768 378.431 193.954 377.755 195.499C377.058 197.093 375.417 199.019 372.534 201.146L373.483 202.434ZM358.371 231.11C357.156 231.667 355.795 231.736 354.65 231.224L353.996 232.684C355.628 233.414 357.475 233.281 359.038 232.564L358.371 231.11ZM312.189 190.059C320.489 184.942 326.798 178.577 344.643 158.918L343.458 157.843C325.575 177.544 319.419 183.721 311.349 188.697L312.189 190.059ZM344.777 158.716C348.135 151.433 352.027 148.444 355.784 147.01C357.689 146.283 359.594 145.943 361.461 145.672C363.297 145.406 365.16 145.203 366.831 144.737L366.401 143.196C364.86 143.625 363.155 143.81 361.231 144.089C359.338 144.363 357.29 144.723 355.214 145.515C351.01 147.119 346.831 150.441 343.324 158.046L344.777 158.716ZM387.772 109.892C387.352 109.211 387.352 109.211 387.352 109.211C387.352 109.211 387.352 109.211 387.352 109.211C387.352 109.211 387.351 109.211 387.35 109.212C387.349 109.213 387.347 109.214 387.344 109.216C387.339 109.219 387.33 109.224 387.318 109.231C387.295 109.246 387.26 109.267 387.214 109.295C387.121 109.351 386.982 109.435 386.801 109.542C386.44 109.757 385.909 110.067 385.236 110.449C383.89 111.212 381.977 112.258 379.711 113.387C375.169 115.652 369.25 118.232 363.656 119.561L364.026 121.118C369.796 119.747 375.842 117.104 380.425 114.819C382.721 113.674 384.66 112.615 386.025 111.84C386.708 111.453 387.248 111.137 387.618 110.918C387.803 110.808 387.946 110.722 388.042 110.664C388.091 110.634 388.128 110.612 388.153 110.597C388.165 110.589 388.175 110.583 388.181 110.579C388.185 110.577 388.187 110.576 388.189 110.575C388.19 110.574 388.19 110.574 388.191 110.573C388.191 110.573 388.191 110.573 388.191 110.573C388.192 110.573 388.192 110.573 387.772 109.892ZM363.656 119.561C362.148 119.92 358.04 121.113 354.148 122.444C352.2 123.11 350.289 123.817 348.774 124.477C348.018 124.806 347.345 125.131 346.811 125.439C346.309 125.729 345.819 126.065 345.545 126.446L346.844 127.38C346.899 127.303 347.116 127.11 347.611 126.825C348.072 126.559 348.684 126.261 349.413 125.943C350.87 125.309 352.735 124.618 354.666 123.958C358.53 122.636 362.585 121.46 364.026 121.118L363.656 119.561ZM345.545 126.446C343.083 129.867 341.62 133.466 339.39 137.78C337.142 142.129 334.036 147.386 328.198 154.342L329.424 155.371C335.347 148.312 338.517 142.954 340.812 138.514C343.125 134.039 344.473 130.674 346.844 127.38L345.545 126.446ZM376.73 225.447H414.812V223.847H376.73V225.447ZM314.722 225.447H338.728V223.847H314.722V225.447ZM209.773 225.447H293.872V223.847H209.773V225.447ZM208.795 236.8H254.295V235.2H208.795V236.8ZM189.295 358.2H131.295V359.8H189.295V358.2ZM131.972 359.426L209.472 236.426L208.118 235.574L130.618 358.574L131.972 359.426ZM253.588 235.626L188.588 358.626L190.002 359.374L255.002 236.374L253.588 235.626ZM138.295 383.7C133.026 383.7 127.821 383.92 122.958 384.115C118.086 384.31 113.565 384.481 109.626 384.388C105.676 384.294 102.386 383.936 99.9505 383.11C97.5295 382.288 96.0858 381.054 95.5624 379.274L94.0274 379.726C94.7541 382.196 96.7479 383.712 99.4362 384.625C102.11 385.532 105.601 385.893 109.589 385.987C113.587 386.082 118.16 385.909 123.022 385.713C127.893 385.518 133.064 385.3 138.295 385.3V383.7ZM95.5624 379.274C94.3617 375.192 94.7676 371.985 95.4929 369.751C96.222 367.505 97.2671 366.238 97.4636 365.939L96.1262 365.061C96.1262 365.061 96.1244 365.064 96.1198 365.07C96.1153 365.077 96.1095 365.085 96.1019 365.096C96.0862 365.118 96.0671 365.144 96.0421 365.178C95.9934 365.246 95.9293 365.334 95.8547 365.441C95.7049 365.655 95.5132 365.942 95.3016 366.299C94.8786 367.013 94.3778 368.004 93.9711 369.256C93.155 371.77 92.7281 375.308 94.0274 379.726L95.5624 379.274ZM97.4636 365.939C137.238 305.369 171.15 258.193 186.564 237.133L185.273 236.188C169.848 257.263 135.919 304.462 96.1262 365.061L97.4636 365.939ZM480.295 396C481.074 396.183 481.074 396.182 481.074 396.182C481.074 396.181 481.074 396.18 481.074 396.18C481.075 396.178 481.075 396.177 481.075 396.175C481.076 396.172 481.077 396.169 481.078 396.164C481.08 396.156 481.082 396.146 481.084 396.133C481.089 396.108 481.096 396.075 481.102 396.034C481.116 395.952 481.131 395.839 481.143 395.699C481.166 395.42 481.175 395.03 481.121 394.565C481.013 393.628 480.654 392.391 479.676 391.134C477.719 388.618 473.438 386.207 464.339 385.701L464.251 387.299C473.152 387.793 476.871 390.132 478.413 392.116C479.186 393.109 479.452 394.059 479.531 394.748C479.571 395.095 479.564 395.377 479.548 395.566C479.541 395.661 479.531 395.732 479.524 395.775C479.52 395.796 479.517 395.811 479.516 395.818C479.515 395.822 479.515 395.823 479.515 395.823C479.515 395.823 479.515 395.823 479.515 395.821C479.515 395.821 479.515 395.82 479.516 395.819C479.516 395.819 479.516 395.818 479.516 395.818C479.516 395.818 479.516 395.817 480.295 396ZM464.339 385.701C446.31 384.7 156.125 383.7 138.295 383.7V385.3C156.164 385.3 446.28 386.3 464.251 387.299L464.339 385.701ZM443.158 247.635L479.518 394.62L481.072 394.236L444.711 247.25L443.158 247.635ZM479.495 394.428V396H481.095V394.428H479.495ZM209.773 223.847C200.093 223.847 190.996 228.368 185.273 236.188L186.564 237.133C191.98 229.733 200.592 225.447 209.773 225.447V223.847ZM121.036 401.7C108.563 401.7 99.1644 391.521 95.5624 379.274L94.0274 379.726C97.7411 392.352 107.583 403.3 121.036 403.3V401.7ZM414.812 225.447C428.238 225.447 439.933 234.602 443.158 247.635L444.711 247.25C441.31 233.503 428.973 223.847 414.812 223.847V225.447ZM474.718 403.3C478.667 403.3 481.686 399.781 481.086 395.878L479.504 396.122C479.955 399.055 477.686 401.7 474.718 401.7V403.3Z" fill="url(#paint2_linear_1919_24238)"/>
<path opacity="0.5" d="M111 371L192.012 244H240L171.372 371H111Z" fill="url(#paint3_linear_1919_24238)"/>
<path d="M392.165 250.394L392.533 250.565L392.888 250.369L406.678 242.767C408.491 241.768 410.673 241.703 412.541 242.593L416.921 244.68C417.833 245.114 417.895 246.392 417.028 246.913L404.169 254.639L402.889 255.409L404.239 256.048L424.429 265.607C425.783 266.248 425.887 268.138 424.611 268.924L421.641 270.753C419.728 271.931 417.341 272.024 415.343 271L394.866 260.508L394.467 260.303L394.084 260.537L377.865 270.457C375.632 271.823 372.794 271.697 370.69 270.139L366.688 267.176C365.825 266.536 365.913 265.216 366.853 264.697L382.969 255.8L384.316 255.056L382.933 254.381L366.275 246.246C365.306 245.773 365.333 244.381 366.319 243.945L370.214 242.226C371.633 241.599 373.254 241.615 374.661 242.268L392.165 250.394ZM290.581 271.859L290.581 271.859L290.585 271.848L298.538 251.027C298.538 251.026 298.539 251.024 298.54 251.023C298.576 250.935 298.647 250.84 299.247 250.545C299.305 250.517 299.366 250.488 299.429 250.457C299.982 250.189 300.751 249.817 301.694 249.149C303.754 247.69 306.582 244.872 310.253 238.65L314.061 238.65C314.062 238.65 314.063 238.65 314.064 238.65C315.046 238.663 315.743 239.618 315.452 240.561L305.818 271.818C305.261 273.623 303.587 274.846 301.702 274.826L292.502 274.732C291.033 274.717 290.035 273.229 290.581 271.859ZM273.894 312.752L274.441 312.757L274.645 312.249L282.537 292.579C283.327 290.611 285.192 289.288 287.307 289.194L295.587 288.828C298.269 288.709 300.247 291.308 299.417 293.867L293.595 311.834L293.262 312.86L294.34 312.88L325.979 313.491C328.602 313.542 330.59 315.882 330.215 318.485L329.664 322.306C329.241 325.243 326.712 327.412 323.75 327.382L289.5 327.031L288.906 327.025L288.729 327.591L279.473 357.052C278.657 359.648 276.3 361.45 273.585 361.554L262.688 361.971C258.774 362.121 256.007 358.175 257.481 354.538L268.339 327.752L268.78 326.663L267.606 326.651L234.307 326.31C231.651 326.283 230.091 323.303 231.586 321.099L235.254 315.693C236.659 313.622 239.005 312.394 241.504 312.42L273.894 312.752ZM395.501 290.199L403.932 290.098C406.477 290.068 408.697 291.822 409.26 294.309L423.509 357.329C424.294 360.803 421.568 364.073 418.016 363.923L405.534 363.394C402.923 363.283 400.765 361.315 400.414 358.72L391.734 294.569C391.423 292.274 393.19 290.226 395.501 290.199ZM287.023 253.693C287.087 254.257 286.691 255.036 285.5 255.81C284.353 256.556 282.664 257.152 280.705 257.374C278.746 257.597 276.966 257.396 275.682 256.927C274.348 256.44 273.788 255.77 273.724 255.207C273.66 254.643 274.055 253.865 275.247 253.09C276.393 252.344 278.082 251.749 280.042 251.526C282.001 251.303 283.78 251.504 285.065 251.973C286.399 252.46 286.959 253.13 287.023 253.693ZM335.813 254.419C335.861 255.045 335.423 255.84 334.244 256.58C333.1 257.299 331.43 257.841 329.508 257.987C327.585 258.133 325.853 257.85 324.614 257.312C323.337 256.758 322.784 256.039 322.737 255.413C322.69 254.787 323.128 253.993 324.306 253.252C325.45 252.533 327.12 251.991 329.043 251.845C330.965 251.699 332.698 251.983 333.937 252.521C335.213 253.075 335.766 253.794 335.813 254.419Z" fill="white" stroke="url(#paint4_linear_1919_24238)" stroke-width="1.6"/>
<defs>
<linearGradient id="paint0_linear_1919_24238" x1="166.417" y1="0.37502" x2="516.944" y2="77.4699" gradientUnits="userSpaceOnUse">
<stop stop-color="#3586FF"/>
<stop offset="1" stop-color="#83E0B3"/>
</linearGradient>
<linearGradient id="paint1_linear_1919_24238" x1="333.223" y1="272.689" x2="12.3625" y2="108.078" gradientUnits="userSpaceOnUse">
<stop stop-color="#3586FF"/>
<stop offset="1" stop-color="#83E0B3"/>
</linearGradient>
<linearGradient id="paint2_linear_1919_24238" x1="94" y1="45.0313" x2="717.495" y2="205.022" gradientUnits="userSpaceOnUse">
<stop stop-color="#3586FF"/>
<stop offset="1" stop-color="#83E0B3"/>
</linearGradient>
<linearGradient id="paint3_linear_1919_24238" x1="111" y1="231.527" x2="322.213" y2="277.794" gradientUnits="userSpaceOnUse">
<stop stop-color="#3586FF"/>
<stop offset="1" stop-color="#83E0B3"/>
</linearGradient>
<linearGradient id="paint4_linear_1919_24238" x1="231.211" y1="224.645" x2="531.771" y2="328.826" gradientUnits="userSpaceOnUse">
<stop stop-color="#3586FF"/>
<stop offset="1" stop-color="#83E0B3"/>
</linearGradient>
</defs>
</svg>
